<svg width="60" height="60" viewBox="0 0 60 60" fill="none" xmlns="http://www.w3.org/2000/svg">
<path d="M44.2732 17.3288C44.2732 16.7278 43.7723 16.1268 43.0711 16.1268C42.4701 16.1268 41.8691 16.6277 41.8691 17.2287C41.8691 17.8297 42.37 18.4307 43.0711 18.4307C43.7723 18.5308 44.2732 17.9298 44.2732 17.3288Z" fill="white"/>
<path d="M23.3389 41.3689C29.0484 35.6594 34.8581 29.9499 40.4674 24.2404C35.9599 19.7329 31.3523 15.1252 26.7446 10.5175C26.6444 10.6177 26.4441 10.7179 26.3439 10.9182C20.9349 16.3272 15.4257 21.8364 10.0167 27.2454C9.51586 27.7462 9.01504 27.9466 8.2137 27.9466C7.0117 27.9466 5.90986 27.9466 4.70786 27.9466C4.70786 37.8631 4.70786 47.6795 4.70786 57.6961C4.90819 57.6961 5.20869 57.6961 5.40902 57.6961C10.818 57.6961 16.3272 57.6961 21.7362 57.6961C21.9366 57.6961 22.1369 57.6961 22.3372 57.6961C22.9382 57.7963 23.3389 58.2972 23.3389 58.8982C23.3389 59.4992 22.9382 60 22.3372 60C22.1369 60 21.9366 60 21.7362 60C15.8264 60 9.81637 60 3.90652 60C2.70452 60 2.30384 59.5993 2.30384 58.3973C2.30384 48.4808 2.30384 38.6644 2.30384 28.7479C2.30384 28.5476 2.30384 28.2471 2.30384 27.9466C1.40234 27.8464 0.400668 28.1469 0 27.1452C0 26.9449 0 26.6444 0 26.4441C0.300501 26.1436 0.500838 25.8431 0.801338 25.5426C9.01503 17.3289 17.2287 9.11519 25.4424 0.901504C25.7429 0.601003 26.1436 0.300501 26.5442 0C26.7446 0 27.0451 0 27.2454 0C27.6461 0.300501 27.9466 0.601003 28.3472 0.901504C32.4541 5.00835 36.6611 9.21536 40.768 13.3222C41.5693 14.1235 41.6694 14.8247 41.0684 15.3255C40.4674 15.9265 39.8664 15.7262 39.0651 14.9249C35.1586 11.0184 31.3523 7.21202 27.4457 3.30551C27.2454 3.10518 27.1452 2.90484 27.0451 2.80468C19.4324 10.4174 11.8197 18.03 4.30718 25.5426C4.70785 25.5426 5.10852 25.5426 5.60935 25.5426C6.51086 25.5426 7.51252 25.7429 8.31386 25.4424C9.11519 25.1419 9.61604 24.2404 10.217 23.6394C15.3256 18.5309 20.4341 13.4224 25.6427 8.21369C26.6444 7.21202 27.1452 7.21202 28.1469 8.21369C32.7546 12.8214 37.3623 17.429 41.97 22.0367C42.1703 22.2371 42.2705 22.4374 42.4708 22.6377C43.2721 21.8364 43.8731 21.2354 44.4741 20.5342C44.7746 20.2337 45.0751 20.0334 45.4758 19.8331C47.98 18.9316 50.384 18.03 52.8881 17.1285C53.4891 16.9282 53.99 16.828 54.3906 17.3289C54.7913 17.8297 54.7913 18.3306 54.591 18.8314C53.6895 21.2354 52.788 23.7396 51.8865 26.1436C51.7863 26.4441 51.586 26.8447 51.3856 27.0451C48.4808 29.9499 45.576 32.8548 42.6711 35.7596C42.4708 35.9599 42.1703 36.1603 41.8698 36.1603C41.3689 36.2604 41.0685 36.0601 40.768 35.6594C40.4675 35.2588 40.4675 34.8581 40.768 34.3573C40.8681 34.1569 41.0685 33.9566 41.2688 33.7563C43.6728 31.3523 46.177 28.8481 48.581 26.4441C48.7813 26.2437 48.8815 26.1436 49.0818 26.0434C47.8798 24.8414 46.778 23.7396 45.6761 22.7379C38.6644 29.7496 31.4524 36.9616 24.4407 43.9733C25.4424 44.975 26.6444 46.177 27.7463 47.2788C27.8464 47.1786 27.9466 47.0785 28.1469 46.8781C30.3506 44.6745 32.5543 42.4708 34.8581 40.1669C35.0584 39.9666 35.1586 39.8664 35.3589 39.6661C35.8598 39.3656 36.4608 39.3656 36.8614 39.7663C37.2621 40.1669 37.2621 40.7679 36.9616 41.2688C36.8614 41.4691 36.7613 41.5693 36.5609 41.6694C33.4558 44.7746 30.3506 47.8798 27.1452 51.0851C25.3422 52.8881 23.2387 53.1886 21.1352 52.0868C18.7312 50.7846 18.0301 47.2788 19.7329 45.0751C19.9332 44.8748 20.0334 44.6745 20.2337 44.4741C20.9349 43.6728 21.1352 43.5726 21.7362 42.6711M22.3372 45.9766C21.4357 46.778 20.6344 47.5793 21.0351 48.9816C21.3356 49.9833 21.9366 50.5843 22.8381 50.6845C24.1402 50.8848 24.9416 50.1836 25.6427 49.3823C24.5409 48.1803 23.4391 47.0785 22.3372 45.9766ZM50.0835 23.9399C50.4841 22.7379 50.985 21.5359 51.4858 20.2337C50.0835 20.7346 48.8815 21.1352 47.7796 21.6361C48.581 22.3372 49.2821 23.1386 50.0835 23.9399Z" fill="white"/>
<path d="M60.0001 42.1703C60.0001 47.5793 60.0001 52.9883 60.0001 58.3973C60.0001 59.5993 59.5994 60 58.3974 60C47.5794 60 36.7614 60 25.9434 60C25.3424 60 24.8415 59.8998 24.541 59.2988C24.2405 58.6978 24.541 58.197 24.9417 57.7963C35.8599 46.8781 46.7781 35.9599 57.6963 25.0417C58.0969 24.641 58.5978 24.3405 59.1988 24.5409C59.7998 24.8414 59.8999 25.3422 59.8999 25.9432C60.0001 31.3522 60.0001 36.7612 60.0001 42.1703ZM28.6479 57.596C38.3641 57.596 48.0803 57.596 57.6963 57.596C57.6963 47.8798 57.6963 38.2637 57.6963 28.6477C56.2939 30.0501 54.7914 31.5526 53.3891 32.9549C53.6896 33.2554 53.9901 33.5559 54.2906 33.8564C54.8916 34.4574 54.8916 35.1586 54.3908 35.6594C53.8899 36.1602 53.1888 36.1602 52.5878 35.5592C52.2873 35.2587 51.9868 34.8581 51.7864 34.5576C50.6846 35.6594 49.6829 36.6611 48.6813 37.6627C48.7814 37.7629 49.0819 37.8631 49.1821 38.0634C49.3824 38.1636 49.4826 38.3639 49.6829 38.5642C50.1838 39.1652 50.2839 39.7663 49.7831 40.2671C49.2823 40.7679 48.5811 40.7679 47.9801 40.1669C47.6796 39.8664 47.3791 39.4658 47.0786 39.2654C46.0769 40.2671 45.0752 41.2688 44.0736 42.2704C44.3741 42.5709 44.6746 42.8714 44.9751 43.1719C45.5761 43.7729 45.5761 44.4741 45.0752 44.9749C44.5744 45.4758 43.8732 45.3756 43.2722 44.8748C42.9717 44.5743 42.6712 44.1736 42.3707 43.9733C41.3691 44.9749 40.3674 45.9766 39.2656 47.0784C39.4659 47.1786 39.6662 47.2788 39.7664 47.4791C39.9667 47.5793 40.0669 47.7796 40.2672 47.9799C40.7681 48.5809 40.8682 49.1819 40.3674 49.6828C39.8666 50.1836 39.1654 50.1836 38.5644 49.5826C38.2639 49.2821 37.9634 48.8814 37.6629 48.6811C36.6612 49.6828 35.6596 50.6844 34.6579 51.6861C34.9584 51.9866 35.2589 52.2871 35.5594 52.5876C36.1604 53.1886 36.1604 53.8898 35.6596 54.3906C35.1587 54.8915 34.4575 54.7913 33.8565 54.2905C33.556 53.99 33.2556 53.5893 32.9551 53.2888C31.5527 54.6911 30.0502 56.0935 28.6479 57.596Z" fill="white"/>
<path d="M44.2745 17.3289C44.2745 17.9299 43.7737 18.5309 43.1727 18.5309C42.5717 18.5309 41.9707 18.0301 41.9707 17.3289C41.9707 16.7279 42.4715 16.2271 43.1727 16.2271C43.7737 16.2271 44.2745 16.7279 44.2745 17.3289Z" fill="white"/>
<path d="M39.5665 37.8631C39.5665 38.4641 39.0657 39.0651 38.4647 39.0651C37.8637 39.0651 37.2627 38.5643 37.2627 37.8631C37.2627 37.2621 37.7635 36.7613 38.4647 36.7613C39.0657 36.7613 39.5665 37.2621 39.5665 37.8631Z" fill="white"/>
<path d="M54.1898 46.2771C54.1898 48.3806 54.1898 50.4841 54.1898 52.5876C54.1898 53.5893 53.7892 53.99 52.6873 53.99C48.4803 53.99 44.2733 53.99 40.0663 53.99C39.4653 53.99 38.9645 53.8898 38.7641 53.2888C38.5638 52.6878 38.7641 52.2871 39.1648 51.7863C43.472 47.4791 47.7792 43.2721 51.9862 38.9649C52.3868 38.5642 52.8877 38.3639 53.4887 38.5642C54.0897 38.7646 54.1898 39.2654 54.1898 39.8664C54.1898 42.0701 54.1898 44.1736 54.1898 46.2771ZM51.7858 51.6861C51.7858 48.6811 51.7858 45.6761 51.7858 42.7713C48.7808 45.7763 45.876 48.6811 42.871 51.6861C45.7758 51.6861 48.7808 51.6861 51.7858 51.6861Z" fill="white"/>
<path d="M17.63 34.6577C18.1308 34.6577 18.5315 35.0584 18.5315 35.5592C18.5315 36.0601 18.1308 36.4607 17.63 36.4607C17.1292 36.4607 16.7285 36.0601 16.7285 35.5592C16.7285 35.0584 17.1292 34.6577 17.63 34.6577Z" fill="white"/>
<path d="M21.2355 36.4607C20.7347 36.4607 20.334 36.0601 20.334 35.5592C20.334 35.0584 20.7347 34.6577 21.2355 34.6577C21.7363 34.6577 22.137 35.0584 22.137 35.5592C22.137 36.0601 21.7363 36.4607 21.2355 36.4607Z" fill="white"/>
<path d="M14.1242 36.4607C13.6233 36.4607 13.2227 36.0601 13.2227 35.5592C13.2227 35.0584 13.6233 34.6577 14.1242 34.6577C14.625 34.6577 15.0256 35.0584 15.0256 35.5592C14.9255 36.0601 14.625 36.4607 14.1242 36.4607Z" fill="white"/>
<path d="M11.4182 35.5592C11.4182 36.0601 11.0176 36.4607 10.5167 36.4607C10.0159 36.4607 9.61523 36.0601 9.61523 35.5592C9.61523 35.0584 10.0159 34.6577 10.5167 34.6577C11.0176 34.6577 11.4182 35.0584 11.4182 35.5592Z" fill="white"/>
<path d="M52.9877 17.0284C50.4835 17.9299 48.0795 18.8314 45.5753 19.7329C45.1747 19.833 44.8742 20.1335 44.5737 20.434C43.8725 21.035 43.2715 21.7362 42.5703 22.5375L40.7673 24.04C35.0578 29.7496 29.3483 35.4591 23.6388 41.1686L21.936 42.8714C21.2348 43.7729 21.0345 43.8731 20.4335 44.6744C20.2331 44.7746 20.133 45.0751 19.9326 45.2754C18.2298 47.3789 18.9309 50.8848 21.335 52.2871C23.4385 53.4891 25.542 53.0885 27.345 51.2855C30.4501 48.1803 33.5553 45.0751 36.7607 41.8698C36.8608 41.7696 37.0612 41.5693 37.1613 41.4691C37.4618 40.9683 37.4618 40.3673 37.0612 39.9666C36.6605 39.5659 36.0595 39.4658 35.5587 39.8664C35.3583 39.9666 35.158 40.1669 35.0578 40.3673C32.8541 42.5709 30.6505 44.7746 28.3466 47.0784C28.2465 47.1786 28.0461 47.3789 27.946 47.4791C26.8441 46.3773 25.6421 45.1753 24.6405 44.1736C31.7523 37.0617 38.8642 29.9499 45.8758 22.9382C46.9777 24.04 48.0795 25.1419 49.2815 26.2437C49.0812 26.3439 48.981 26.5442 48.7807 26.6444C46.3767 29.0484 43.8725 31.5526 41.4685 33.9566C41.2682 34.1569 41.0678 34.3572 40.9677 34.5576C40.6672 34.9582 40.6672 35.3589 40.9677 35.8597C41.2682 36.2604 41.6688 36.4607 42.0695 36.3606C42.37 36.2604 42.6705 36.1602 42.8708 35.9599C45.7757 33.0551 48.6805 30.1502 51.5854 27.2454C51.7857 27.0451 51.986 26.6444 52.0862 26.3439C52.9877 23.9399 53.8892 21.4357 54.7907 19.0317C54.991 18.5309 55.0912 17.9299 54.5904 17.5292C54.0895 16.7279 53.5887 16.828 52.9877 17.0284ZM25.9426 49.1819C25.2415 50.0834 24.34 50.7846 23.138 50.4841C22.1363 50.2838 21.5353 49.6828 21.335 48.7813C21.0345 47.4791 21.7356 46.5776 22.6371 45.7763C23.6388 46.9783 24.7406 48.0801 25.9426 49.1819ZM50.2832 23.7395C49.4819 22.9382 48.6805 22.1369 47.9794 21.3355C49.0812 20.9349 50.2832 20.434 51.6855 19.9332C51.1847 21.3355 50.784 22.5375 50.2832 23.7395Z" fill="white"/>
<path d="M17.029 49.3823C16.9288 48.8815 16.9288 48.4808 16.9288 47.98C15.1258 47.98 13.3228 47.98 11.5198 47.98C11.5198 46.2771 11.5198 44.4741 11.5198 42.6711C14.2243 42.6711 16.8286 42.6711 19.5331 42.6711C19.8336 42.3706 20.034 42.1703 20.3345 41.6694L20.4347 41.5693L21.236 40.7679H21.1358C17.7301 40.7679 14.2243 40.7679 10.8186 40.7679C10.0173 40.7679 9.7168 41.0684 9.7168 41.8698C9.7168 44.0735 9.7168 46.3773 9.7168 48.581C9.7168 49.3823 10.0173 49.6828 10.9188 49.6828C12.6216 49.6828 14.3245 49.6828 16.0273 49.6828C16.428 49.6828 16.8286 49.6828 17.2293 49.6828C17.029 49.6828 17.029 49.5826 17.029 49.3823Z" fill="white"/>
<path d="M17.8297 51.586C14.5242 51.586 11.2187 51.586 7.91322 51.586C7.91322 47.4791 7.91322 43.2721 7.91322 39.1653C12.9216 39.1653 17.9299 39.1653 22.9383 39.1653L25.8431 36.2604C25.8431 35.4591 25.8431 34.6578 25.8431 33.7563C26.6444 33.7563 27.5459 33.7563 28.3473 33.7563L30.2505 31.8531C27.6461 31.8531 24.9416 31.8531 22.2371 31.8531C22.2371 31.0517 22.2371 30.1502 22.2371 29.3489C22.2371 28.7479 21.9366 28.3472 21.5359 28.3472C20.6344 28.3472 19.6328 28.3472 18.7313 28.3472C18.7313 28.9482 18.7313 29.5492 18.7313 30.1502C19.3323 30.1502 19.8331 30.1502 20.4341 30.1502C20.4341 30.7512 20.4341 31.3522 20.4341 31.8531C19.2321 31.8531 18.1303 31.8531 16.9282 31.8531C16.9282 30.6511 16.9282 29.5492 16.9282 28.3472C16.3272 28.3472 15.7262 28.3472 15.1252 28.3472C15.1252 29.5492 15.1252 30.6511 15.1252 31.8531C13.9232 31.8531 12.8214 31.8531 11.6194 31.8531C11.6194 31.2521 11.6194 30.6511 11.6194 30.0501C12.2204 30.0501 12.7212 30.0501 13.3222 30.0501C13.3222 29.4491 13.3222 28.8481 13.3222 28.2471C12.5209 28.2471 11.7196 28.2471 10.9182 28.2471C10.1169 28.2471 9.81639 28.5476 9.81639 29.3489C9.81639 30.1502 9.81639 30.9516 9.81639 31.7529C9.01505 31.7529 8.21372 31.7529 7.51255 31.7529C7.01171 31.7529 6.61105 31.8531 6.31055 32.3539C6.31055 39.1653 6.31055 45.8764 6.31055 52.6878C6.61105 53.0885 7.01172 53.1886 7.61272 53.1886C11.6194 53.1886 15.7262 53.1886 19.7329 53.1886C18.7313 52.8881 18.2304 52.2871 17.8297 51.586ZM7.81305 33.7563C13.1219 33.7563 18.4307 33.7563 23.8398 33.7563C23.8398 34.9583 23.8398 36.0601 23.8398 37.2621C18.5309 37.2621 13.2221 37.2621 7.81305 37.2621C7.81305 36.1603 7.81305 34.9583 7.81305 33.7563Z" fill="white"/>
</svg>
