<svg width="60" height="67" viewBox="0 0 60 67" fill="none" xmlns="http://www.w3.org/2000/svg">
<path d="M45.2246 29.5285C46.822 34.5285 48.4193 39.6285 50.0166 44.7285C52.1131 51.4285 54.2097 58.0285 56.3062 64.7285C56.7055 66.0285 56.3062 66.6285 54.9085 66.6285C53.7105 66.6285 52.5125 66.6285 51.4143 66.6285C50.3161 66.6285 50.1165 66.4285 49.7171 65.4285C47.1215 57.1285 44.5258 48.9285 41.9301 40.6285C41.8303 40.4285 41.8303 40.2285 41.7305 40.0285C36.0399 40.0285 30.3494 40.0285 24.6589 40.0285C24.3594 41.0285 24.0599 41.9285 23.7604 42.9285C22.9617 45.4285 22.1631 47.9285 21.3644 50.4285C21.2646 50.8285 21.2646 51.0285 21.5641 51.3285C24.1597 53.9285 24.9584 57.0285 23.8602 60.5285C22.7621 63.9285 20.1664 65.9285 16.6722 66.5285C11.6805 67.3285 6.78869 63.2285 6.58902 58.2285C6.38935 53.3285 9.68386 49.4285 14.5757 48.8285C14.7754 48.8285 15.0749 48.6285 15.1747 48.4285C17.1714 42.1285 19.1681 35.8285 21.1647 29.4285C20.5657 29.1285 19.8669 28.7285 19.2679 28.4285C13.9767 25.2285 10.183 20.8285 8.08652 15.0285C7.88685 14.5285 7.68719 14.3285 7.18802 14.4285C6.28952 14.5285 5.29118 14.4285 4.39268 14.4285C1.89684 14.4285 0 12.4285 0 10.0285C0 7.52853 1.89684 5.62853 4.49251 5.62853C4.69218 5.62853 4.79201 5.62853 4.99168 5.62853C6.08985 5.72853 6.98835 5.52853 7.88686 4.62853C8.78536 3.72853 10.183 3.22853 11.381 2.72853C14.376 1.62853 17.5707 1.12853 20.7654 0.728528C27.0549 -0.0714716 33.4443 -0.171472 39.8336 0.228528C44.9251 0.528528 50.0166 1.02853 54.9085 2.62853C56.1065 3.02853 57.3045 3.52853 58.3028 4.22853C59.5008 4.92853 60 5.92853 60 7.32853C59.7005 15.2285 56.3062 21.6285 50.2163 26.5285C48.619 27.5285 46.9218 28.4285 45.2246 29.5285ZM9.08486 9.92852C10.0832 19.3285 19.1681 29.9285 33.1448 29.9285C47.2213 29.9285 56.2063 19.2285 57.3045 9.82853C56.406 10.1285 55.6073 10.5285 54.7088 10.8285C49.7171 12.4285 44.426 12.9285 39.2346 13.2285C34.5424 13.5285 29.7504 13.4285 25.0582 13.1285C21.2646 12.8285 17.5707 12.4285 13.8769 11.5285C12.1797 10.9285 10.6822 10.3285 9.08486 9.92852ZM25.3577 37.6285C30.5491 37.6285 35.7404 37.6285 40.9318 37.6285C40.3328 35.5285 39.6339 33.5285 39.0349 31.5285C35.0416 32.3285 31.1481 32.3285 27.2546 31.5285C26.6556 33.5285 26.0566 35.4285 25.4576 37.3285C25.3577 37.4285 25.4576 37.5285 25.3577 37.6285ZM8.78536 57.7285C8.78536 61.4285 11.7804 64.4285 15.4742 64.3285C19.0682 64.3285 22.0632 61.3285 22.0632 57.7285C22.0632 54.0285 18.9684 51.0285 15.3744 51.0285C11.7804 51.0285 8.78536 54.1285 8.78536 57.7285ZM43.0283 36.6285C43.1281 36.8285 43.1281 37.0285 43.228 37.2285C45.2246 43.5285 47.1215 49.7285 49.1181 56.0285C49.6173 57.7285 49.6173 57.7285 51.5141 57.7285C51.614 57.7285 51.614 57.7285 51.7138 57.6285C51.614 57.4285 51.614 57.2285 51.5141 57.0285C49.5175 50.7285 47.6206 44.5285 45.624 38.2285C45.1248 36.5285 45.1248 36.5285 43.3278 36.6285C43.3278 36.6285 43.228 36.6285 43.0283 36.6285ZM23.2612 36.6285C22.6622 36.6285 22.2629 36.6285 21.8636 36.6285C21.3644 36.5285 21.1647 36.8285 20.9651 37.2285C20.2662 39.7285 19.4676 42.1285 18.6689 44.6285C18.1697 46.0285 17.7704 47.5285 17.2712 49.0285C17.97 49.2285 18.569 49.4285 19.1681 49.6285C20.5657 45.2285 21.9634 40.9285 23.2612 36.6285ZM6.48918 7.72853C5.69052 7.72853 4.99168 7.72853 4.29285 7.72853C3.09484 7.82853 2.19634 8.72853 2.19634 9.82853C2.19634 10.9285 2.99501 12.0285 4.19301 12.1285C5.19135 12.2285 6.18968 12.1285 7.18802 12.1285C6.88852 10.6285 6.68885 9.22853 6.48918 7.72853ZM50.416 59.9285C50.416 60.0285 50.416 60.0285 50.416 60.1285C50.7155 60.9285 50.9151 61.8285 51.2146 62.6285C51.8136 64.4285 51.8136 64.4285 53.8103 64.3285C53.5108 63.4285 53.2113 62.5285 53.0116 61.6285C52.4126 59.8285 52.4126 59.8285 50.416 59.9285ZM21.9634 34.3285C22.5624 34.3285 23.1614 34.3285 23.6606 34.3285C23.7604 34.3285 24.0599 34.2285 24.0599 34.1285C24.4592 33.1285 24.7587 32.0285 25.0582 30.9285C24.3594 30.7285 23.8602 30.5285 23.1614 30.3285C22.7621 31.6285 22.3627 33.0285 21.9634 34.3285ZM42.3295 34.3285C43.0283 34.3285 43.7271 34.3285 44.426 34.3285C44.0266 32.9285 43.6273 31.6285 43.1281 30.3285C42.5291 30.5285 41.9301 30.7285 41.2313 31.0285C41.6306 32.1285 41.9301 33.2285 42.3295 34.3285ZM32.0466 5.42853C32.0466 4.32853 32.0466 3.22853 32.0466 2.22853C31.2479 2.22853 30.6489 2.22853 29.9501 2.22853C29.9501 3.32853 29.9501 4.32853 29.9501 5.42853C30.5491 5.42853 31.2479 5.42853 32.0466 5.42853ZM36.4393 2.22853C35.6406 2.22853 34.9418 2.22853 34.2429 2.22853C34.2429 3.32853 34.2429 4.42853 34.2429 5.42853C35.0416 5.42853 35.7404 5.42853 36.4393 5.42853C36.4393 4.32853 36.4393 3.32853 36.4393 2.22853ZM36.4393 10.9285C36.4393 9.82852 36.4393 8.72853 36.4393 7.72853C35.6406 7.72853 34.9418 7.72853 34.3428 7.72853C34.3428 8.82853 34.3428 9.92852 34.3428 10.9285C35.0416 10.9285 35.7404 10.9285 36.4393 10.9285ZM29.8502 10.9285C30.5491 10.9285 31.2479 10.9285 32.0466 10.9285C32.0466 9.82852 32.0466 8.82853 32.0466 7.72853C31.3478 7.72853 30.6489 7.72853 29.8502 7.72853C29.8502 8.82853 29.8502 9.82852 29.8502 10.9285ZM25.4576 2.42853C25.4576 3.42853 25.4576 4.42853 25.4576 5.42853C26.1564 5.42853 26.8552 5.42853 27.5541 5.42853C27.5541 4.32853 27.5541 3.32853 27.5541 2.22853C26.8552 2.32853 26.1564 2.42853 25.4576 2.42853ZM40.8319 5.42853C40.8319 4.32853 40.8319 3.42853 40.8319 2.42853C40.1331 2.32853 39.4343 2.32853 38.7354 2.32853C38.7354 3.42853 38.7354 4.42853 38.7354 5.52853C39.4343 5.42853 40.1331 5.42853 40.8319 5.42853ZM40.9318 7.72853C40.1331 7.72853 39.4343 7.72853 38.7354 7.72853C38.7354 8.82853 38.7354 9.82853 38.7354 10.8285C39.4343 10.7285 40.1331 10.7285 40.9318 10.6285C40.9318 9.72853 40.9318 8.72853 40.9318 7.72853ZM27.5541 10.9285C27.5541 9.82852 27.5541 8.82853 27.5541 7.72853C26.8552 7.72853 26.1564 7.72853 25.4576 7.72853C25.4576 8.72853 25.4576 9.72853 25.4576 10.7285C26.1564 10.8285 26.8552 10.8285 27.5541 10.9285ZM23.1614 2.62853C22.4626 2.72853 21.7637 2.82853 20.9651 2.82853C20.9651 3.72853 20.9651 4.52853 20.9651 5.42853C21.6639 5.42853 22.3627 5.42853 23.1614 5.42853C23.1614 4.52853 23.1614 3.62853 23.1614 2.62853ZM43.228 7.72853C43.228 8.72853 43.228 9.62853 43.228 10.5285C43.9268 10.4285 44.6256 10.3285 45.4243 10.3285C45.4243 9.42853 45.4243 8.62853 45.4243 7.72853C44.6256 7.72853 43.9268 7.72853 43.228 7.72853ZM23.1614 7.72853C22.3627 7.72853 21.6639 7.72853 20.9651 7.72853C20.9651 8.62853 20.9651 9.42853 20.9651 10.3285C21.6639 10.4285 22.3627 10.4285 23.1614 10.5285C23.1614 9.62853 23.1614 8.72853 23.1614 7.72853ZM45.3245 5.42853C45.3245 4.52853 45.3245 3.62853 45.3245 2.82853C44.6256 2.72853 43.9268 2.72853 43.228 2.62853C43.228 3.62853 43.228 4.52853 43.228 5.42853C43.9268 5.42853 44.6256 5.42853 45.3245 5.42853ZM16.5724 3.52853C16.5724 4.22853 16.5724 4.82853 16.5724 5.42853C17.371 5.42853 18.0699 5.42853 18.6689 5.42853C18.6689 4.62853 18.6689 3.92853 18.6689 3.12853C17.97 3.22853 17.2712 3.42853 16.5724 3.52853ZM47.6206 10.0285C48.4193 9.92853 49.1181 9.72853 49.817 9.62853C49.817 8.92853 49.817 8.32853 49.817 7.72853C49.1181 7.72853 48.4193 7.72853 47.6206 7.72853C47.6206 8.52853 47.6206 9.22853 47.6206 10.0285ZM18.7687 7.72853C17.97 7.72853 17.2712 7.72853 16.5724 7.72853C16.5724 8.42853 16.5724 9.02853 16.5724 9.62853C17.2712 9.72853 17.97 9.82853 18.7687 10.0285C18.7687 9.22853 18.7687 8.52853 18.7687 7.72853ZM49.817 3.52853C49.1181 3.42853 48.4193 3.32853 47.7205 3.12853C47.7205 3.92853 47.7205 4.72853 47.7205 5.42853C48.4193 5.42853 49.1181 5.42853 49.817 5.42853C49.817 4.82853 49.817 4.22853 49.817 3.52853ZM56.0067 7.92853C56.0067 7.82853 56.0067 7.82853 55.9068 7.72853C54.609 7.72853 53.3111 7.72853 52.0133 7.72853C52.0133 8.22853 52.0133 8.62853 52.0133 9.22853C53.411 8.72853 54.7088 8.32853 56.0067 7.92853ZM10.3827 7.72853C10.3827 7.82853 10.3827 7.82853 10.2829 7.92853C11.5807 8.32853 12.8785 8.82853 14.1764 9.22853C14.1764 8.62853 14.1764 8.22853 14.1764 7.72853C12.9784 7.72853 11.6805 7.72853 10.3827 7.72853ZM55.9068 5.42853C55.9068 5.32853 55.9068 5.32853 56.0067 5.22853C54.7088 4.82853 53.411 4.32853 52.1131 3.92853C52.1131 4.52853 52.1131 4.92853 52.1131 5.42853C53.411 5.42853 54.609 5.42853 55.9068 5.42853ZM10.3827 5.22853C10.3827 5.32853 10.3827 5.32853 10.4825 5.42853C11.7804 5.42853 13.0782 5.42853 14.376 5.42853C14.376 4.92853 14.376 4.52853 14.376 3.92853C12.9784 4.42853 11.6805 4.82853 10.3827 5.22853Z" fill="white"/>
<path d="M32.3458 27.7285C24.1594 27.1285 17.6703 23.6285 13.4773 16.3285C12.9781 15.5285 13.1777 14.8285 13.7768 14.5285C14.3758 14.2285 14.9748 14.4285 15.3741 15.2285C18.7684 21.1285 23.8599 24.4285 30.5488 25.3285C31.3475 25.4285 32.246 25.4285 33.0446 25.5285C33.8433 25.5285 34.2426 26.0285 34.2426 26.6285C34.2426 27.2285 33.7435 27.7285 33.0446 27.7285C32.845 27.7285 32.5455 27.7285 32.3458 27.7285Z" fill="white"/>
<path d="M10.9814 57.6285C10.9814 55.1285 12.9781 53.2285 15.474 53.2285C17.9698 53.2285 19.8666 55.2285 19.8666 57.7285C19.8666 60.2285 17.87 62.1285 15.3741 62.1285C12.9781 62.1285 10.9814 60.1285 10.9814 57.6285ZM17.6703 57.7285C17.6703 56.5285 16.672 55.5285 15.474 55.5285C14.276 55.5285 13.2776 56.5285 13.2776 57.7285C13.2776 58.9285 14.276 59.9285 15.474 59.9285C16.5721 59.9285 17.6703 58.8285 17.6703 57.7285Z" fill="white"/>
</svg>
