<svg width="60" height="60" viewBox="0 0 60 60" fill="none" xmlns="http://www.w3.org/2000/svg">
<path d="M46.9318 25.443C44.1267 25.443 41.4218 25.443 38.6167 25.443C38.5165 26.7454 38.4163 28.1479 38.3161 29.4503C38.2159 30.1516 37.8152 30.6525 37.114 30.5523C36.5129 30.4521 36.2123 30.0514 36.2123 29.3501C36.3125 28.0477 36.4127 26.8456 36.5129 25.5432C32.8061 25.5432 29.0994 25.5432 25.3926 25.5432C25.3926 26.3447 25.3926 27.1461 25.3926 27.9476C25.3926 28.4485 25.3926 28.9494 25.3926 29.5505C25.3926 30.2518 24.9919 30.6525 24.3908 30.6525C23.7897 30.6525 23.389 30.2518 23.389 29.4503C23.389 28.1479 23.389 26.8456 23.389 25.5432C19.6823 25.5432 16.0757 25.5432 12.369 25.5432C12.369 28.9494 12.9701 32.2554 13.9719 35.5614C14.9737 35.1607 15.8753 34.8601 16.777 34.4594C17.2779 34.259 17.7788 34.1589 18.3799 33.9585C19.0812 33.7581 19.5821 34.0587 19.7824 34.5596C19.9828 35.1607 19.6823 35.6616 18.981 35.862C17.6786 36.2627 16.4765 36.7636 15.1741 37.2645C15.0739 37.2645 14.9737 37.3647 14.7733 37.4649C15.4746 39.3683 16.4765 41.1716 17.6786 42.7745C18.1795 43.3756 18.7806 43.9767 19.2815 44.5778C19.8826 45.1789 19.8826 45.5796 19.3817 46.2809C19.7824 46.7818 19.8826 47.1825 19.4819 47.7836C19.0812 48.2845 18.5803 48.1843 18.0794 47.984C8.46188 45.0787 2.45095 38.6671 0.447304 28.8492C-1.95707 16.5268 5.5566 4.50496 17.5784 0.998582C30.5019 -2.80834 44.1267 4.60514 47.8334 17.5286C49.0356 21.5359 49.1358 25.5432 48.3343 29.5505C48.2342 30.0514 48.0338 30.4521 47.5329 30.5523C47.2323 30.5523 46.7314 30.4521 46.5311 30.1516C46.3307 29.9512 46.3307 29.4503 46.3307 29.0496C46.5311 27.8474 46.7314 26.7454 46.9318 25.443ZM7.86077 9.41388C4.3544 13.4212 2.35077 18.0295 2.05022 23.4394C4.85532 23.4394 7.56022 23.4394 10.2651 23.4394C10.3653 22.137 10.3653 20.9348 10.5657 19.6325C10.9664 17.3283 11.4673 15.1243 11.9682 12.8201C11.9682 12.6197 11.9682 12.3192 11.8681 12.219C10.5657 11.2172 9.26332 10.3155 7.86077 9.41388ZM7.86077 39.4685C9.16314 38.5669 10.3653 37.6652 11.5675 36.7636C11.9683 36.463 11.9682 36.2627 11.8681 35.862C11.0666 33.4576 10.6659 30.953 10.4655 28.4485C10.3653 27.4467 10.2651 26.4448 10.2651 25.443C7.56022 25.443 4.85532 25.443 2.05022 25.443C2.45095 30.8528 4.3544 35.5614 7.86077 39.4685ZM41.0211 9.3137C39.7187 10.2153 38.6167 11.117 37.4145 11.9184C37.0138 12.219 36.9136 12.4193 37.0138 12.9203C37.5147 15.2244 38.0156 17.4284 38.4163 19.7326C38.6167 20.9348 38.6167 22.0368 38.7169 23.239C41.4218 23.239 44.1267 23.239 46.9318 23.239C46.5311 17.9294 44.5274 13.321 41.0211 9.3137ZM34.9099 13.321C31.9045 14.7235 28.6987 15.525 25.4928 15.6252C25.4928 18.2299 25.4928 20.7345 25.4928 23.3392C29.1996 23.3392 32.9063 23.3392 36.5129 23.3392C36.4127 19.933 36.0119 16.627 34.9099 13.321ZM13.9719 13.321C12.9701 16.627 12.4691 19.933 12.369 23.3392C16.0757 23.3392 19.6823 23.3392 23.389 23.3392C23.389 20.7345 23.389 18.2299 23.389 15.6252C20.083 15.525 16.9773 14.7235 13.9719 13.321ZM25.4928 2.10059C25.4928 6.00769 25.4928 9.81461 25.4928 13.6215C28.5985 13.4212 31.5037 12.7199 34.3088 11.4175C33.0065 8.31187 31.4036 5.40659 28.5985 3.40295C27.6968 2.70168 26.695 2.30095 25.4928 2.10059ZM23.389 13.6215C23.389 9.71442 23.389 5.90751 23.389 2.10059C19.7824 2.50131 16.0757 7.00951 14.6732 11.3173C17.4783 12.7199 20.2834 13.4212 23.389 13.6215ZM9.3635 40.9712C11.7679 43.0751 14.2724 44.678 17.2779 45.5796C15.3744 43.4758 13.9719 41.0714 12.8699 38.3665C11.6677 39.2681 10.4655 40.0696 9.3635 40.9712ZM31.7041 3.30277C33.6076 5.40659 35.0101 7.81096 36.1121 10.5159C37.3143 9.61424 38.4163 8.81279 39.5183 7.91115C37.2141 5.80732 34.6094 4.20441 31.7041 3.30277ZM12.8699 10.5159C13.9719 7.81096 15.3744 5.40659 17.3781 3.30277C15.2742 3.7035 11.1668 6.10787 9.46369 7.91115C10.5657 8.81279 11.6677 9.61424 12.8699 10.5159Z" fill="white"/>
<path d="M33.9076 55.8984C33.1062 57.902 31.8038 59.1042 30.0005 59.1042C27.8967 59.2044 26.5943 58.2026 25.4923 55.8984C24.5907 55.8984 23.5889 55.8984 22.6872 55.8984C21.4851 55.8984 20.6836 55.0969 20.6836 53.9949C20.6836 47.0824 20.6836 40.1698 20.6836 33.2572C20.6836 32.0551 21.4851 31.3538 22.6872 31.2536C24.2901 31.2536 25.8931 31.2536 27.496 31.2536C33.2063 31.2536 38.8165 31.2536 44.5269 31.2536C46.23 31.2536 46.8311 31.9549 46.8311 33.5578C46.8311 34.4594 46.8311 35.3611 46.8311 36.3629C47.1316 36.3629 47.332 36.3629 47.5324 36.3629C49.1353 36.3629 50.7382 36.3629 52.241 36.3629C53.5433 36.3629 54.5451 36.8638 55.1462 37.9658C56.5488 40.27 58.0515 42.5742 59.3539 44.8784C59.6544 45.4795 59.955 46.2809 59.955 46.882C60.0551 48.8857 59.955 50.8893 59.955 52.8929C59.955 54.4958 58.7528 55.698 57.1499 55.698C57.0497 55.698 56.8493 55.698 56.7491 55.698C56.1481 55.5979 55.8475 55.7982 55.6471 56.3993C55.046 58.0022 53.4431 59.004 51.5397 59.004C49.9368 59.004 48.3339 57.902 47.7328 56.2991C47.6326 55.9986 47.5324 55.698 47.0315 55.698C42.6235 55.698 38.2154 55.698 33.8074 55.698C34.0078 55.7982 34.0078 55.8984 33.9076 55.8984ZM44.8275 33.2572C37.414 33.2572 30.1007 33.2572 22.6872 33.2572C22.6872 40.0696 22.6872 46.882 22.6872 53.7946C23.5889 53.7946 24.5907 53.7946 25.4923 53.7946C26.1936 51.7909 27.5961 50.4886 29.8001 50.5887C31.904 50.5887 33.2063 51.8911 33.9076 53.7946C37.5142 53.7946 41.2209 53.7946 44.8275 53.7946C44.8275 46.9822 44.8275 40.1698 44.8275 33.2572ZM58.1517 47.0824C57.8511 47.0824 57.6508 47.0824 57.4504 47.0824C55.2464 47.0824 52.9422 47.0824 50.7382 47.0824C49.3357 47.0824 48.6344 46.3811 48.6344 44.9785C48.6344 43.576 48.6344 42.1734 48.6344 40.7709C48.6344 39.4685 49.1353 38.9676 50.4377 38.9676C51.4395 38.9676 52.5415 38.9676 53.5433 38.9676C53.5433 38.8674 53.5433 38.7673 53.6435 38.7673C53.3429 38.6671 53.0424 38.4667 52.7419 38.4667C51.3393 38.4667 50.0369 38.4667 48.6344 38.4667C48.1335 38.4667 47.6326 38.4667 47.1317 38.4667C47.1317 43.6762 47.1317 48.7855 47.1317 53.7946C47.7328 53.9949 48.0333 53.7946 48.2337 53.1935C48.3339 52.7928 48.6344 52.392 48.9349 51.9913C51.0387 49.4867 54.9459 50.188 56.148 53.2937C56.3484 53.6944 56.4486 53.8948 56.9495 53.7946C57.1499 53.7946 57.3502 53.7946 57.5506 53.7946C58.1517 53.7946 58.4522 53.494 58.4522 52.8929C58.4522 52.1917 58.4522 51.4904 58.4522 50.7891C58.1517 49.5869 58.1517 48.3847 58.1517 47.0824ZM50.5378 45.0787C52.7419 45.0787 54.9459 45.0787 57.1499 45.0787C56.3484 43.7764 55.547 42.474 54.7455 41.1716C54.6453 41.0714 54.5451 40.9713 54.4449 40.9713C53.1426 40.9713 51.8402 40.9713 50.4377 40.9713C50.5378 42.3738 50.5378 43.6762 50.5378 45.0787ZM31.904 54.8966C31.904 53.5942 30.9022 52.5924 29.7 52.5924C28.4978 52.5924 27.3958 53.5942 27.3958 54.8966C27.3958 56.0988 28.3976 57.1006 29.5998 57.1006C30.9022 57.1006 31.904 56.0988 31.904 54.8966ZM49.6362 54.7964C49.6362 56.0988 50.638 57.1006 51.8402 57.1006C53.0424 57.1006 54.0442 56.0988 54.0442 54.8966C54.0442 53.6944 53.0424 52.5924 51.8402 52.5924C50.638 52.5924 49.7364 53.5942 49.6362 54.7964Z" fill="white"/>
</svg>
