<svg width="61" height="80" viewBox="0 0 61 80" fill="none" xmlns="http://www.w3.org/2000/svg">
<path d="M27.3497 58.9C26.8497 58.5 26.3497 58.1 25.8497 57.8C25.5497 57.6 25.2497 57.3001 24.9497 57.1001C24.7497 57.0001 24.6497 57 24.6497 57C24.5497 57 24.5497 57 24.4497 57C23.4497 57.3 22.3497 57.6 21.4497 57.8C21.0497 57.9 20.6497 58 20.2497 58C18.7497 58 17.4497 57.2 16.6497 55.9C16.3497 55.3 15.9497 54.8 15.7497 54.3C13.8497 60.9 11.9497 67.5001 9.9497 74.1001C9.7497 74.8001 9.74969 75.4 10.3497 75.8C10.9497 76.2 11.5497 76.0001 12.0497 75.6001C13.8497 74.3001 15.6497 73.1 17.4497 71.8C17.6497 71.7 17.8497 71.5 18.1497 71.4C18.3497 71.7 18.4497 72 18.5497 72.2C19.3497 74.2 20.2497 76.2 21.0497 78.2C21.3497 78.9 21.6497 79.4 22.4497 79.4C23.2497 79.4 23.5497 78.8001 23.7497 78.1001C25.1497 73.4001 26.5497 68.6 27.8497 63.9C28.2497 62.6 28.6497 61.3 28.9497 60C28.4497 59.6 27.8497 59.3 27.3497 58.9Z" fill="white"/>
<path d="M44.6496 54.2C44.4496 54.7 44.1496 55.1 43.8496 55.6C43.5496 56.2 42.4496 57.9 40.1496 57.9C39.7496 57.9 39.2496 57.8 38.7496 57.7C38.0496 57.5 37.3496 57.3 36.6496 57.1C36.3496 57 36.0496 56.9 35.7496 56.8C35.6496 56.8 35.5496 56.8 35.5496 56.8C35.5496 56.8 35.4496 56.8 35.3496 56.9C35.0496 57.1 34.7496 57.4 34.4496 57.7C33.9496 58.1 33.5496 58.4 33.0496 58.8C32.4496 59.2 31.9496 59.5 31.3496 59.7C33.1496 65.7 34.8496 71.8 36.6496 77.8C36.8496 78.5 37.1496 79.1 37.9496 79.2C38.7496 79.2 39.0496 78.7 39.3496 78C40.1496 76 40.9496 74 41.8496 72C41.9496 71.8 42.0496 71.5 42.2496 71.2C42.5496 71.4 42.8496 71.6 43.0496 71.7C44.8496 73 46.6496 74.3 48.4496 75.5C49.3496 76.1 50.4496 75.7 50.5496 74.7C50.5496 74.4 50.4496 74 50.4496 73.7C48.4496 67.4 46.5496 60.8 44.6496 54.2Z" fill="white"/>
<path d="M57.75 34.5C58.25 33.9 58.65 33.3 59.15 32.7C60.45 30.9 60.45 29.1 59.15 27.3C58.75 26.8 58.35 26.1 57.75 25.6C57.15 25 56.95 24.5 57.35 23.5C57.65 22.9 57.75 22.2 57.95 21.7C58.05 21.5 58.05 21.3 58.15 21.1L58.25 20.8V20.4C58.25 18.8 57.45 17.4 55.95 16.5C55.35 16.1 54.65 15.8 54.05 15.4C53.75 15.2 53.45 15.1 53.25 14.9C53.05 14.8 52.95 14.7 52.95 14.3C52.95 14 52.85 13.8 52.85 13.5C52.75 12.9 52.75 12.2 52.65 11.5C52.35 9.3 51.05 7.9 48.85 7.5C48.15 7.4 47.35 7.3 46.35 7.2C45.45 7.2 45.25 6.9 45.05 6.5C44.65 5.6 44.15 4.8 43.65 4C42.55 2.3 41.05 1.89999 40.05 1.89999C39.65 1.89999 39.25 2.00001 38.75 2.10001C37.75 2.30001 36.85 2.59999 35.95 2.89999C35.85 2.89999 35.65 3 35.55 3C35.45 3 35.35 3 35.05 2.8L34.85 2.7C34.25 2.2 33.55 1.60001 32.85 1.10001C32.15 0.600006 31.25 0 30.05 0C28.85 0 27.85 0.600006 27.25 1.10001C26.75 1.40001 26.35 1.80001 25.95 2.10001C25.65 2.40001 25.25 2.59999 24.95 2.89999C24.85 2.99999 24.75 3 24.65 3C24.65 3 24.65 3 24.55 3C23.65 2.7 22.55 2.4 21.55 2.2C21.05 2.1 20.55 2 20.15 2C18.65 2 17.35 2.8 16.45 4.3C16.15 4.8 15.85 5.39999 15.55 5.89999C15.35 6.29999 15.15 6.59999 14.95 6.89999C14.85 7.19999 14.75 7.2 14.55 7.2C13.85 7.3 13.15 7.39999 12.45 7.39999L11.85 7.5C9.35002 7.8 7.85 9.2 7.55 11.7C7.45 12.3 7.35002 12.9 7.35002 13.5C7.35002 14.7 6.95001 15.1 6.25001 15.4C5.65001 15.6 5.05001 16 4.65001 16.2L4.55 16.3C2.35 17.6 1.65001 19.3 2.25001 21.8C2.35001 22.3 2.55001 22.7 2.65001 23.2C2.75001 23.6 2.85002 23.9 2.95002 24.3C3.05002 24.7 2.95002 24.8 2.85002 25C2.65002 25.2 2.55002 25.4 2.35002 25.6C1.95002 26.1 1.45 26.7 1.05 27.3C-0.35 29.2 -0.35 31 1.05 32.9C1.55 33.6 2.05 34.2 2.55 34.8L2.85002 35.2C3.05002 35.4 3.05002 35.5 2.95002 35.9C2.85002 36.2 2.75001 36.6 2.65001 36.9C2.45001 37.4 2.35001 38 2.15001 38.6C1.55001 40.9 2.25002 42.6 4.35002 43.8C4.95002 44.1 5.45 44.4 6.05 44.7C6.35 44.9 6.65002 45 6.95002 45.2C7.15002 45.3 7.25002 45.4 7.35002 45.8L7.45002 46.4C7.55002 47.1 7.65001 47.9 7.75001 48.6C8.05001 50.8 9.35002 52.1 11.45 52.5C12.15 52.6 13.15 52.8 14.05 52.8C14.75 52.8 14.95 53 15.25 53.6C15.65 54.4 16.05 55.2 16.55 56C17.35 57.3 18.65 58.1 20.15 58.1C20.55 58.1 20.95 58 21.35 57.9C22.35 57.6 23.35 57.4 24.35 57.1C24.45 57.1 24.55 57.1 24.55 57.1C24.55 57.1 24.65 57.1 24.85 57.2C25.15 57.4 25.45 57.7 25.75 57.9C26.25 58.3 26.65 58.7 27.25 59C28.15 59.7 29.15 60 30.05 60C31.05 60 31.95 59.7 32.85 59C33.35 58.6 33.85 58.3 34.25 57.9C34.55 57.6 34.85 57.4 35.15 57.1C35.25 57 35.35 57 35.35 57C35.35 57 35.45 57 35.55 57C35.85 57.1 36.15 57.2 36.45 57.3C37.15 57.5 37.75 57.7 38.55 57.9C39.05 58 39.45 58.1 39.95 58.1C42.25 58.1 43.35 56.4 43.65 55.8C43.95 55.3 44.25 54.8 44.45 54.3C44.65 53.9 44.85 53.5 45.05 53.2C45.15 53 45.25 53 45.35 53L46.25 52.9C47.05 52.8 47.75 52.7 48.55 52.6C50.55 52.3 51.95 50.9 52.25 48.9C52.35 48.1 52.45 47.4 52.45 46.8C52.45 45.5 52.95 45.2 53.55 44.9C54.25 44.6 54.85 44.2 55.45 43.9L55.55 43.8C57.55 42.6 58.25 40.9 57.65 38.6C57.55 38 57.35 37.5 57.15 37C57.05 36.6 56.95 36.3 56.85 35.9C56.75 35.5 56.85 35.4 56.95 35.2C57.45 34.9 57.55 34.7 57.75 34.5ZM57.05 31.2C56.45 32 55.85 32.7 55.25 33.5C54.55 34.4 54.35 35.4 54.65 36.5C54.85 37.4 55.15 38.2 55.45 39.1C55.75 40.2 55.55 40.8 54.55 41.4C54.05 41.7 53.55 42 53.05 42.2C51.05 43 50.25 44.5 50.25 46.5C50.25 47.1 50.15 47.7 50.05 48.2C49.95 49 49.45 49.6 48.55 49.7C47.45 49.8 46.35 50 45.35 50.1C44.35 50.2 43.65 50.8 43.15 51.6C42.65 52.5 42.25 53.3 41.75 54.2C41.15 55.2 40.65 55.4 39.55 55.1C38.55 54.9 37.65 54.6 36.65 54.3C35.65 54 34.75 54.2 33.95 54.8C33.15 55.4 32.45 56.1 31.65 56.6C30.75 57.3 30.05 57.3 29.15 56.6C28.35 56 27.65 55.4 26.85 54.8C25.95 54.1 25.05 53.9 23.95 54.2C22.95 54.5 21.95 54.8 20.95 55C20.15 55.2 19.45 54.9 19.05 54.2C18.65 53.5 18.25 52.8 17.85 52C17.15 50.5 15.95 49.8 14.35 49.7C13.55 49.7 12.85 49.6 12.05 49.4C11.05 49.2 10.65 48.8 10.45 47.7C10.35 46.8 10.25 45.9 10.15 45C10.05 43.8 9.45002 42.9 8.45002 42.4C7.65002 41.9 6.75002 41.5 5.95002 41C4.95002 40.4 4.75002 39.8 4.95002 38.7C5.15002 37.8 5.45001 36.9 5.75001 36.1C6.05001 35 5.85001 33.9 5.15001 33C4.55001 32.3 3.95002 31.6 3.45002 30.9C2.75002 29.9 2.75002 29.4 3.45002 28.4C4.05002 27.6 4.65001 26.9 5.25001 26.2C5.95001 25.3 6.15002 24.3 5.85002 23.2C5.65002 22.4 5.35001 21.5 5.15001 20.7C4.75001 19.3 5.05001 18.8 6.25001 18.1C6.65001 17.8 7.15 17.6 7.55 17.4C9.55 16.6 10.35 15.1 10.35 13.1C10.35 12.6 10.45 12.1 10.45 11.7C10.65 10.3 11.15 9.9 12.45 9.8C13.35 9.7 14.25 9.6 15.05 9.5C16.15 9.4 16.85 8.79999 17.45 7.89999C17.95 6.99999 18.35 6.2 18.85 5.3C19.45 4.4 19.95 4.09999 21.05 4.39999C22.05 4.59999 23.05 4.9 23.95 5.2C24.95 5.5 25.85 5.30001 26.65 4.60001C27.45 4.00001 28.15 3.4 28.95 2.8C29.95 2.1 30.45 2.1 31.55 2.8C32.25 3.3 32.95 3.89999 33.55 4.39999C34.55 5.19999 35.65 5.50001 36.85 5.10001C37.75 4.80001 38.55 4.6 39.45 4.3C40.35 4.1 40.95 4.30001 41.45 5.10001C41.85 5.80001 42.25 6.5 42.65 7.3C43.35 8.8 44.65 9.50001 46.25 9.60001C46.95 9.60001 47.65 9.7 48.35 9.8C49.45 10 49.85 10.4 49.95 11.5C50.05 12.4 50.15 13.3 50.25 14.2C50.35 15.3 50.95 16.2 51.95 16.8C52.85 17.3 53.75 17.8 54.65 18.3C55.25 18.6 55.65 19.1 55.65 19.9C55.45 20.6 55.25 21.4 55.05 22.1C54.25 24 54.55 25.7 56.05 27.1C56.45 27.5 56.85 28 57.15 28.5C57.65 29.7 57.65 30.3 57.05 31.2Z" fill="white"/>
<path d="M30.1499 9.99997C41.0499 9.89997 50.0499 18.9 50.1499 29.8C50.2499 40.9 41.3499 49.9 30.2499 49.9C19.3499 49.9 10.2499 41 10.2499 30.1C10.1499 19.1 19.0499 9.99997 30.1499 9.99997ZM22.2499 25.4C21.3499 25.4 20.4498 25.4 19.5498 25.4C18.3498 25.4 17.6499 25.9 17.3499 26.9C17.0499 27.9 17.3499 28.7 18.3499 29.4C19.7499 30.4 21.1498 31.4 22.5498 32.4C23.4498 33.1 23.5499 33.4 23.2499 34.5C22.7499 36.1 22.1499 37.7 21.6499 39.3C21.2499 40.4 21.5499 41.4 22.3499 42C23.1499 42.6 24.0498 42.6 25.0498 41.9C26.4498 40.9 27.8499 39.9 29.2499 38.9C30.1499 38.3 30.4499 38.3 31.2499 38.9C32.6499 39.9 33.9499 40.9 35.3499 41.9C36.4499 42.7 37.3499 42.8 38.2499 42.2C39.1499 41.6 39.3499 40.7 38.9499 39.4C38.4499 37.8 37.9499 36.1 37.3499 34.5C37.0499 33.7 37.2499 33.2 37.9499 32.7C39.3499 31.7 40.7499 30.7 42.1499 29.7C43.2499 28.9 43.5499 28.1 43.2499 27.1C42.9499 26.1 42.1499 25.6 40.8499 25.5C39.2499 25.5 37.5499 25.5 35.9499 25.5C34.6499 25.5 34.4498 25.4 34.0498 24.1C33.5498 22.5 33.0498 21 32.5498 19.4C32.1498 18.2 31.4499 17.6 30.3499 17.6C29.2499 17.6 28.6499 18.2 28.2499 19.3C27.6499 21 27.1498 22.7 26.5498 24.4C26.3498 25 25.9499 25.4 25.2499 25.4C24.1499 25.4 23.1499 25.4 22.2499 25.4Z" fill="white"/>
</svg>
