<svg width="60" height="60" viewBox="0 0 60 60" fill="none" xmlns="http://www.w3.org/2000/svg">
<path d="M0 12.4585C0.199501 12.1595 0.398999 11.8605 0.698251 11.6611C4.38902 7.97342 8.0798 4.28572 11.8703 0.598007C12.6683 -0.199336 13.1671 -0.199336 14.0648 0.598007C19.8504 6.37874 25.5362 12.0598 31.3217 17.8405C31.4214 17.9402 31.5212 18.1395 31.8204 18.5382C32.1197 18.1395 32.2194 17.9402 32.3192 17.8405C36.5087 13.6545 40.6983 9.46844 44.8878 5.28239C47.5811 2.59136 51.5711 2.39202 54.4638 4.78405C57.3566 7.17608 57.8554 11.5615 55.4613 14.5515C55.1621 14.8505 54.8628 15.2492 54.5636 15.5482C50.4738 19.6346 46.2843 23.8206 42.1945 27.907C41.995 28.1063 41.8953 28.206 41.596 28.4053C41.8953 28.6047 42.0948 28.7043 42.1945 28.9037C47.8803 34.5847 53.5661 40.2658 59.2519 45.9469C60.2494 46.9435 60.2494 47.4419 59.2519 48.4385C55.6608 52.1263 51.9701 55.7143 48.3791 59.402C47.5811 60.1993 46.8828 60.1993 46.0848 59.402C40.399 53.6213 34.6135 47.9402 28.9277 42.1595C28.7282 41.9601 28.6284 41.8605 28.4289 41.4618C28.2294 41.7608 28.1297 41.9601 27.9302 42.1595C24.9377 45.1495 21.8454 48.2392 18.8529 51.2293C18.4539 51.6279 17.9551 51.9269 17.4564 52.1263C13.3666 53.6213 9.27681 55.216 5.18703 56.711C5.08728 56.711 5.08728 56.711 4.98753 56.8106C4.48878 57.01 3.99002 57.01 3.59101 56.6113C3.19201 56.2126 3.19201 55.7143 3.39152 55.216C4.48877 52.2259 5.58603 49.2359 6.68329 46.2459C6.88279 45.5482 7.18204 44.9502 7.38154 44.2525C7.78054 42.6578 8.6783 41.4618 9.87531 40.3655C12.6683 37.6744 15.2618 34.9834 17.9551 32.2924C18.1546 32.1927 18.2544 32.093 18.4539 31.9934C16.0599 29.6013 13.7656 27.2093 11.4713 24.9169C7.8803 21.3289 4.28927 17.8405 0.698251 14.2525C0.49875 14.0532 0.299252 13.7542 0 13.4551C0 12.9568 0 12.7575 0 12.4585ZM39.9003 13.7542C30.3242 23.3223 20.6484 32.99 11.0723 42.5581C13.1671 44.6512 15.3616 46.8439 17.4564 48.9369C27.0324 39.3688 36.7082 29.701 46.2843 20.1329C44.0898 18.0399 41.995 15.8472 39.9003 13.7542ZM29.9252 20.0332C29.1272 19.2359 28.2294 18.3389 27.2319 17.3422C26.8329 17.7409 26.4339 18.2392 25.9352 18.6379C24.7382 19.8339 23.5411 21.0299 22.3441 22.2259C21.9451 22.6246 21.5461 22.7243 21.0474 22.5249C20.7481 22.3256 20.3491 21.9269 20.2494 21.6279C20.2494 21.2292 20.4489 20.7309 20.7481 20.4319C22.3441 18.8372 23.9401 17.2425 25.5362 15.6478C24.4389 14.5515 23.3417 13.4552 22.2444 12.3588C22.1446 12.4585 22.0449 12.5581 21.9451 12.6578C21.0474 13.5548 20.0499 14.5515 19.1521 15.4485C18.4539 16.0465 17.8554 16.1462 17.3566 15.5482C16.8579 15.0498 16.9576 14.3522 17.5561 13.7542C17.8554 13.4552 18.2544 13.0565 18.5536 12.7575C19.2519 12.0598 20.0499 11.2625 20.6484 10.6644C19.4514 9.46843 18.2544 8.27242 17.1571 7.17607C15.6608 8.67109 14.0648 10.2658 12.5686 11.7608C12.3691 11.9601 12.2693 12.0598 12.0698 12.2591C11.6708 12.5581 10.9726 12.5581 10.5736 12.1595C10.1746 11.7608 10.0748 11.1628 10.3741 10.6644C10.4738 10.4651 10.6733 10.3654 10.7731 10.1661C12.3691 8.57142 13.8653 7.07641 15.3616 5.5814C14.4638 4.68439 13.6658 3.88704 12.7681 2.99003C9.57606 6.27907 6.28429 9.56811 3.29177 12.7575C8.87781 18.4385 14.4638 24.2193 20.0499 29.9003C23.3416 26.5116 26.6334 23.2226 29.9252 20.0332ZM30.1247 39.9668C35.8105 45.5482 41.596 51.2293 47.1821 56.711C50.3741 53.5216 53.7656 50.3322 57.0574 47.1429C56.2594 46.3455 55.4613 45.5482 54.7631 44.8505C54.6633 44.9502 54.4638 45.1495 54.2643 45.3488C52.8678 46.7442 51.3716 48.2392 49.9751 49.6346C49.2768 50.3322 48.379 50.2326 47.98 49.4352C47.7805 48.9369 47.8803 48.4385 48.3791 47.9402C49.8753 46.4452 51.2718 45.0498 52.7681 43.5548C52.8678 43.4551 53.0673 43.2558 53.0673 43.1562C51.8703 41.9601 50.7731 40.7641 49.4763 39.5681C49.3766 39.6678 49.2768 39.8671 49.0773 40.0664C48.1796 40.9635 47.182 41.9601 46.2843 42.8571C45.985 43.1561 45.4863 43.3555 45.0873 43.1562C44.788 42.9568 44.389 42.5582 44.2893 42.2591C44.2893 41.8605 44.4888 41.3621 44.788 41.0631C45.7855 39.9668 46.8828 38.9701 47.8803 37.9734C46.6833 36.7774 45.4863 35.5814 44.2893 34.3854C44.1895 34.4851 44.0898 34.6844 43.8903 34.7841C42.394 36.2791 40.8977 37.7741 39.5012 39.1694C38.803 39.7674 38.005 39.6678 37.606 38.9701C37.3067 38.4718 37.4065 37.9734 37.9052 37.4751C39.4015 35.9801 40.8978 34.485 42.2943 33.0897C42.394 32.99 42.5935 32.7907 42.6933 32.691C41.7955 31.794 40.8977 30.897 40 30.0997C36.7082 33.3887 33.4165 36.5781 30.1247 39.9668ZM45.6858 7.77409C47.8803 9.96678 50.0748 12.1595 52.2693 14.3522C53.8653 13.0565 54.9626 11.3621 54.3641 9.06977C53.9651 7.27575 52.7681 6.07973 50.9726 5.68106C48.778 5.08305 47.0823 6.07973 45.6858 7.77409ZM50.4738 16.0465C48.2793 13.8538 46.0848 11.6611 44.0898 9.66777C43.2918 10.4651 42.4938 11.2625 41.7955 11.9601C43.8903 14.0532 46.0848 16.2458 48.1796 18.4385C48.8778 17.6412 49.6758 16.8439 50.4738 16.0465ZM9.67581 44.7508C9.17706 46.2459 8.57855 47.6412 8.07979 49.1362C7.98004 49.3356 8.0798 49.6346 8.17955 49.7342C8.6783 50.3322 9.27681 50.8306 9.77556 51.4286C10.2743 52.0266 10.7731 52.1263 11.4713 51.8272C12.6683 51.3289 13.9651 50.8306 15.2618 50.4319C13.3666 48.4385 11.5711 46.6445 9.67581 44.7508ZM6.98254 51.9269C6.78304 52.5249 6.58354 53.0233 6.38403 53.6213C6.98254 53.4219 7.58104 53.2226 8.07979 53.0233C7.68079 52.6246 7.38155 52.3256 6.98254 51.9269Z" fill="white"/>
<path d="M37.008 24.3189C36.9083 24.4186 36.8085 24.8173 36.609 25.0166C32.9183 28.7043 29.2275 32.392 25.5367 36.0797C24.9382 36.5781 24.3397 36.6777 23.841 36.1794C23.3422 35.6811 23.3422 34.9834 23.9407 34.3854C27.6315 30.6977 31.3223 27.01 35.013 23.3223C35.412 22.9236 35.9108 22.8239 36.4095 23.0233C36.8085 23.3223 37.008 23.6213 37.008 24.3189Z" fill="white"/>
<path d="M22.5434 38.6711C22.5434 39.3688 22.0447 39.8671 21.3464 39.8671C20.6482 39.8671 20.1494 39.2691 20.1494 38.6711C20.1494 38.0731 20.6482 37.5748 21.3464 37.5748C22.0447 37.4751 22.5434 37.9734 22.5434 38.6711Z" fill="white"/>
</svg>
