<svg width="60" height="53" viewBox="0 0 60 53" fill="none" xmlns="http://www.w3.org/2000/svg">
<path d="M40.6575 48.1879C28.2564 56.2887 12.8549 52.2883 5.15419 41.9874C-2.2465 32.0864 -1.64644 17.8851 6.75434 8.58422C15.3551 -1.01668 31.1566 -3.4169 42.6577 5.78396C42.7577 5.48393 42.7577 5.1839 42.8577 4.88388C43.6578 1.8836 46.4581 -0.116591 49.7584 0.0834274C52.6586 0.183437 55.2589 2.58366 55.7589 5.48393C55.8589 5.98398 55.8589 6.48403 55.8589 6.98407C55.8589 15.5849 55.8589 24.1857 55.8589 32.7865C55.8589 33.1865 55.9589 33.4866 56.259 33.7866C59.4593 36.7869 60.7594 40.4872 59.5593 44.6876C58.4592 48.888 55.5589 51.5882 51.2585 52.3883C47.1581 53.1884 43.7578 51.7883 40.9575 48.688C40.8575 48.488 40.7575 48.2879 40.6575 48.1879ZM39.6574 46.4878C39.6574 46.3878 39.5574 46.2878 39.5574 46.1877C37.5572 41.5873 38.6573 36.8869 42.4577 33.4866C42.6577 33.2865 42.7577 32.9865 42.7577 32.7865C42.7577 29.7862 42.7577 26.6859 42.7577 23.6856C42.7577 22.3855 42.7577 22.3855 41.4576 21.8855C41.1576 21.7855 40.8575 21.7855 40.6575 22.0855C40.0575 22.6855 39.5574 23.2856 38.9574 23.7856C38.5573 24.1857 38.6573 24.3857 39.0574 24.6857C39.5574 25.0858 39.9575 25.4858 40.4575 25.8858C41.4576 26.7859 41.5576 27.986 40.7575 29.0861C40.1575 29.8862 39.5574 30.5863 38.9574 31.2863C38.0573 32.2864 37.5572 33.3865 37.5572 34.7867C37.5572 35.9868 37.0572 37.1869 36.1571 37.987C34.957 39.0871 33.7569 40.1872 32.3567 41.1873C30.9566 42.1874 28.9564 41.4873 28.4564 39.7871C28.3564 39.3871 28.3564 38.9871 28.2564 38.687C28.0563 37.5869 28.0563 36.2868 26.8562 35.4867C25.3561 34.4866 25.3561 33.3865 26.2562 31.8864C26.3562 31.6864 26.3562 31.3864 26.2562 31.1863C26.2562 30.9863 26.0562 30.8863 25.9561 30.6863C25.7561 30.2863 25.4561 30.1862 25.0561 30.3863C24.256 30.6863 23.5559 30.9863 22.7558 31.1863C21.0557 31.7864 19.2555 31.2863 18.2554 29.7862C17.6554 28.9861 17.1553 28.2861 16.6553 27.486C15.7552 26.0859 15.4552 24.4857 15.8552 22.7856C16.1552 21.3854 17.0553 20.1853 17.9554 19.0852C19.2555 17.385 20.9557 16.685 23.0559 16.985C23.7559 17.085 24.556 17.285 25.2561 17.385C26.3562 17.5851 27.5563 17.7851 28.6564 17.8851C29.3565 17.8851 30.0565 17.7851 30.7566 17.6851C30.9566 17.6851 31.1566 17.5851 31.2566 17.4851C31.1566 17.285 31.0566 17.085 30.9566 16.985C29.4565 15.6849 28.0563 14.4848 26.5562 13.1847C25.9561 12.6846 25.6561 11.9845 25.6561 11.1845C25.6561 10.5844 25.6561 10.0844 25.6561 9.48431C25.6561 8.28419 26.4562 7.38411 27.6563 7.2841C28.7564 7.18409 29.7565 7.08408 30.8566 6.98407C31.2566 6.98407 31.3566 6.78405 31.3566 6.38402C31.3566 5.0839 31.3566 3.88378 31.3566 2.58366C31.3566 2.28363 31.2566 2.18362 30.9566 2.08361C27.9563 1.48356 25.0561 1.48356 22.0558 1.98361C14.7551 3.38374 9.15457 7.2841 5.2542 13.5847C4.25411 15.2849 3.45403 16.985 2.95399 18.8852C3.054 18.9852 3.15401 18.9852 3.25402 18.9852C5.55423 19.5853 7.95446 21.6854 7.75444 24.8857C7.55442 27.086 8.35449 28.7861 10.2547 29.9862C11.9548 31.0863 12.6549 32.7865 12.6549 34.7867C12.6549 36.5868 12.6549 38.387 12.6549 40.1872C12.6549 40.7872 12.6549 41.2873 12.5549 41.8873C12.4549 43.0875 11.9548 44.0875 11.1548 44.8876C19.2555 51.8883 31.1566 52.2883 39.6574 46.4878ZM33.2568 2.9837C33.2568 3.08371 33.2568 3.08371 33.2568 3.08371C33.2568 4.28382 33.2568 5.48393 33.2568 6.68404C33.2568 7.98417 32.4567 8.88425 31.1566 8.98426C30.0565 9.08427 29.0564 9.18428 27.9563 9.28429C27.7563 9.28429 27.4563 9.48431 27.4563 9.58432C27.4563 10.2844 27.3563 10.8844 27.4563 11.5845C27.5563 11.8845 27.9563 12.1846 28.2564 12.3846C29.5565 13.5847 30.9566 14.6848 32.3567 15.8849C33.0568 16.485 33.2568 17.285 32.9568 18.1851C32.7568 18.9852 31.9567 19.5853 31.0566 19.6853C30.8566 19.6853 30.6566 19.6853 30.5566 19.7853C29.2564 19.7853 27.8563 20.1853 26.5562 19.7853C25.3561 19.4852 24.256 19.2852 23.0559 18.9852C21.6557 18.6852 20.3556 19.0852 19.4555 20.2853C18.9555 20.8854 18.5554 21.4854 18.1554 22.1855C17.3553 23.5856 17.3553 24.9858 18.0554 26.2859C18.5554 27.186 19.1555 27.986 19.7556 28.7861C20.3556 29.4862 21.0557 29.6862 21.9558 29.4862C22.4558 29.2862 23.0559 29.0861 23.5559 28.8861C24.056 28.6861 24.656 28.4861 25.1561 28.3861C26.5562 28.1861 28.1563 29.8862 28.1563 31.4864C28.1563 31.8864 28.0563 32.1864 27.9563 32.5865C27.8563 32.9865 27.4563 33.3865 27.4563 33.6866C27.5563 33.9866 28.0563 34.2866 28.3564 34.5867L28.4564 34.6867C29.0564 35.0867 29.4565 35.6868 29.5565 36.4868C29.6565 37.2869 29.8565 38.187 29.9565 38.9871C30.1565 39.8872 30.6566 40.0872 31.3566 39.4871C32.2567 38.687 33.1568 37.987 34.0569 37.1869C34.957 36.4868 35.357 35.4867 35.457 34.3866C35.457 32.9865 35.9571 31.7864 36.7571 30.7863C37.4572 29.9862 38.1573 29.0861 38.7573 28.2861C39.2574 27.686 39.2574 27.686 38.6573 27.186C38.2573 26.8859 37.8573 26.4859 37.4572 26.1859C36.2571 25.1858 36.2571 23.7856 37.3572 22.6855C37.9573 22.0855 38.5573 21.4854 39.0574 20.8854C39.8574 19.9853 40.8575 19.7853 41.9576 20.2853C42.1577 20.3853 42.2577 20.3853 42.4577 20.4853C42.4577 20.1853 42.4577 19.9853 42.4577 19.7853C42.4577 16.785 42.3577 13.6847 42.4577 10.6844C42.5577 8.88425 41.9576 7.78415 40.5575 6.78405C38.4573 5.0839 36.0571 3.78377 33.2568 2.9837ZM44.5579 12.0846C44.5579 12.3846 44.5579 12.5846 44.5579 12.7846C44.5579 19.6853 44.5579 26.4859 44.5579 33.3865C44.5579 33.9866 44.3579 34.3866 43.8578 34.6867C41.6576 36.3868 40.4575 38.687 40.3575 41.4873C40.1575 46.9878 45.2579 51.3882 50.6584 50.3881C54.3588 49.6881 56.759 47.4879 57.6591 43.8875C58.5592 40.2872 57.4591 37.1869 54.5588 34.7867C54.0588 34.3866 53.8588 33.9866 53.8588 33.2865C53.8588 24.5857 53.8588 15.8849 53.8588 7.08408C53.8588 6.78405 53.8588 6.58404 53.8588 6.28401C53.7587 3.88378 51.9586 2.08361 49.5583 1.78359C47.3581 1.58357 45.2579 3.08371 44.6579 5.28391C44.5579 5.48393 44.5579 5.68395 44.5579 5.88397C45.658 5.88397 46.7581 5.88397 47.7582 5.88397C48.3582 5.88397 48.6583 6.28401 48.6583 6.78405C48.6583 7.38411 48.2582 7.68414 47.6582 7.78415C47.3581 7.78415 46.9581 7.78415 46.6581 7.78415C45.858 7.78415 45.1579 7.78415 44.4579 7.78415C44.4579 8.58422 44.4579 9.3843 44.4579 10.1844C45.2579 10.1844 46.058 10.1844 46.8581 10.1844C47.5582 10.1844 47.8582 10.4844 47.9582 11.0845C47.9582 11.6845 47.5582 12.0846 46.8581 12.0846C46.258 12.0846 45.458 12.0846 44.5579 12.0846ZM2.45394 21.0854C1.45385 25.4858 1.75387 29.7862 3.154 33.9866C4.45413 37.887 6.65433 41.1873 9.75462 44.1876C10.0547 43.3875 10.4547 42.7874 10.5547 42.0874C10.6547 40.1872 10.5547 38.287 10.6547 36.2868C10.8547 33.9866 10.0547 32.1864 8.05446 30.8863C6.85435 30.0862 6.15429 28.8861 5.95427 27.486C5.85426 26.6859 5.85426 25.7858 5.85426 24.8857C5.85426 22.9856 4.45413 21.3854 2.45394 21.0854Z" fill="white"/>
<path d="M52.0588 26.686C52.0588 29.8863 52.0588 33.1866 52.0588 36.3869C52.0588 36.6869 52.1588 36.9869 52.4589 37.1869C54.5591 38.5871 55.3591 41.1873 54.4591 43.5875C53.559 45.8878 51.2588 47.2879 48.8585 46.9879C46.4583 46.7878 44.4581 44.7877 44.0581 42.2874C43.7581 40.2872 44.4581 38.5871 46.0583 37.2869C46.3583 37.0869 46.4583 36.7869 46.4583 36.3869C46.4583 29.9863 46.4583 23.4857 46.4583 17.0851C46.4583 15.5849 47.4584 14.3848 48.8585 14.1848C50.3587 13.9848 51.6588 14.8849 51.9588 16.285C52.0588 16.585 52.0588 16.785 52.0588 17.0851C52.0588 20.4854 52.0588 23.5857 52.0588 26.686ZM48.3585 27.386C48.3585 30.6863 48.3585 33.9866 48.3585 37.2869C48.3585 37.887 48.1585 38.287 47.6584 38.5871C46.4583 39.2871 45.8583 40.3872 45.9583 41.7874C46.0583 43.4875 47.3584 44.8877 49.1586 45.0877C50.7587 45.2877 52.3589 44.2876 52.8589 42.6875C53.359 41.0873 52.7589 39.2871 51.1587 38.4871C50.5587 38.187 50.3587 37.787 50.3587 37.0869C50.3587 30.5863 50.3587 24.0857 50.3587 17.5851C50.3587 17.3851 50.3587 17.1851 50.3587 16.985C50.2587 16.485 49.9586 16.185 49.4586 16.185C48.9585 16.185 48.6585 16.485 48.5585 16.985C48.5585 17.1851 48.5585 17.3851 48.5585 17.5851C48.3585 20.8854 48.3585 24.1857 48.3585 27.386Z" fill="white"/>
</svg>
