<svg width="60" height="70" viewBox="0 0 60 70" fill="none" xmlns="http://www.w3.org/2000/svg">
<path d="M30.7665 0C32.9641 1.1 35.0618 2.2 37.3593 3.2C41.5548 4.9 45.8501 6 50.3452 6.5C52.2431 6.7 54.1411 6.9 56.039 7C58.1367 7.2 59.8349 8.9 59.9348 11C59.9348 18.4 60.1345 25.8 59.8349 33.3C59.3354 43.8 55.0401 52.6 47.3485 59.7C42.5537 64.2 37.0597 67.2 30.7665 69C30.6666 69 30.6666 69.1 30.5667 69.1C30.1672 69.1 29.6677 69.1 29.2681 69.1C27.2703 68.3 25.1726 67.7 23.1748 66.8C11.4875 61.3 3.89576 52.3 0.899021 39.6C0.299674 37.2 0.0998913 34.6 0.0998913 32.1C0 25.2 0 18.2 0 11.3C0 9 1.69815 7.2 3.99565 7C9.38978 6.7 14.684 5.9 19.7785 4.2C22.5754 3.3 25.1726 2.1 27.7698 0.6C28.1693 0.3 28.6688 0.2 29.1683 0C29.6677 0 30.1672 0 30.7665 0ZM57.4375 22.9C57.5374 22.9 57.5374 22.9 57.4375 22.9C57.5374 20.8 57.5374 18.7 57.5374 16.6C57.5374 14.9 57.5374 13.2 57.5374 11.5C57.5374 10.2 56.8381 9.5 55.5395 9.3C52.4429 9 49.3463 8.7 46.2497 8.2C41.2551 7.3 36.4603 5.7 32.0651 3.3C29.8675 2.1 30.0673 2.1 27.8697 3.3C20.5776 7.2 12.7861 8.9 4.595 9.3C2.99674 9.4 2.2975 10 2.2975 11.7C2.2975 18.3 2.2975 24.9 2.2975 31.5C2.2975 37.2 3.49619 42.6 6.19326 47.6C11.1878 57.2 18.9793 63.5 29.368 66.6C29.7676 66.7 30.2671 66.7 30.5667 66.6C40.3561 63.6 47.9478 57.7 53.0423 48.7C55.7393 44 57.2377 38.9 57.4375 33.5C57.5374 30 57.4375 26.5 57.4375 22.9Z" fill="white"/>
<path d="M4.59501 23.9C4.59501 21 4.59501 18.1 4.59501 15.2C4.59501 12.9 5.7937 11.6 8.0912 11.4C15.0836 10.8 21.6764 9.00002 27.8697 5.80002C29.2682 5.10002 30.4668 5.10002 31.8653 5.80002C36.9598 8.40002 42.3539 10.1 48.0477 10.9C49.3463 11.1 50.6449 11.2 51.9435 11.3C53.7415 11.4 55.14 12.9 55.14 14.7C55.14 20.8 55.4397 26.9 55.0401 33C54.241 46.4 47.4484 55.9 35.6612 62.1C34.1628 62.9 32.5646 63.5 30.9663 64C30.2671 64.2 29.368 64.3 28.7687 64.1C18.6797 60.7 11.2877 54.2 7.09229 44.4C5.29425 40.3 4.49512 35.9 4.49512 31.4C4.59501 28.9 4.59501 26.4 4.59501 23.9ZM52.8425 24.5C52.9424 24.5 52.9424 24.5 52.8425 24.5C52.8425 21.4 52.8425 18.2 52.8425 15.1C52.8425 14.1 52.4429 13.7 51.5439 13.6C48.9467 13.2 46.3496 13 43.8523 12.4C39.2573 11.5 34.962 9.90002 30.7665 7.80002C30.1672 7.50002 29.5678 7.50002 28.9685 7.80002C27.9696 8.30002 26.9707 8.80002 25.9717 9.20002C20.4777 11.6 14.7839 13 8.79044 13.6C7.09229 13.8 6.89251 13.9 6.89251 15.6C6.89251 20.8 6.89251 26 6.89251 31.2C6.89251 34.2 7.19218 37.3 8.0912 40.2C11.4875 50.9 18.6797 57.9 29.0684 61.7C29.5678 61.9 30.1672 61.8 30.5667 61.7C37.3593 59.4 42.9533 55.3 47.0488 49.4C50.545 44.4 52.4429 38.9 52.6427 32.8C52.9424 30 52.8425 27.3 52.8425 24.5Z" fill="white"/>
<path d="M30.2675 17.3C30.9668 17.3 31.666 17.9 32.1655 18.8C33.1644 20.7 34.2632 22.7 35.2621 24.6C35.4619 25 35.6617 25.1 36.0612 25.2C38.159 25.5 40.2567 25.8 42.3544 26.1C43.4532 26.3 44.3522 26.7 44.6519 27.8C45.0515 28.9 44.6519 29.8 43.8528 30.5C42.3544 32 40.856 33.6 39.2578 35.1C38.8582 35.5 38.7583 35.8 38.8582 36.4C39.2578 38.5 39.6573 40.7 39.957 42.8C40.1568 43.9 39.957 44.9 38.9581 45.5C37.9592 46.2 37.0602 46 36.0612 45.5C34.1633 44.4 32.2654 43.4 30.3674 42.4C29.868 42.1 29.5683 42.2 29.1687 42.4C27.2708 43.5 25.273 44.5 23.375 45.6C22.3761 46.1 21.4771 46.2 20.4782 45.6C19.5792 45 19.2795 44.1 19.4793 43C19.8789 40.8 20.2784 38.6 20.678 36.4C20.7779 35.9 20.678 35.6 20.2784 35.2C18.78 33.7 17.1818 32.1 15.6834 30.5C14.8843 29.7 14.4847 28.8 14.8843 27.7C15.2839 26.6 16.1829 26.2 17.2817 26C19.3794 25.7 21.4771 25.4 23.5748 25.1C23.9744 25 24.1742 24.9 24.374 24.5C25.3729 22.5 26.4717 20.6 27.4706 18.6C28.2697 17.7 28.969 17.3 30.2675 17.3ZM29.9679 19.5C29.7681 19.9 29.6682 20.1 29.5683 20.3C28.4695 22.3 27.3707 24.3 26.3718 26.4C26.0721 27.1 25.5727 27.4 24.7735 27.5C23.0754 27.7 21.2773 28 19.5792 28.2C18.8799 28.3 18.0808 28.4 17.2817 28.6C17.4815 28.9 17.6812 29 17.7811 29.2C19.4793 30.9 21.0775 32.6 22.7757 34.2C23.375 34.8 23.4749 35.4 23.375 36.1C22.9755 38.1 22.6758 40.1 22.3761 42.1C22.2762 42.7 22.1764 43.2 22.0765 43.9C22.476 43.7 22.7757 43.5 22.9755 43.4C24.9733 42.3 27.071 41.2 29.0689 40.1C29.7681 39.7 30.3674 39.7 31.0667 40.1C33.1644 41.3 35.2621 42.4 37.3598 43.6C37.5596 43.7 37.7594 43.8 37.9592 43.9C37.9592 43.7 37.9592 43.6 37.9592 43.5C37.5596 41.1 37.16 38.6 36.6606 36.2C36.5607 35.5 36.6606 34.9 37.16 34.3C38.8582 32.6 40.4565 30.9 42.1546 29.3C42.3544 29.1 42.4543 28.9 42.6541 28.7C42.4543 28.6 42.2545 28.6 42.1546 28.5C40.2567 28.2 38.4586 28 36.5607 27.7C33.6638 27.3 34.3631 27.7 32.9646 25.2C31.9657 23.2 30.9668 21.4 29.9679 19.5Z" fill="white"/>
</svg>
