<svg width="60" height="77" viewBox="0 0 60 77" fill="none" xmlns="http://www.w3.org/2000/svg">
<path d="M60 30.1302C59.9 37.5302 57.5004 44.1302 52.6012 49.7302C52.2012 50.2302 52.1013 50.6302 52.4012 51.2302C54.3009 55.6302 56.2006 60.0302 58.1003 64.3302C58.4002 64.9302 58.6002 65.5302 58.1003 66.0302C57.6004 66.6302 57.0005 66.5302 56.4006 66.3302C53.801 65.8302 51.2014 65.2302 48.6018 64.7302C48.1019 64.6302 47.802 64.7302 47.502 65.2302C46.1022 67.5302 44.7025 69.8302 43.3027 72.1302C43.0027 72.6302 42.6028 73.1302 41.9029 73.1302C41.203 73.1302 40.9031 72.5302 40.6031 71.9302C38.9034 68.0302 37.2037 64.1302 35.504 60.1302C35.304 59.7302 35.204 59.5302 34.7041 59.5302C32.1045 60.0302 29.6049 60.0302 27.0053 59.7302C26.4054 59.6302 26.2055 59.8302 26.0055 60.3302C23.8058 65.2302 21.5062 70.0302 19.2066 74.9302C19.0066 75.3302 18.7067 75.7302 18.3067 75.9302C17.7068 76.3302 17.1069 76.0302 16.607 75.2302C15.2072 72.9302 13.9074 70.6302 12.6076 68.2302C12.3077 67.6302 11.9078 67.5302 11.3079 67.6302C8.70827 68.1302 6.10869 68.5302 3.50911 69.0302C2.90921 69.1302 2.40929 69.1302 2.00936 68.6302C1.60942 68.1302 1.7094 67.5302 2.00936 66.9302C4.30899 62.0302 6.60861 57.1302 8.90824 52.2302C9.20819 51.6302 9.10821 51.3302 8.60829 50.8302C2.70924 44.9302 -0.190289 37.6302 0.00967922 29.2302C0.409615 16.8302 8.10837 6.13019 19.7065 1.83019C35.9039 -4.16981 54.101 5.13019 58.8002 21.7302C59.6001 24.5302 60 27.2302 60 30.1302ZM30.0048 57.6302C45.2024 57.6302 57.5004 45.2302 57.5004 30.1302C57.5004 14.9302 45.1024 2.53019 30.0048 2.63019C14.8073 2.63019 2.50928 15.0302 2.50928 30.2302C2.50928 45.2302 14.8073 57.6302 30.0048 57.6302ZM23.8058 59.4302C19.1066 58.4302 14.9073 56.4302 11.1079 53.3302C9.10821 57.7302 7.10853 61.9302 5.00887 66.3302C7.50847 65.9302 9.90808 65.5302 12.2077 65.1302C13.2075 64.9302 13.5075 65.1302 14.0074 65.9302C15.1072 67.8302 16.2071 69.6302 17.2069 71.5302C17.3069 71.7302 17.5069 71.9302 17.7068 72.2302C19.8065 67.9302 21.8062 63.7302 23.8058 59.4302ZM42.1029 69.2302C42.3028 68.8302 42.5028 68.6302 42.6028 68.4302C43.7026 66.6302 44.9024 64.8302 46.0023 62.9302C46.4022 62.2302 47.0021 61.9302 47.702 62.2302C47.9019 62.3302 48.2019 62.3302 48.4019 62.4302C50.5015 62.8302 52.6012 63.3302 54.9008 63.7302C53.2011 59.9302 51.6014 56.2302 50.0016 52.3302C46.4022 55.5302 42.3028 57.8302 37.6036 59.1302C39.2033 62.4302 40.6031 65.7302 42.1029 69.2302Z" fill="white"/>
<path d="M52.9011 27.6302C52.7011 28.4302 52.5011 29.2302 52.2012 30.0302C52.1012 30.2302 52.0012 30.5302 51.9012 30.7302C49.8016 34.8302 50.2015 33.8302 50.7014 38.2302C51.0014 40.8302 49.8016 43.2302 47.402 44.4302C46.5021 44.8302 45.5023 45.2302 44.6024 45.6302C43.7025 46.0302 42.9027 46.6302 42.4028 47.4302C41.9028 48.2302 41.3029 49.1302 40.803 49.9302C39.3033 52.0302 36.9036 52.9302 34.4041 52.2302C33.4042 51.9302 32.4044 51.6302 31.5045 51.3302C30.6047 51.0302 29.7048 51.0302 28.805 51.3302C27.7051 51.7302 26.5053 52.0302 25.3055 52.3302C22.9059 52.8302 21.0062 51.9302 19.6064 50.1302C18.9066 49.3302 18.4066 48.3302 17.8067 47.4302C17.3068 46.6302 16.5069 45.9302 15.6071 45.6302C14.7072 45.2302 13.9074 44.9302 13.0075 44.5302C10.4079 43.4302 9.10814 41.0302 9.50807 38.2302C9.60806 37.3302 9.80802 36.3302 9.80802 35.4302C9.80802 34.6302 9.60805 33.8302 9.40808 33.0302C9.00815 32.0302 8.40825 31.0302 8.00832 30.0302C6.90849 27.7302 7.40841 25.2302 9.10814 23.4302C9.60806 22.9302 10.208 22.3302 10.8079 21.8302C12.0077 20.8302 12.7076 19.6302 13.0075 18.0302C13.1075 17.2302 13.4074 16.4302 13.6074 15.5302C14.3073 13.1302 16.307 11.5302 18.8066 11.4302C19.8064 11.3302 20.8062 11.4302 21.8061 11.2302C22.606 11.1302 23.4058 10.8302 24.2057 10.4302C25.1056 9.93016 25.9054 9.23016 26.7053 8.63016C29.0049 6.93016 31.6045 6.93016 33.9041 8.63016C34.1041 8.83016 34.4041 8.93016 34.604 9.23016C36.4037 10.9302 38.5034 11.4302 40.903 11.4302C44.3025 11.4302 46.3021 13.0302 47.102 16.4302C47.102 16.5302 47.102 16.5302 47.102 16.6302C47.402 19.1302 48.5018 21.1302 50.5015 22.6302C51.9012 24.0302 52.8011 25.5302 52.9011 27.6302ZM11.8077 38.7302C11.6077 40.4302 12.3076 41.5302 13.8074 42.2302C14.8072 42.6302 15.8071 43.1302 16.8069 43.5302C17.9067 44.0302 18.8066 44.8302 19.5065 45.8302C20.1064 46.7302 20.7063 47.6302 21.2062 48.4302C22.206 49.8302 23.5058 50.3302 25.1056 49.8302C25.9054 49.6302 26.8053 49.3302 27.6052 49.1302C29.1049 48.6302 30.6047 48.6302 32.1044 49.1302C33.0043 49.4302 33.8042 49.6302 34.704 49.9302C36.4037 50.4302 37.7035 49.9302 38.7034 48.5302C39.3033 47.7302 39.8032 46.8302 40.4031 45.9302C41.103 44.8302 42.0028 44.1302 43.2026 43.6302C44.2025 43.2302 45.2023 42.7302 46.2022 42.3302C47.6019 41.6302 48.3018 40.5302 48.1018 38.9302C48.1018 38.5302 48.0019 38.1302 48.0019 37.7302C47.6019 35.3302 47.7019 32.9302 49.1017 30.8302C49.4016 30.3302 49.6016 29.8302 49.9016 29.3302C50.6014 27.8302 50.4015 26.5302 49.2017 25.3302C48.5018 24.6302 47.8019 23.9302 47.002 23.2302C46.0022 22.2302 45.3023 21.1302 45.0023 19.7302C44.8024 18.8302 44.5024 17.8302 44.3025 16.9302C43.9025 15.2302 43.0027 14.4302 41.3029 14.2302C40.703 14.1302 40.1031 14.1302 39.5032 14.1302C37.3036 14.1302 35.3039 13.5302 33.6042 12.0302C33.1043 11.6302 32.6043 11.2302 32.0044 10.8302C30.6047 9.83016 29.3049 9.83016 28.0051 10.8302C27.1052 11.4302 26.3054 12.1302 25.4055 12.7302C24.4057 13.5302 23.2059 13.9302 21.9061 13.9302C20.8062 14.0302 19.7064 14.0302 18.5066 14.2302C17.0069 14.4302 16.107 15.3302 15.7071 16.7302C15.5071 17.4302 15.4071 18.0302 15.2072 18.7302C14.8072 20.7302 13.9074 22.4302 12.3076 23.8302C11.8077 24.2302 11.3078 24.7302 10.8079 25.2302C9.60805 26.4302 9.30811 27.7302 10.108 29.2302C10.6079 30.1302 11.1078 31.0302 11.5078 32.0302C11.8077 33.0302 12.1077 34.0302 12.1077 35.0302C12.2076 36.2302 12.0077 37.5302 11.8077 38.7302Z" fill="white"/>
<path d="M42.4028 27.8302C42.1029 28.3302 41.803 28.8302 41.303 29.2302C39.9033 30.4302 38.5035 31.5302 37.1037 32.6302C36.6038 33.0302 36.5038 33.3302 36.6038 33.9302C37.1037 35.6302 37.6036 37.3302 38.0036 39.1302C38.3035 40.2302 38.1035 40.9302 37.4037 41.4302C36.7038 41.9302 36.0039 41.9302 35.104 41.2302C33.6043 40.2302 32.0045 39.2302 30.5048 38.2302C30.1048 37.9302 29.8049 37.9302 29.4049 38.2302C27.9052 39.2302 26.3054 40.3302 24.7057 41.3302C23.8058 41.9302 23.106 41.9302 22.4061 41.4302C21.7062 40.9302 21.5062 40.2302 21.8062 39.2302C22.3061 37.5302 22.706 35.7302 23.2059 34.0302C23.4059 33.3302 23.2059 33.0302 22.706 32.5302C21.3063 31.4302 19.9065 30.3302 18.6067 29.2302C17.9068 28.6302 17.5069 28.0302 17.8068 27.1302C18.1068 26.2302 18.8067 25.9302 19.7065 25.8302C21.5062 25.7302 23.2059 25.6302 25.0057 25.6302C25.7055 25.6302 26.1055 25.4302 26.3054 24.7302C26.9053 23.0302 27.6052 21.3302 28.2051 19.6302C28.6051 18.7302 29.205 18.2302 30.0049 18.3302C30.9047 18.3302 31.4046 18.8302 31.7046 19.6302C32.3045 21.3302 33.0044 23.0302 33.6043 24.7302C33.8042 25.4302 34.2042 25.6302 34.9041 25.6302C36.7038 25.6302 38.4035 25.7302 40.2032 25.8302C41.403 25.9302 42.0029 26.4302 42.1029 27.3302C42.1029 27.4302 42.1029 27.5302 42.2029 27.6302C42.3029 27.7302 42.3029 27.8302 42.4028 27.8302ZM30.0049 22.1302C29.4049 23.6302 29.005 24.8302 28.5051 26.1302C27.8052 27.9302 27.6052 28.1302 25.6056 28.1302C24.3058 28.1302 23.006 28.2302 21.5062 28.3302C22.806 29.3302 23.9058 30.3302 25.0057 31.1302C26.0055 31.8302 26.3054 32.7302 25.9055 33.9302C25.4056 35.3302 25.1056 36.7302 24.7057 38.3302C26.1055 37.4302 27.4053 36.6302 28.7051 35.7302C29.6049 35.1302 30.4048 35.1302 31.3046 35.7302C32.6044 36.6302 33.8042 37.4302 35.304 38.3302C34.9041 36.8302 34.5041 35.4302 34.1042 34.0302C33.7043 32.5302 33.8042 32.1302 35.104 31.1302C36.2038 30.2302 37.3037 29.3302 38.4035 28.4302C38.3035 28.3302 38.3035 28.3302 38.3035 28.3302C37.0037 28.2302 35.6039 28.2302 34.3042 28.1302C32.5044 28.0302 32.2045 27.8302 31.5046 26.1302C31.1047 24.9302 30.6048 23.6302 30.0049 22.1302Z" fill="white"/>
</svg>
