<svg width="60" height="60" viewBox="0 0 60 60" fill="none" xmlns="http://www.w3.org/2000/svg">
<path d="M0 19.833C0.2 19.6327 0.500003 19.3322 0.800003 19.232C1.9 18.631 3 18.03 4.2 17.5292C5 17.1285 5.4 17.3289 5.8 18.1302C6.4 19.3322 6.89999 20.6344 7.39999 21.8364C7.69999 22.5375 7.5 23.0384 7 23.2387C6.4 23.439 6 23.2387 5.7 22.6377C5.5 22.1369 5.2 21.636 5 21.1352C5 21.1352 4.99999 21.1352 4.89999 21.035C4.49999 22.1369 4.1 23.2387 3.8 24.4407C2 30.0501 2.80001 35.5592 5.10001 40.8681C8.20001 48.1803 13.6 53.1886 21 56.0935C24.2 57.2955 27.5 57.7963 30.9 57.7963C31.2 57.7963 31.5 57.7963 31.8 57.7963C32.3 57.7963 32.7 58.197 32.7 58.6978C32.7 59.2988 32.4 59.6995 31.9 59.6995C30.7 59.6995 29.4 59.7996 28.2 59.6995C24.2 59.399 20.3 58.2971 16.8 56.2938C8.3 51.5859 3.19999 44.4741 1.39999 34.9582C0.499994 30.2504 1.19999 25.7429 2.89999 21.3355C2.99999 21.1352 3 20.9349 3.2 20.5342C2.7 20.7345 2.40001 20.9349 2.10001 21.1352C1.20001 21.636 0.900003 21.5359 0.300003 20.8347C3.03984e-06 20.3339 0 20.0334 0 19.833Z" fill="white"/>
<path d="M32.2999 0C33.2999 0.100167 34.2999 0.300501 35.1999 0.500835C40.3999 1.40234 44.9999 3.50584 49.0999 6.71118C50.7999 8.11352 52.3999 9.71619 53.9999 11.2187C54.0999 11.3189 54.0999 11.419 54.0999 11.5192C54.1999 11.5192 54.1999 11.419 54.2999 11.419C54.2999 11.0184 54.2999 10.7179 54.2999 10.3172C54.2999 9.71619 54.5999 9.41569 55.1999 9.31552C55.7999 9.31552 56.1999 9.61602 56.2999 10.217C56.2999 11.7195 56.3999 13.222 56.2999 14.7245C56.2999 15.3255 55.7999 15.626 55.2999 15.626C53.7999 15.626 52.2999 15.626 50.7999 15.626C50.0999 15.626 49.7999 15.2254 49.7999 14.5242C49.7999 13.9232 50.1999 13.6227 50.8999 13.6227C51.6999 13.6227 52.4999 13.6227 53.3999 13.6227C53.0999 13.222 52.7999 12.9215 52.5999 12.621C47.6999 7.01169 41.5999 3.30551 34.1999 2.30384C24.6999 1.00167 16.5999 4.00668 9.89987 11.0184C9.39987 11.5192 8.99988 12.1202 8.49988 12.7212C7.99988 13.3222 7.49988 13.4224 6.99988 13.0217C6.49988 12.621 6.49987 12.1202 6.89987 11.5192C10.7999 6.51085 15.7999 3.10517 21.8999 1.30217C23.7999 0.801335 25.7999 0.601002 27.6999 0.200334C27.7999 0.200334 27.9999 0.100167 28.0999 0.100167C29.5999 -9.70192e-08 30.9999 0 32.2999 0Z" fill="white"/>
<path d="M60.0003 31.6527C59.8003 32.6544 59.7003 33.6561 59.5003 34.5576C58.5003 39.7663 56.2003 44.2738 52.9003 48.2805C49.5003 52.2871 45.4003 55.2921 40.4003 57.3956C40.9003 57.596 41.3003 57.7963 41.7003 57.9966C42.8003 58.4975 42.9003 59.1987 42.0003 60C41.8003 60 41.5003 60 41.3003 60C40.1003 59.4992 39.0003 58.8981 37.8003 58.3973C36.7003 57.8965 36.5003 57.3956 37.2003 56.394C37.8003 55.3923 38.5003 54.3906 39.1003 53.389C39.5003 52.788 40.0003 52.5876 40.5003 52.8881C41.1003 53.1886 41.1003 53.7896 40.7003 54.3906C40.5003 54.591 40.4003 54.8915 40.1003 55.2921C40.4003 55.192 40.6003 55.192 40.7003 55.0918C49.0003 51.0851 54.7003 44.8748 57.1003 35.8598C58.5003 30.6511 58.1003 25.4424 56.3003 20.3339C56.2003 20.1336 56.2003 19.9332 56.1003 19.7329C55.9003 19.1319 56.1003 18.631 56.7003 18.4307C57.3003 18.2304 57.8003 18.4307 58.0003 19.0317C58.6003 21.0351 59.1003 22.9382 59.6003 24.9416C59.8003 25.8431 59.9003 26.7446 60.0003 27.6461C60.0003 29.1486 60.0003 30.3506 60.0003 31.6527Z" fill="white"/>
<path d="M33.5996 46.177C33.5996 47.1786 33.5996 48.2805 33.5996 49.2822C33.5996 50.1837 33.2996 50.5843 32.2996 50.5843C30.8996 50.5843 29.3996 50.5843 27.9996 50.5843C27.0996 50.5843 26.7996 50.2838 26.7996 49.3823C26.7996 48.4808 26.7996 47.4791 26.7996 46.5776C26.7996 46.3773 26.6996 46.0768 26.4996 46.0768C24.6996 45.576 22.9996 44.8748 21.3996 43.8731C20.5996 44.6745 19.8996 45.3756 19.0996 46.177C18.3996 46.8781 17.9996 46.8781 17.2996 46.177C16.2996 45.1753 15.2996 44.1736 14.1996 43.0718C13.4996 42.3706 13.4996 41.97 14.1996 41.2688C14.8996 40.5676 15.6996 39.7663 16.3996 39.1653C15.8996 38.1636 15.3996 37.2621 14.9996 36.3606C14.5996 35.4591 14.3996 34.5576 13.9996 33.5559C12.9996 33.5559 11.8996 33.5559 10.7996 33.5559C9.89961 33.5559 9.59961 33.2554 9.59961 32.3539C9.59961 30.8514 9.59961 29.4491 9.59961 27.9466C9.59961 27.0451 9.8996 26.6444 10.8996 26.6444C11.7996 26.6444 12.6996 26.6444 13.6996 26.6444C13.8996 26.6444 14.1996 26.4441 14.1996 26.3439C14.5996 24.5409 15.3996 22.8381 16.3996 21.1352C15.5996 20.3339 14.7996 19.6327 14.0996 18.8314C13.4996 18.2304 13.4996 17.7296 14.0996 17.1286C15.0996 16.0267 16.1996 15.0251 17.1996 13.9232C17.7996 13.3222 18.2996 13.3222 18.8996 13.9232C19.6996 14.7246 20.3996 15.4257 21.0996 16.0267C22.6996 15.3256 24.2996 14.7246 25.8996 14.1236C26.4996 13.9232 26.6996 13.6227 26.6996 13.0217C26.5996 12.2204 26.6996 11.3189 26.6996 10.5175C26.6996 9.71621 26.9996 9.41571 27.7996 9.41571C29.2996 9.41571 30.7996 9.41571 32.3996 9.41571C33.1996 9.41571 33.4996 9.71621 33.4996 10.6177C33.4996 11.7196 33.4996 12.8214 33.4996 13.8231C34.4996 14.1236 35.3996 14.4241 36.2996 14.8247C37.1996 15.2254 37.9996 15.7262 38.8996 16.1269C39.5996 15.4257 40.3996 14.6244 41.1996 13.9232C41.7996 13.3222 42.2996 13.3222 42.8996 13.9232C43.9996 14.9249 44.9996 16.0267 45.9996 17.1286C46.5996 17.7296 46.5996 18.2304 45.9996 18.8314C45.2996 19.5326 44.6996 20.1336 43.9996 20.8347C43.7996 21.0351 43.6996 21.2354 43.8996 21.5359C44.7996 22.9382 45.3996 24.5409 45.7996 26.1436C45.8996 26.5443 46.0996 26.6444 46.3996 26.6444C47.2996 26.6444 48.1996 26.6444 49.0996 26.6444C49.9996 26.6444 50.3996 27.0451 50.3996 27.9466C50.3996 29.4491 50.3996 30.8514 50.3996 32.3539C50.3996 33.2554 50.0996 33.5559 49.1996 33.5559C48.2996 33.5559 47.2996 33.5559 46.3996 33.5559C46.0996 33.5559 45.8996 33.6561 45.8996 33.9566C45.4996 35.6594 44.8996 37.1619 43.9996 38.6645C43.7996 38.965 43.8996 39.1653 44.0996 39.3656C44.7996 40.0668 45.4996 40.6678 46.0996 41.369C46.6996 41.97 46.6996 42.4708 46.0996 42.9716C44.9996 44.0735 43.9996 45.1753 42.8996 46.177C42.3996 46.6778 41.7996 46.6778 41.2996 46.177C40.5996 45.4758 39.8996 44.7746 39.2996 44.1736C39.0996 43.9733 38.8996 43.8731 38.6996 44.0735C37.8996 44.4741 37.0996 44.975 36.2996 45.2755C35.3996 45.576 34.5996 45.7763 33.5996 46.177ZM28.6996 11.5192C28.6996 12.5209 28.6996 13.5226 28.6996 14.5242C28.6996 15.3256 28.4996 15.6261 27.6996 15.8264C25.5996 16.2271 23.7996 17.0284 21.9996 18.2304C21.2996 18.7312 20.9996 18.6311 20.3996 18.0301C19.6996 17.3289 18.9996 16.6277 18.2996 16.0267C17.5996 16.7279 16.8996 17.3289 16.0996 18.0301C16.7996 18.7312 17.4996 19.4324 18.1996 20.0334C18.8996 20.7346 18.8996 21.0351 18.3996 21.8364C17.2996 23.5392 16.4996 25.4424 16.0996 27.4458C15.9996 28.3473 15.6996 28.5476 14.7996 28.5476C13.7996 28.5476 12.7996 28.5476 11.7996 28.5476C11.7996 29.5493 11.7996 30.5509 11.7996 31.5526C12.7996 31.5526 13.7996 31.5526 14.7996 31.5526C15.6996 31.5526 15.9996 31.8531 16.0996 32.6544C16.4996 34.7579 17.2996 36.6611 18.3996 38.364C18.8996 39.0651 18.7996 39.4658 18.1996 39.9666C17.4996 40.6678 16.7996 41.369 15.9996 42.0701C16.7996 42.7713 17.3996 43.4725 18.0996 44.1736C18.7996 43.4725 19.4996 42.7713 20.1996 42.0701C20.7996 41.4691 21.1996 41.369 21.8996 41.8698C23.5996 43.0718 25.3996 43.773 27.3996 44.1736C28.3996 44.374 28.5996 44.5743 28.5996 45.6761C28.5996 46.6778 28.5996 47.5793 28.5996 48.581C29.5996 48.581 30.4996 48.581 31.4996 48.581C31.4996 47.5793 31.4996 46.5776 31.4996 45.576C31.4996 44.6745 31.6996 44.374 32.5996 44.2738C34.5996 43.8731 36.3996 43.172 38.0996 41.97C38.9996 41.369 39.1996 41.369 39.9996 42.1703C40.6996 42.8715 41.3996 43.5726 41.9996 44.1736C42.6996 43.4725 43.3996 42.8715 44.1996 42.0701C43.4996 41.369 42.7996 40.768 42.0996 40.0668C41.3996 39.3656 41.3996 39.0651 41.8996 38.2638C42.9996 36.5609 43.7996 34.7579 44.1996 32.7546C44.3996 31.6528 44.5996 31.4524 45.6996 31.4524C46.5996 31.4524 47.5996 31.4524 48.4996 31.4524C48.4996 30.4508 48.4996 29.4491 48.4996 28.4474C47.3996 28.4474 46.3996 28.4474 45.3996 28.4474C44.5996 28.4474 44.2996 28.1469 44.1996 27.4458C43.7996 25.3423 42.9996 23.4391 41.8996 21.7362C41.3996 21.0351 41.3996 20.6344 42.0996 20.0334C42.7996 19.3322 43.4996 18.6311 44.1996 17.9299C43.3996 17.2287 42.6996 16.5276 41.9996 15.8264C41.3996 16.4274 40.6996 17.1286 39.9996 17.8297C39.2996 18.5309 38.9996 18.6311 38.0996 18.0301C36.3996 16.9282 34.5996 16.1269 32.5996 15.7262C31.6996 15.5259 31.4996 15.2254 31.4996 14.3239C31.4996 13.3222 31.4996 12.4207 31.4996 11.419C30.6996 11.5192 29.7996 11.5192 28.6996 11.5192Z" fill="white"/>
<path d="M38.3 30.0501C38.3 34.5576 34.6 38.2637 30.1 38.2637C25.7 38.2637 22 34.5576 22 30.0501C22 25.5425 25.7 21.8364 30.2 21.8364C34.8 21.8364 38.4 25.5425 38.3 30.0501ZM30.2 23.7395C26.8 23.7395 24 26.5442 24 29.9499C24 33.3556 26.8 36.1602 30.2 36.1602C33.6 36.1602 36.4 33.3556 36.4 29.8497C36.4 26.5442 33.6 23.7395 30.2 23.7395Z" fill="white"/>
</svg>
