<svg width="60" height="65" viewBox="0 0 60 65" fill="none" xmlns="http://www.w3.org/2000/svg">
<path d="M30.3506 64.107C30.1502 64.107 29.8498 64.107 29.6494 64.107C29.4491 64.0069 29.2488 63.8065 29.0484 63.7064C19.6327 59.1989 10.3172 54.6913 0.901496 50.1838C0.200328 49.8833 0 49.3825 0 48.6813C0 37.5628 0 26.5444 0 15.4259C0 14.7247 0.200328 14.2239 0.901496 13.9234C8.91485 10.1171 16.9282 6.21054 24.9416 2.30403C26.5442 1.5027 28.1469 0.70136 29.6494 -0.0999756C29.8498 -0.0999756 30.1502 -0.0999756 30.3506 -0.0999756C30.5509 0.000191368 30.6511 0.100358 30.8514 0.200525C40.2671 4.70804 49.6828 9.31572 59.0985 13.8232C59.6995 14.1237 60 14.5244 60 15.2256C60 26.3441 60 37.4626 60 48.5812C60 49.2823 59.7997 49.683 59.0985 49.9835C51.1853 53.7898 43.2721 57.5962 35.4591 61.4025C33.7563 62.4042 32.0534 63.2055 30.3506 64.107ZM3.00501 14.9251C3.30551 15.0252 3.50585 15.1254 3.60602 15.2256C10.0167 18.3307 16.3272 21.3358 22.7379 24.4409C23.6394 24.9418 23.9399 25.3424 23.6394 25.9434C23.3389 26.5444 22.8381 26.5444 21.8364 26.1438C15.3255 23.0386 8.81468 19.8332 2.30383 16.7281C2.10349 16.6279 1.90318 16.5277 1.60268 16.4276C1.60268 16.7281 1.60268 16.9284 1.60268 17.2289C1.60268 27.3458 1.60268 37.5628 1.60268 47.6797C1.60268 48.2807 1.80299 48.481 2.30383 48.7815C10.217 52.5878 18.1302 56.3942 26.0434 60.3007C26.9449 60.7014 27.8464 61.2022 28.8481 61.6029C28.8481 61.3024 28.8481 61.0019 28.8481 60.8015C28.8481 56.4944 28.8481 52.2873 28.8481 47.9802C28.8481 42.0703 28.8481 36.1605 28.8481 30.2506C28.8481 29.7498 28.7479 29.5494 28.3472 29.3491C27.7462 29.0486 27.1452 28.7481 26.4441 28.4476C25.8431 28.1471 25.7429 27.6463 25.9432 27.1454C26.1436 26.6446 26.6444 26.5444 27.2454 26.7448C27.6461 26.9451 28.1469 27.0453 28.4474 27.3458C29.3489 27.9468 30.1503 27.8466 31.1519 27.3458C32.8548 26.4443 34.5576 25.6429 36.2604 24.8416C36.9616 24.5411 37.5626 24.7414 37.7629 25.4426C37.8631 26.0436 37.5626 26.3441 37.0618 26.6446C35.1586 27.5461 33.2554 28.4476 31.3522 29.3491C30.8514 29.5494 30.7512 29.8499 30.7512 30.2506C30.7512 40.4676 30.7512 50.6847 30.7512 60.8015C30.7512 61.0019 30.7512 61.2022 30.7512 61.5027C31.0517 61.4025 31.1519 61.3024 31.3522 61.2022C40.0668 56.9952 48.7813 52.7882 57.4958 48.5812C57.8965 48.3808 57.9967 48.1805 57.9967 47.6797C57.9967 37.4626 57.9967 27.1454 57.9967 16.9284C57.9967 16.7281 57.9967 16.5277 57.9967 16.4276C57.8965 16.4276 57.7963 16.4276 57.7963 16.5277C55.0918 17.8299 52.4875 19.1321 49.783 20.4342C49.3823 20.6346 49.4825 20.8349 49.4825 21.1354C49.4825 24.6413 49.4825 28.0469 49.4825 31.5528C49.4825 32.254 49.182 32.6546 48.581 32.9551C46.4775 33.9568 44.3739 34.9585 42.3706 35.9601C41.1686 36.5611 40.5676 36.1605 40.5676 34.8583C40.5676 31.4526 40.5676 28.0469 40.5676 24.6413C40.5676 24.2406 40.4674 24.0403 40.0668 23.8399C30.9516 19.4326 21.8364 15.0252 12.7212 10.6179C12.5209 10.5177 12.2204 10.5177 12.1202 10.6179C9.1152 12.0202 6.11018 13.5227 3.00501 14.9251ZM22.237 5.70971C22.4374 5.80987 22.6377 5.91004 22.7379 6.01021C31.3522 10.2172 40.0668 14.3241 48.6811 18.5311C48.8815 18.6312 49.3823 18.6312 49.5826 18.5311C51.8865 17.4292 54.0901 16.3274 56.2938 15.3257C56.394 15.2256 56.5943 15.1254 56.7946 15.0252C53.5893 13.5227 50.4841 12.0202 47.379 10.5177C41.7696 7.81321 36.0601 5.00854 30.3506 2.30403C30.1502 2.20386 29.8498 2.1037 29.6494 2.20386C27.2454 3.3057 24.7412 4.5077 22.237 5.70971ZM46.8781 19.8332C46.5776 19.6329 46.3773 19.5327 46.177 19.4326C42.8715 17.8299 39.6661 16.2272 36.3606 14.7247C31.0517 12.2206 25.8431 9.61622 20.5342 7.11204C20.3339 7.01188 19.9332 6.91171 19.833 7.01188C18.1302 7.81321 16.4274 8.61455 14.6244 9.51605C14.9249 9.61622 15.1252 9.71639 15.3255 9.81655C19.1319 11.6196 22.9382 13.5227 26.7446 15.3257C31.5526 17.6296 36.2604 19.9334 41.0685 22.2373C41.2688 22.3374 41.5693 22.4376 41.7696 22.3374C43.3723 21.5361 45.0751 20.6346 46.8781 19.8332ZM42.4708 33.8566C44.1736 33.0553 45.7763 32.254 47.379 31.4526C47.4791 31.3524 47.5793 31.0519 47.5793 30.8516C47.5793 27.9468 47.5793 25.0419 47.5793 22.1371C47.5793 22.0369 47.5793 21.8366 47.5793 21.7364C47.4791 21.7364 47.4791 21.7364 47.379 21.7364C46.3773 22.2373 45.3756 22.6379 44.4741 23.1388C43.773 23.4393 42.8715 23.6396 42.571 24.1404C42.2705 24.7414 42.4708 25.5428 42.4708 26.3441C42.4708 28.7481 42.4708 31.2523 42.4708 33.8566Z" fill="white"/>
<path d="M4.90739 38.264C5.00756 38.264 5.20789 38.3641 5.40822 38.4643C8.01256 39.6663 10.6169 40.9685 13.1211 42.1705C13.3214 42.2707 13.7221 42.471 13.7221 42.7715C13.8222 43.072 13.7221 43.5728 13.6219 43.7732C13.3214 44.1738 12.9207 44.1738 12.4199 43.9735C11.4182 43.4727 10.5167 43.072 9.51507 42.5712C7.81224 41.7698 6.10939 40.9685 4.40655 40.067C4.00589 39.8666 3.70538 39.466 3.80555 38.9651C4.00588 38.5645 4.30639 38.264 4.90739 38.264Z" fill="white"/>
<path d="M10.0175 45.476C10.0175 46.3775 9.41645 46.8783 8.71529 46.5778C7.21278 45.8767 5.81045 45.1755 4.30795 44.4743C3.80711 44.274 3.70695 43.673 3.90728 43.2723C4.10762 42.7715 4.60844 42.5712 5.20944 42.8717C6.61178 43.5728 8.01413 44.1738 9.41647 44.875C9.71697 44.9752 9.91731 45.3758 10.0175 45.476Z" fill="white"/>
</svg>
