<svg width="60" height="61" viewBox="0 0 60 61" fill="none" xmlns="http://www.w3.org/2000/svg">
<path d="M11.5578 0C12.1608 0.100502 12.7638 0.201005 13.3668 0.301507C17.6884 1.30653 20.804 4.92462 21.3065 9.34673C21.5075 10.9548 21.3065 12.4623 20.804 13.8693C20.7035 14.1709 20.7035 14.4724 21.005 14.6734C21.7085 15.3769 22.5126 16.1809 23.2161 16.9849C24.6231 15.3769 26.1306 14.5729 28.0402 16.2814C28.9447 15.3769 29.7487 14.4724 30.6533 13.6683C31.7588 12.5628 33.0653 12.1608 34.6734 12.5628C36.4824 13.0653 37.6884 14.5729 37.6884 16.3819C37.6884 16.5829 37.6884 16.6834 37.6884 16.8844C39.0955 16.7839 40.3015 17.2864 41.206 18.392C42.1105 19.4975 42.3115 20.804 42.01 22.2111C43.1156 22.4121 44.1206 22.8141 44.9246 23.7186C45.6281 24.6231 45.9296 25.6281 45.8291 26.8342C46.0301 26.8342 46.2312 26.9347 46.4322 26.9347C47.9397 27.1357 48.9447 27.9397 49.4472 29.2462C49.9498 30.6533 49.7487 31.9598 48.6432 33.0653C47.1357 34.6734 45.6281 36.1809 44.0201 37.7889C44.5226 38.2915 45.0251 38.794 45.5276 39.196C45.6281 39.2965 45.9296 39.2965 46.1306 39.196C50.8543 37.6884 55.8794 39.4975 58.4925 43.6181C59.196 44.8241 59.6985 46.1306 59.8995 47.5377C59.8995 47.6382 60 47.8392 60 47.9397C60 48.7437 60 49.5477 60 50.4523C60 50.5528 59.8995 50.7538 59.8995 50.8543C59.6985 51.4573 59.598 52.0603 59.2965 52.5628C58.794 53.4673 57.8894 53.7688 56.9849 53.1658C56.6834 52.9648 56.3819 52.6633 56.0804 52.3618C54.5728 50.8543 53.1658 49.3467 51.6583 47.9397C50.8543 47.1357 49.8492 46.9347 48.7437 47.2362C47.7387 47.5377 47.2362 48.2412 47.0352 49.1457C46.8341 50.1507 47.1357 51.0553 47.9397 51.8593C49.5477 53.3668 51.0553 54.9749 52.6633 56.4824C53.9698 57.7889 53.6683 59.196 51.8593 59.799C51.7588 59.799 51.6583 59.8995 51.5578 59.8995C46.9347 61.005 42.01 58.794 39.799 54.6734C39.4975 54.0703 39.598 53.5678 40.1005 53.2663C40.603 52.9648 41.005 53.1658 41.407 53.7688C42.9146 56.3819 45.1256 57.8894 48.0402 58.2914C49.2462 58.4924 50.3517 58.3919 51.5578 57.9899C51.3568 57.7889 51.2563 57.6884 51.1558 57.4874C49.7487 56.0804 48.2412 54.6734 46.8342 53.1658C46.5327 52.8643 46.3316 52.6633 46.1306 52.3618C44.5226 50.1507 45.1256 46.2311 48.4422 45.4271C50.1508 45.0251 51.7588 45.4271 52.9648 46.6332C54.4724 48.1407 55.9799 49.6482 57.4874 51.1558C57.5879 51.2563 57.7889 51.4573 57.9899 51.5578C58.0905 51.2563 58.0904 51.1558 58.1909 50.9548C58.794 48.0402 58.0904 45.3266 56.0804 43.1156C53.5678 40.402 49.7487 39.598 46.3317 40.9045C45.5276 41.206 45.3266 41.206 44.6231 40.603C43.9196 40 43.3166 39.2965 42.6131 38.6935C42.412 38.4925 42.01 38.2915 41.809 38.2915C40 38.1909 38.4925 36.9849 38.1909 35.1759C38.0904 34.6734 38.1909 34.1708 38.1909 33.5678C35.2764 32.4623 34.9749 32.1608 34.3719 29.4472C31.8593 29.7487 29.8492 28.8442 27.9397 27.4372C27.6382 28.3417 27.5377 29.2462 27.1357 30.0502C26.9347 30.5528 27.0352 30.8543 27.4372 31.2563C31.8593 35.6784 36.3819 40.1005 40.804 44.5226C41.3065 45.0251 41.407 45.4271 41.1055 46.1306C40.603 47.2362 40.402 48.4422 40.402 49.6482C40.402 50.3517 40.1005 50.7538 39.598 50.7538C38.995 50.7538 38.593 50.3517 38.6935 49.6482C38.794 48.4422 39.0955 47.2362 39.2965 46.0301C39.2965 45.8291 39.2965 45.6281 39.196 45.4271C38.593 44.8241 38.0904 44.2211 37.4874 43.6181C35.6784 44.6231 33.7688 45.0251 31.8593 44.5226C30.7538 44.2211 29.9497 44.6231 29.1457 45.4271C27.2362 47.3367 25.3266 49.1457 23.5176 51.0553C23.4171 51.1558 23.3166 51.4573 23.3166 51.5578C23.7186 52.8643 23.4171 53.9698 22.412 54.8744C21.206 56.0804 20 57.1859 18.8945 58.3919C18.1909 59.0955 17.4874 59.799 16.4824 60C16.2814 60 15.9799 60 15.7789 60C15.1759 59.6985 14.4724 59.4975 13.9698 58.995C9.84924 54.9749 5.82916 50.8543 1.70855 46.8342C0.402022 45.5276 0.402022 43.8191 1.70855 42.6131C3.11559 41.1055 4.62312 39.6985 6.13066 38.2915C7.03518 37.3869 8.04021 37.1859 9.14573 37.5879C9.54774 37.6884 9.74874 37.5879 9.94974 37.3869C10.8543 36.4824 11.8593 35.5779 12.7638 34.5729C13.7689 33.4673 14.7739 32.3618 15.5779 31.1558C16.5829 29.7487 16.9849 28.2412 16.8844 26.5327C16.8844 25.7286 17.0854 25.0251 17.1859 24.2211C17.2864 23.9196 17.2864 23.7186 16.9849 23.4171C16.1809 22.7136 15.4774 21.9095 14.7739 21.206C14.4724 20.9045 14.1709 20.804 13.7689 21.005C8.04021 22.9146 1.80903 19.598 0.301495 13.7688C0.200993 13.2663 0.100502 12.7638 0 12.2613C0 11.4573 0 10.6533 0 9.74874C0.201005 9.04522 0.301514 8.34171 0.603021 7.73869C0.904529 6.93467 1.60803 6.53266 2.31155 6.73367C2.91456 6.93467 3.41707 7.33668 3.81908 7.73869C5.32662 9.24623 6.83416 10.7538 8.34169 12.2613C9.14571 13.0653 10.2512 13.2663 11.3568 12.9648C12.3618 12.6633 12.7638 11.9598 12.9648 11.0553C13.1658 10.0502 12.8643 9.14573 12.0603 8.34171C10.5528 6.83417 9.04523 5.42713 7.6382 3.9196C7.33669 3.61809 7.03516 3.31658 6.83416 2.91457C6.33164 2.11055 6.63316 1.20603 7.43718 0.703517C7.73869 0.502512 8.1407 0.40201 8.54271 0.301507C9.14573 0.201005 9.64825 0.100502 10.2513 0C10.5528 0 11.0553 0 11.5578 0ZM25.9296 32.4623C25.7286 32.6633 25.6281 32.7638 25.6281 32.8643C25.5276 32.9648 25.4271 33.0653 25.3266 33.1658C24.9246 33.5678 24.4221 33.6683 24.0201 33.2663C23.6181 32.8643 23.6181 32.4623 24.0201 31.8593C24.6231 30.9548 25.3266 30.1507 25.7286 29.1457C26.3317 27.7387 26.3317 26.2312 25.2261 24.9246C24.8241 24.4221 24.8241 23.9196 25.2261 23.6181C25.6281 23.3166 26.1306 23.3166 26.5327 23.7186C27.2362 24.4221 27.9397 25.0251 28.5427 25.7286C29.4472 26.6332 30.5528 27.2362 31.7588 27.6382C32.7638 27.9397 33.7688 28.0402 34.7739 27.6382C35.6784 27.2362 35.7789 26.6332 35.1759 25.9296C34.9749 25.7286 34.8744 25.5276 34.6734 25.4271C32.0603 22.8141 29.4472 20.201 26.7337 17.4874C26.2312 16.9849 25.7286 16.9849 25.2261 17.4874C23.5176 19.196 21.809 20.9045 20.1005 22.6131C19.0955 23.6181 18.593 24.9246 18.593 26.4322C18.593 27.0352 18.593 27.5377 18.4925 28.1407C18.1909 30.3518 17.0854 32.2613 15.6784 33.8693C14.2714 35.4774 12.6633 36.9849 11.1558 38.4925C11.0553 38.6935 10.8543 38.794 10.6533 38.995C10.9548 39.196 11.1558 39.397 11.3568 39.4975C12.3618 40.5025 13.4673 41.608 14.4724 42.6131C15.0754 43.2161 14.8744 44.0201 14.0703 44.1206C13.7688 44.1206 13.3668 43.9196 13.0653 43.7186C11.6583 42.4121 10.3518 41.005 8.94472 39.6985C8.2412 38.995 7.63818 38.995 6.93467 39.6985C5.62813 41.005 4.2211 42.4121 2.91457 43.7186C2.11055 44.5226 2.11055 45.0251 2.91457 45.7286C6.93467 49.7487 10.9548 53.6683 14.8744 57.6884C15.5779 58.3919 16.1809 58.3919 16.8844 57.6884C18.1909 56.3819 19.598 54.9749 20.9045 53.6683C21.608 52.9648 21.608 52.3618 20.9045 51.6583C19.397 50.1507 17.8894 48.6432 16.4824 47.2362C16.3819 47.1357 16.2814 47.0352 16.1809 46.9347C15.7789 46.5327 15.7789 46.0301 16.0804 45.6281C16.4824 45.2261 16.9849 45.2261 17.3869 45.7286C18.6935 47.0352 20 48.3417 21.3065 49.6482C21.407 49.7487 21.608 49.9497 21.8091 50.0502C23.3166 48.5427 24.8241 47.0352 26.3317 45.5276C27.0352 44.8241 27.6382 44.2211 28.4422 43.6181C29.2462 42.9146 30.2513 42.6131 31.3568 42.7136C31.7588 42.7136 32.0603 42.8141 32.4623 42.9146C33.6683 43.2161 34.7738 42.9146 35.9799 42.4121C32.6633 39.196 29.3467 35.7789 25.9296 32.4623ZM8.4422 2.21105C8.4422 2.31156 8.34169 2.41206 8.34169 2.41206C8.5427 2.51256 8.7437 2.61306 8.84421 2.81407C10.3517 4.32161 11.8593 5.82914 13.3668 7.33668C15.4774 9.54774 14.9749 13.6683 11.9598 14.6734C10.0502 15.2764 8.34169 14.9749 6.83416 13.4673C5.32662 11.9598 3.91959 10.4523 2.41205 9.04522C2.31155 8.94472 2.11055 8.84422 2.01005 8.64321C1.50754 10.0502 1.50753 11.3568 1.80903 12.7638C2.91456 18.2915 8.54272 21.3065 13.7689 19.196C14.3719 18.8945 14.8744 18.995 15.3769 19.4975C16.2814 20.5025 17.1859 21.407 17.9899 22.2111C19.397 20.9045 20.7035 19.598 22.01 18.392C21.1055 17.4874 20.201 16.5829 19.2965 15.6784C18.794 15.1759 18.6935 14.7739 18.995 14.0703C19.6985 12.5628 19.799 10.9548 19.598 9.34673C18.794 4.62311 14.5728 1.50754 9.84923 2.01005C9.34672 2.01005 8.94472 2.11055 8.4422 2.21105ZM38.593 32.0603C39.0955 31.8593 39.598 31.7588 40 31.4573C41.3065 30.2513 42.5126 29.0452 43.7186 27.7387C44.5226 26.9347 44.3216 25.5276 43.5176 24.7236C42.7135 23.9196 41.3065 23.8191 40.5025 24.5226C39.196 25.7286 37.9899 26.9347 36.7839 28.2412C36.1809 28.9447 36.0804 29.8492 36.4824 30.6533C36.8844 31.5578 37.5879 31.9598 38.593 32.0603ZM46.1306 28.7437C45.5276 28.7437 45.0251 28.9447 44.6231 29.4472C43.3166 30.7538 42.01 32.0603 40.7035 33.3668C39.799 34.2714 39.799 35.3769 40.603 36.1809C41.407 36.9849 42.5126 36.8844 43.4171 36.0804C44.1206 35.3769 44.8241 34.6734 45.5276 33.9698C46.2311 33.2663 46.9347 32.6633 47.5377 31.9598C48.1407 31.3568 48.2412 30.6533 47.9397 29.8492C47.5377 29.1457 46.9347 28.7437 46.1306 28.7437ZM37.0854 25.4271C38.0904 24.4221 39.0955 23.5176 40 22.5126C40.804 21.608 40.7035 20.3015 39.8995 19.397C39.0955 18.593 37.6884 18.392 36.8844 19.196C35.8794 20.1005 34.9749 21.1055 34.0703 22.1105C34.9749 23.2161 35.9799 24.3216 37.0854 25.4271ZM32.5628 20.7035C33.4673 19.799 34.5728 18.8945 35.4774 17.8894C36.1809 17.0854 36.0804 15.6784 35.2764 14.9749C34.4724 14.1709 33.1658 13.9698 32.2613 14.7739C31.2563 15.6784 30.3517 16.7839 29.4472 17.6884C30.5527 18.593 31.5578 19.6985 32.5628 20.7035Z" fill="white"/>
</svg>
