<svg width="60" height="61" viewBox="0 0 60 61" fill="none" xmlns="http://www.w3.org/2000/svg">
<path d="M30.4496 0C32.4479 1.29892 34.4463 2.69775 36.5446 3.99667C36.8443 4.1965 37.144 4.29642 37.4438 4.29642C39.6419 4.1965 41.7402 4.09659 43.9384 3.99667C44.8376 3.89675 45.4371 4.1965 45.8368 5.09575C46.7361 6.99417 47.7353 8.89259 48.7344 10.8909C48.8343 11.1907 49.134 11.4904 49.4338 11.5903C51.3322 12.5895 53.3306 13.5887 55.229 14.4879C56.1283 14.9875 56.3281 15.2873 56.2282 16.2864C56.1283 18.4846 55.9284 20.7827 55.8285 22.9809C55.8285 23.1807 55.9284 23.4804 56.0283 23.6803C57.2273 25.4788 58.4263 27.3772 59.6253 29.1757C60.1249 29.8751 60.1249 30.4746 59.6253 31.174C58.4263 32.9725 57.2273 34.8709 56.0283 36.6695C55.8285 36.8693 55.8285 37.2689 55.8285 37.5687C55.9284 39.8668 56.1283 42.065 56.2282 44.363C56.2282 45.0625 55.9284 45.4621 55.3289 45.7619C53.3306 46.761 51.3322 47.7602 49.3339 48.7594C49.0341 48.8593 48.8343 49.159 48.6345 49.4588C47.6353 51.3572 46.6362 53.2556 45.7369 55.254C45.3373 56.0533 44.7377 56.453 43.8385 56.3531C41.7402 56.1532 39.542 56.0533 37.4438 55.9534C37.144 55.9534 36.7444 56.0533 36.5446 56.1532C34.7461 57.3522 32.8476 58.5512 31.0491 59.7502C30.3497 60.2498 29.7502 60.2498 29.0508 59.7502C27.2523 58.5512 25.4538 57.3522 23.5554 56.1532C23.3556 55.9534 22.9559 55.9534 22.6561 55.9534C20.4579 56.0533 18.3597 56.1532 16.1615 56.3531C15.2623 56.453 14.6628 56.0533 14.2631 55.254C13.3639 53.3556 12.3647 51.4571 11.3655 49.5587C11.2656 49.259 10.9659 48.9592 10.6661 48.8593C8.76768 47.8601 6.76936 46.861 4.87094 45.9617C4.17152 45.562 3.77186 45.0625 3.87177 44.2631C3.97169 42.065 4.17152 39.8668 4.27144 37.6686C4.27144 37.3689 4.17153 36.9692 3.9717 36.7694C2.7727 34.9709 1.57369 33.1724 0.374688 31.3739C-0.124896 30.6744 -0.124896 30.0749 0.374688 29.3755C1.57369 27.577 2.7727 25.7785 3.9717 23.98C4.17153 23.6803 4.27144 23.3805 4.27144 23.0808C4.17152 20.8826 4.07161 18.6844 3.87177 16.4863C3.77186 15.587 4.17153 15.0874 4.97086 14.6878C6.86928 13.7885 8.76768 12.7893 10.6661 11.7902C10.9659 11.6903 11.2656 11.3905 11.3655 11.0908C12.3647 9.19234 13.3639 7.29392 14.2631 5.3955C14.6628 4.59617 15.1624 4.29642 16.0616 4.29642C18.2598 4.49625 20.4579 4.59617 22.6561 4.69609C22.8559 4.69609 23.1557 4.69609 23.3555 4.59617C25.4538 3.19734 27.5521 1.7985 29.5504 0.499584C29.9501 0 30.2498 0 30.4496 0ZM40.0417 53.3555C41.0408 53.4555 42.04 53.4555 43.0392 53.5554C43.5387 53.6553 43.8385 53.4555 44.1382 52.9559C44.9375 51.1574 45.8368 49.4588 46.836 47.6603C47.0358 47.2606 47.4355 46.861 47.935 46.5612C49.7335 45.562 51.632 44.6628 53.4305 43.7635C53.7302 43.6636 53.8302 43.4638 53.8302 43.164C53.7302 41.0658 53.5304 38.9675 53.5304 36.8693C53.5304 36.4696 53.6303 35.97 53.8302 35.5704C54.9292 33.7719 56.1283 32.0733 57.2273 30.3747C57.4272 30.0749 57.4272 29.8751 57.2273 29.5754C56.0283 27.8768 54.9292 26.1782 53.8302 24.3797C53.6303 24.0799 53.4305 23.5804 53.4305 23.1807C53.5304 21.0824 53.6303 18.9842 53.7303 16.8859C53.7303 16.4863 53.6303 16.2864 53.3306 16.0866C51.5321 15.1873 49.6336 14.2881 47.8351 13.2889C47.4355 13.0891 47.0358 12.6894 46.836 12.2898C45.9367 10.4913 45.0375 8.69276 44.1382 6.89426C43.9384 6.49459 43.7386 6.29476 43.239 6.39467C41.2407 6.49459 39.1424 6.69442 37.0441 6.69442C36.6445 6.69442 36.1449 6.59451 35.7452 6.29475C34.0467 5.19567 32.348 4.09659 30.6495 2.89759C30.3497 2.69775 30.1499 2.69775 29.8501 2.89759C28.1515 3.99667 26.453 5.19567 24.7544 6.29475C24.3547 6.49459 23.8551 6.69442 23.3555 6.69442C21.2573 6.59451 19.2589 6.49459 17.1607 6.39467C16.761 6.39467 16.4613 6.49459 16.3614 6.89426C15.4621 8.69276 14.5629 10.3913 13.7636 12.0899C13.4638 12.6894 13.0641 13.0891 12.4646 13.3888C10.766 14.1882 9.06744 15.0874 7.26894 15.9867C6.86927 16.1865 6.66944 16.4863 6.76935 16.8859C6.86927 18.8843 6.96918 20.8826 7.16902 22.8809C7.16902 23.4804 7.0691 23.8801 6.76935 24.3797C5.67027 26.0783 4.57119 27.7769 3.37219 29.4754C3.17236 29.7752 3.17236 29.975 3.37219 30.2748C4.47127 31.9734 5.57035 33.6719 6.66943 35.2706C6.96918 35.7702 7.16902 36.2698 7.16902 36.8693C7.0691 38.8676 6.96919 40.866 6.76935 42.8643C6.76935 43.3639 6.86927 43.5637 7.26894 43.7635C9.06744 44.6628 10.8659 45.562 12.6644 46.4613C13.0641 46.6611 13.4638 47.0608 13.6636 47.4605C14.6628 49.259 15.562 51.0575 16.4613 52.9559C16.6611 53.3555 16.861 53.4555 17.2606 53.3555C19.259 53.2556 21.3572 53.0558 23.4554 53.0558C23.955 53.0558 24.4546 53.1557 24.8543 53.4555C26.5529 54.5545 28.2514 55.6536 29.95 56.8526C30.2498 57.0525 30.4497 57.0525 30.7494 56.8526C32.448 55.7536 34.1466 54.5545 35.8451 53.4555C36.2448 53.2556 36.7444 53.0558 37.144 53.0558C37.9434 53.2556 39.0425 53.3555 40.0417 53.3555Z" fill="white"/>
<path d="M30.0497 48.7594C19.5584 48.6595 11.3652 40.3664 11.3652 29.975C11.3652 19.3838 19.9581 11.2906 30.1496 11.2906C40.5409 11.3905 48.834 19.6836 48.834 29.975C48.834 40.2664 40.5409 48.6595 30.0497 48.7594ZM13.963 30.0749C13.963 38.9675 21.257 46.2615 30.1496 46.2615C39.1421 46.1615 46.3361 39.0674 46.3361 30.0749C46.3361 20.9825 39.0422 13.8884 30.1496 13.8884C21.1571 13.7885 13.8631 21.1823 13.963 30.0749Z" fill="white"/>
<path d="M27.6525 33.0724C28.0521 32.7727 28.252 32.4729 28.4518 32.2731C31.1495 29.7752 33.7474 27.2772 36.4451 24.7793C36.7449 24.4796 37.0446 24.2797 37.4443 24.1798C37.9439 24.0799 38.3436 24.2797 38.6433 24.7793C38.9431 25.179 38.9431 25.6786 38.6433 26.0782C38.5434 26.2781 38.3436 26.378 38.2437 26.5778C35.1463 29.4754 32.0488 32.4729 28.9514 35.3705C28.0521 36.2698 27.4527 36.1698 26.5534 35.2706C24.9547 33.6719 23.456 32.0732 21.8573 30.4746C21.2578 29.8751 21.1579 29.2756 21.4576 28.776C21.9572 27.9767 22.8565 27.8767 23.6558 28.6761C24.8548 29.975 26.1537 31.174 27.3527 32.4729C27.4526 32.5728 27.5526 32.7727 27.6525 33.0724Z" fill="white"/>
</svg>
