<?xml version="1.0" encoding="utf-8"?>
<!-- Generator: Adobe Illustrator 19.0.0, SVG Export Plug-In . SVG Version: 6.00 Build 0)  -->
<svg version="1.1" id="Layer_1" xmlns="http://www.w3.org/2000/svg" xmlns:xlink="http://www.w3.org/1999/xlink" x="0px" y="0px"
	 viewBox="-487 489 24 24" style="enable-background:new -487 489 24 24;" xml:space="preserve">
<style type="text/css">
	.st0{fill:none;stroke:#FFFFFF;stroke-width:2;stroke-linecap:round;stroke-linejoin:round;}
</style>
<path class="st0" d="M-480,505.3c2.2,0,4-1.8,4-4c0-1.2-0.6-2.3-1.7-3.2c-1.1-0.9-2-2.3-2.3-3.8c-0.3,1.5-1.1,2.8-2.3,3.8
	c-1.1,0.9-1.7,2-1.7,3.2C-484,503.5-482.2,505.3-480,505.3z"/>
<path class="st0" d="M-474.4,495.6c0.7-1.1,1.2-2.3,1.4-3.6c0.5,2.5,2,4.9,4,6.5c2,1.6,3,3.5,3,5.5c0,3.9-3.1,7-7,7
	c-1.9,0-3.6-0.7-5-2"/>
</svg>
