<?xml version="1.0" encoding="UTF-8"?>
<svg id="logo_concepts" data-name="logo concepts" xmlns="http://www.w3.org/2000/svg" xmlns:xlink="http://www.w3.org/1999/xlink" viewBox="0 0 920.39 435.25">
  <defs>
    <style>
      .cls-1 {
        fill: url(#linear-gradient-5);
      }

      .cls-2 {
        fill: url(#linear-gradient-4);
      }

      .cls-3 {
        fill: url(#linear-gradient-3);
      }

      .cls-4 {
        fill: url(#linear-gradient-2);
      }

      .cls-5 {
        fill: url(#linear-gradient);
      }

      .cls-6 {
        fill: #abaeb1;
      }
    </style>
    <linearGradient id="linear-gradient" x1="461.51" y1="413.81" x2="461.51" y2="359.9" gradientUnits="userSpaceOnUse">
      <stop offset="0" stop-color="#141414"/>
      <stop offset=".5" stop-color="#505254"/>
      <stop offset="1" stop-color="#2d2f30"/>
    </linearGradient>
    <linearGradient id="linear-gradient-2" x1="460.18" y1="322.59" x2="460.18" y2="232.22" xlink:href="#linear-gradient"/>
    <linearGradient id="linear-gradient-3" x1="480.26" y1="299.28" x2="480.26" y2="85.29" gradientTransform="translate(-31.49 -63.01) rotate(-1.55)" gradientUnits="userSpaceOnUse">
      <stop offset="0" stop-color="#603314"/>
      <stop offset=".5" stop-color="#dd9043"/>
      <stop offset=".8" stop-color="#efb167"/>
      <stop offset=".88" stop-color="#f7b562"/>
      <stop offset="1" stop-color="#ffba5f"/>
    </linearGradient>
    <linearGradient id="linear-gradient-4" x1="681.32" y1="390.91" x2="900.73" y2="390.91" xlink:href="#linear-gradient"/>
    <linearGradient id="linear-gradient-5" x1="20.66" y1="390.91" x2="240.07" y2="390.91" xlink:href="#linear-gradient"/>
  </defs>
  <g id="main_logo" data-name="main logo">
    <path class="cls-5" d="M306.56,390.91c1.12,1.81,1.68,4.06,1.68,6.74,0,2.93-.81,5.61-2.42,8.04-1.61,2.43-4.06,4.39-7.33,5.88-3.28,1.49-7.37,2.23-12.29,2.23-4.17,0-8.18-.56-12.03-1.68-3.85-1.12-6.94-2.57-9.27-4.36l4.1-9.08c2.18,1.59,4.81,2.89,7.89,3.91,3.08,1.02,6.18,1.53,9.31,1.53,2.38,0,4.31-.25,5.77-.75,1.46-.5,2.54-1.15,3.24-1.97.69-.82,1.04-1.77,1.04-2.87,0-1.39-.55-2.49-1.64-3.31-1.09-.82-2.54-1.49-4.36-2.01-1.81-.52-3.79-1.02-5.92-1.49-2.13-.47-4.28-1.04-6.44-1.71-2.16-.67-4.15-1.56-5.96-2.68-1.81-1.12-3.25-2.58-4.32-4.39-1.07-1.81-1.6-4.08-1.6-6.81,0-2.98.79-5.7,2.38-8.15,1.59-2.46,4.01-4.42,7.26-5.88,3.25-1.46,7.33-2.2,12.25-2.2,3.28,0,6.52.4,9.72,1.19,3.2.79,5.99,1.94,8.38,3.43l-3.8,9.08c-2.33-1.34-4.74-2.34-7.22-3.02-2.48-.67-4.87-1-7.15-1s-4.29.26-5.73.78c-1.44.52-2.49,1.23-3.17,2.12-.67.89-1,1.89-1,2.98,0,1.39.55,2.51,1.64,3.35,1.09.84,2.53,1.5,4.32,1.97,1.79.47,3.77.94,5.96,1.42,2.18.47,4.34,1.05,6.48,1.75,2.13.7,4.1,1.58,5.88,2.64,1.79,1.07,3.24,2.51,4.36,4.32ZM364.83,360.79l-13.95,23.08-13.9-23.08h-12.88l20.25,33.56v18.56h12.14v-18.59l20.1-33.53h-11.76ZM445.39,373.11c2.43,3.9,3.65,8.48,3.65,13.74s-1.22,9.84-3.65,13.74c-2.43,3.9-5.81,6.92-10.13,9.08-4.32,2.16-9.31,3.24-14.97,3.24h-23.68v-52.12h23.68c5.66,0,10.65,1.08,14.97,3.24s7.69,5.19,10.13,9.08ZM436.83,386.85c0-3.33-.71-6.2-2.12-8.64-1.41-2.43-3.4-4.31-5.96-5.62-2.56-1.32-5.57-1.97-9.05-1.97h-10.95v32.47h10.95c3.47,0,6.49-.66,9.05-1.97,2.56-1.32,4.54-3.2,5.96-5.66s2.12-5.32,2.12-8.6ZM508.91,392.41l-25.91-31.62h-9.98v52.12h11.91v-31.62l25.91,31.62h9.98v-52.12h-11.91v31.62ZM560.06,391.17h24.2v-9.46h-24.2v-11.24h27.4v-9.68h-39.39v52.12h40.36v-9.68h-28.37v-12.06ZM658.13,360.79h-11.76l-13.95,23.08-13.9-23.08h-12.88l20.25,33.56v18.56h12.14v-18.59l20.1-33.53Z"/>
    <path class="cls-4" d="M103.36,232.22c11.9,0,21.05,9.16,21.05,21.04,0,7.34-3.68,13.54-9.26,16.9,7.09,3.14,11.89,10.18,11.89,18.7,0,11.88-9.15,21.04-21.04,21.04H20.66v-77.69h82.71ZM41.41,264.97h54.33c4.47,0,7.91-3.45,7.91-7.91s-3.44-7.91-7.91-7.91h-54.33v15.82ZM41.41,292.97h56.96c4.47,0,7.91-3.44,7.91-7.91s-3.44-7.91-7.91-7.91h-56.96v15.82ZM220.32,232.22c11.9,0,21.05,9.16,21.05,21.04,0,7.34-3.68,13.54-9.26,16.9,7.09,3.14,11.89,10.18,11.89,18.7,0,11.88-9.15,21.04-21.04,21.04h-85.33v-77.69h82.71ZM158.37,264.97h54.33c4.47,0,7.91-3.45,7.91-7.91s-3.44-7.91-7.91-7.91h-54.33v15.82ZM158.37,292.97h56.96c4.47,0,7.91-3.44,7.91-7.91s-3.44-7.91-7.91-7.91h-56.96v15.82ZM331.73,232.22c21.96,0,38.84,16.92,38.84,38.84s-16.89,38.85-38.84,38.85h-6.25l12.07,12.69h-20.95l-12.08-12.69h-11.11c-21.96,0-38.84-16.92-38.84-38.85s16.89-38.84,38.84-38.84h38.31ZM275.33,271.06c0,12.37,9.53,21.91,21.91,21.91h30.67c12.39,0,21.91-9.54,21.91-21.91s-9.53-21.91-21.91-21.91h-30.67c-12.39,0-21.91,9.54-21.91,21.91ZM514.06,232.22c14.5,0,25.64,11.17,25.64,25.64s-11.15,25.64-25.64,25.64h-61.48v26.4h-20.75v-77.69h82.24ZM452.58,266.57h57.66c4.92,0,8.71-3.79,8.71-8.71s-3.79-8.71-8.71-8.71h-57.66v17.42ZM627.39,232.22c21.96,0,38.84,16.92,38.84,38.84s-16.89,38.85-38.84,38.85h-38.31c-21.96,0-38.84-16.92-38.84-38.85s16.89-38.84,38.84-38.84h38.31ZM570.99,271.06c0,12.37,9.53,21.91,21.91,21.91h30.67c12.39,0,21.91-9.54,21.91-21.91s-9.53-21.91-21.91-21.91h-30.67c-12.39,0-21.91,9.54-21.91,21.91ZM745.78,232.22c21.96,0,38.84,16.92,38.84,38.84s-16.89,38.85-38.84,38.85h-69.04v-77.69h69.04ZM697.49,292.97h44.46c12.39,0,21.91-9.54,21.91-21.91s-9.53-21.91-21.91-21.91h-44.46v43.82ZM896.55,232.22v16.93h-73.93c-3.8,0-6.72,2.93-6.72,6.72s2.92,6.72,6.72,6.72h53.41c13.37,0,23.66,10.3,23.66,23.66s-10.28,23.66-23.66,23.66h-79.6v-16.93h75.78c3.8,0,6.72-2.93,6.72-6.72s-2.92-6.72-6.72-6.72h-53.41c-13.37,0-23.66-10.3-23.66-23.66s10.28-23.66,23.66-23.66h77.75Z"/>
    <path class="cls-3" d="M452.69,223.24l-1.12-1.87c-7.87-11.09-20.53-17.31-30.77-25.98-17.99-15.24-30.48-37.24-24.67-61.54,5.68-23.74,25.58-33.92,39.46-51.86,15.15-19.59,21.6-43.9,7.21-66.07l-4.55-6.35c2.99,1.44,5.91,3.11,8.65,4.99,12.77,8.75,22.54,22.45,28.23,36.76,9.14,23.01,8.11,46.88-3.49,68.73-12.16,22.92-37.88,41.55-29.95,70.86,1.58,5.85,4.41,11.26,6.69,16.84,2.01,4.92,4.14,10.12,4.31,15.5ZM481.98,191.03c3.29-3.2,7.04-5.93,10.42-9.03,27.46-25.22,27.21-61.61,8.96-92.41-2.6-4.38-5.7-8.69-9.49-12.1-.24.12,0,.54.06.73,6.48,18.45,1.11,36.19-8.44,52.33-8.31,14.05-19.91,25.13-25.1,41.15-4.57,14.12-2.96,30.27,6.14,42.21-5.51-15.91.36-32.47,9.17-45.85,2.39-3.63,5.1-7.24,8.14-10.34l-4.8,8.46c-6.93,13.15-11.68,29.74-7.27,44.49.06.2-.02.48.26.41,1.67-7.91,6.24-14.48,11.95-20.02Z"/>
    <polygon class="cls-2" points="681.32 397.77 681.32 384.05 900.73 390.91 681.32 397.77"/>
    <polygon class="cls-1" points="240.07 397.77 20.66 390.91 240.07 384.05 240.07 397.77"/>
    <path class="cls-6" d="M247.54,205.65c36.18-37.16,85.78-64.88,142.71-77.83,2.62-8.17,6.73-14.81,11.51-20.67-64.35,14.1-119.07,50.08-154.22,98.51Z"/>
    <path class="cls-6" d="M674.49,203.97c-35.84-49.26-92.07-85.08-157.6-98.04,2.11,6.31,3.51,12.67,4.16,18.98,61.36,11.14,115.12,39.55,153.44,79.06Z"/>
  </g>
</svg>