<?xml version="1.0" encoding="utf-8"?>
<!-- Generator: Adobe Illustrator 19.0.0, SVG Export Plug-In . SVG Version: 6.00 Build 0)  -->
<svg version="1.1" id="logo_concepts" xmlns="http://www.w3.org/2000/svg" xmlns:xlink="http://www.w3.org/1999/xlink" x="0px"
	 y="0px" viewBox="154 179.7 920.4 435.3" style="enable-background:new 154 179.7 920.4 435.3;" xml:space="preserve">
<style type="text/css">
	.st0{fill:#FFFFFF;}
	.st1{fill:url(#SVGID_1_);}
</style>
<g>
	<path class="st0" d="M460.1,576.7c1.1,1.8,1.7,4.1,1.7,6.7c0,2.9-0.8,5.6-2.4,8s-4.1,4.4-7.3,5.9c-3.3,1.5-7.4,2.2-12.3,2.2
		c-4.2,0-8.2-0.6-12-1.7c-3.8-1.1-6.9-2.6-9.3-4.4l4.1-9.1c2.2,1.6,4.8,2.9,7.9,3.9s6.2,1.5,9.3,1.5c2.4,0,4.3-0.3,5.8-0.8
		s2.5-1.1,3.2-2c0.7-0.8,1-1.8,1-2.9c0-1.4-0.5-2.5-1.6-3.3c-1.1-0.8-2.5-1.5-4.4-2c-1.8-0.5-3.8-1-5.9-1.5s-4.3-1-6.4-1.7
		c-2.1-0.7-4.1-1.6-6-2.7c-1.9-1.1-3.3-2.6-4.3-4.4c-1.1-1.8-1.6-4.1-1.6-6.8c0-3,0.8-5.7,2.4-8.1c1.6-2.5,4-4.4,7.3-5.9
		s7.3-2.2,12.3-2.2c3.3,0,6.5,0.4,9.7,1.2c3.2,0.8,6,1.9,8.4,3.4l-3.8,9.1c-2.3-1.3-4.7-2.3-7.2-3c-2.5-0.7-4.9-1-7.1-1
		s-4.3,0.3-5.7,0.8s-2.5,1.2-3.2,2.1s-1,1.9-1,3c0,1.4,0.5,2.5,1.6,3.3c1.1,0.8,2.5,1.5,4.3,2s3.8,0.9,6,1.4s4.3,1,6.5,1.8
		c2.1,0.7,4.1,1.6,5.9,2.6C457.5,573.4,459,574.9,460.1,576.7L460.1,576.7z M518.3,546.5l-13.9,23.1l-13.9-23.1h-12.9l20.3,33.6
		v18.6H510v-18.6l20.1-33.5L518.3,546.5L518.3,546.5z M598.9,558.9c2.4,3.9,3.7,8.5,3.7,13.7c0,5.2-1.2,9.8-3.7,13.7
		s-5.8,6.9-10.1,9.1c-4.3,2.2-9.3,3.2-15,3.2h-23.7v-52.1h23.7c5.7,0,10.6,1.1,15,3.2C593.1,551.9,596.5,555,598.9,558.9
		L598.9,558.9z M590.3,572.6c0-3.3-0.7-6.2-2.1-8.6c-1.4-2.4-3.4-4.3-6-5.6c-2.6-1.3-5.6-2-9-2h-11v32.5h11c3.5,0,6.5-0.7,9-2
		c2.6-1.3,4.5-3.2,6-5.7C589.6,578.8,590.3,575.9,590.3,572.6L590.3,572.6z M662.4,578.2l-25.9-31.7h-10v52.1h11.9V567l25.9,31.6h10
		v-52.1h-11.9V578.2z M713.6,576.9h24.2v-9.5h-24.2v-11.2H741v-9.7h-39.4v52.1H742V589h-28.4V576.9L713.6,576.9z M811.6,546.5h-11.8
		l-14,23.1l-13.9-23.1H759l20.3,33.6v18.6h12.2v-18.6L811.6,546.5L811.6,546.5z"/>
	<path class="st0" d="M256.9,418c11.9,0,21.1,9.2,21.1,21c0,7.3-3.7,13.5-9.3,16.9c7.1,3.1,11.9,10.2,11.9,18.7c0,11.9-9.1,21-21,21
		h-85.3V418H256.9L256.9,418z M194.9,450.7h54.3c4.5,0,7.9-3.5,7.9-7.9s-3.4-7.9-7.9-7.9h-54.3C194.9,434.9,194.9,450.7,194.9,450.7
		z M194.9,478.7h57c4.5,0,7.9-3.4,7.9-7.9s-3.4-7.9-7.9-7.9h-57V478.7z M373.8,418c11.9,0,21,9.2,21,21c0,7.3-3.7,13.5-9.3,16.9
		c7.1,3.1,11.9,10.2,11.9,18.7c0,11.9-9.1,21-21,21h-85.3V418H373.8L373.8,418z M311.9,450.7h54.3c4.5,0,7.9-3.5,7.9-7.9
		s-3.4-7.9-7.9-7.9h-54.3V450.7z M311.9,478.7h57c4.5,0,7.9-3.4,7.9-7.9s-3.4-7.9-7.9-7.9h-57V478.7z M485.2,418
		c22,0,38.8,16.9,38.8,38.8s-16.9,38.9-38.8,38.9h-6.3l12.1,12.7h-21l-12.1-12.7h-11.1c-22,0-38.8-16.9-38.8-38.9
		s16.9-38.8,38.8-38.8H485.2L485.2,418z M428.8,456.8c0,12.4,9.5,21.9,21.9,21.9h30.7c12.4,0,21.9-9.5,21.9-21.9
		s-9.5-21.9-21.9-21.9h-30.7C438.3,434.9,428.8,444.4,428.8,456.8z M667.6,418c14.5,0,25.6,11.2,25.6,25.6s-11.2,25.6-25.6,25.6
		h-61.5v26.4h-20.8V418H667.6L667.6,418z M606.1,452.3h57.7c4.9,0,8.7-3.8,8.7-8.7s-3.8-8.7-8.7-8.7h-57.7V452.3L606.1,452.3z
		 M780.9,418c22,0,38.8,16.9,38.8,38.8s-16.9,38.9-38.8,38.9h-38.3c-22,0-38.8-16.9-38.8-38.9s16.9-38.8,38.8-38.8H780.9z
		 M724.5,456.8c0,12.4,9.5,21.9,21.9,21.9h30.7c12.4,0,21.9-9.5,21.9-21.9s-9.5-21.9-21.9-21.9h-30.7
		C734,434.9,724.5,444.4,724.5,456.8z M899.3,418c22,0,38.8,16.9,38.8,38.8s-16.9,38.9-38.8,38.9h-69V418H899.3z M851,478.7h44.5
		c12.4,0,21.9-9.5,21.9-21.9s-9.5-21.9-21.9-21.9H851V478.7z M1050.1,418v16.9h-73.9c-3.8,0-6.7,2.9-6.7,6.7c0,3.8,2.9,6.7,6.7,6.7
		h53.4c13.4,0,23.7,10.3,23.7,23.7s-10.3,23.7-23.7,23.7H950v-16.9h75.8c3.8,0,6.7-2.9,6.7-6.7c0-3.8-2.9-6.7-6.7-6.7h-53.4
		c-13.4,0-23.7-10.3-23.7-23.7S959,418,972.4,418L1050.1,418L1050.1,418z"/>
	
		<linearGradient id="SVGID_1_" gradientUnits="userSpaceOnUse" x1="629.2441" y1="338.8159" x2="629.2441" y2="552.9344" gradientTransform="matrix(0.9996 -2.704930e-002 -2.704930e-002 -0.9996 -9.6335 764.5928)">
		<stop  offset="0" style="stop-color:#603314"/>
		<stop  offset="0.5" style="stop-color:#DD9043"/>
		<stop  offset="0.8" style="stop-color:#EFB167"/>
		<stop  offset="0.88" style="stop-color:#F7B562"/>
		<stop  offset="1" style="stop-color:#FFBA5F"/>
	</linearGradient>
	<path class="st1" d="M606.2,409l-1.1-1.9c-7.9-11.1-20.5-17.3-30.8-26c-18-15.2-30.5-37.2-24.7-61.5c5.7-23.7,25.6-33.9,39.5-51.9
		c15.2-19.6,21.6-43.9,7.2-66.1l-4.5-6.4c3,1.4,5.9,3.1,8.7,5c12.8,8.8,22.5,22.5,28.2,36.8c9.1,23,8.1,46.9-3.5,68.7
		c-12.2,22.9-37.9,41.6-30,70.9c1.6,5.9,4.4,11.3,6.7,16.8C603.9,398.4,606,403.6,606.2,409L606.2,409z M635.5,376.8
		c3.3-3.2,7-5.9,10.4-9c27.5-25.2,27.2-61.6,9-92.4c-2.6-4.4-5.7-8.7-9.5-12.1c-0.2,0.1,0,0.5,0.1,0.7c6.5,18.4,1.1,36.2-8.4,52.3
		c-8.3,14.1-19.9,25.1-25.1,41.2c-4.6,14.1-3,30.3,6.1,42.2c-5.5-15.9,0.4-32.5,9.2-45.9c2.4-3.6,5.1-7.2,8.1-10.3l-4.8,8.5
		c-6.9,13.2-11.7,29.7-7.3,44.5c0.1,0.2,0,0.5,0.3,0.4C625.2,388.9,629.8,382.4,635.5,376.8L635.5,376.8z"/>
	<polygon class="st0" points="834.8,583.5 834.8,569.8 1054.2,576.7 	"/>
	<polygon class="st0" points="393.6,583.5 174.2,576.7 393.6,569.8 	"/>
	<path class="st0" d="M401,391.4c36.2-37.2,85.8-64.9,142.7-77.8c2.6-8.2,6.7-14.8,11.5-20.7C490.9,307,436.2,343,401,391.4
		L401,391.4z"/>
	<path class="st0" d="M828,389.7c-35.8-49.3-92.1-85.1-157.6-98c2.1,6.3,3.5,12.7,4.2,19C735.9,321.8,789.7,350.2,828,389.7z"/>
</g>
</svg>
