<?xml version="1.0" encoding="utf-8"?>
<!-- Generator: Adobe Illustrator 19.0.0, SVG Export Plug-In . SVG Version: 6.00 Build 0)  -->
<svg version="1.1" id="Layer_1" xmlns="http://www.w3.org/2000/svg" xmlns:xlink="http://www.w3.org/1999/xlink" x="0px" y="0px"
	 viewBox="-95 313.5 420 167.5" style="enable-background:new -95 313.5 420 167.5;" xml:space="preserve">
<style type="text/css">
	.st0{opacity:0.6;}
	.st1{fill:#FFFFFF;}
	.st2{fill:#3CBAE8;}
</style>
<g class="st0">
	<path class="st1" d="M-45.7,383.1L-82.9,412c-0.7,0.5-0.4,1.6,0.4,1.7c7.3,1.3,31.9,5.9,55.4,14.1c0.4,0.1,0.8,0,1.1-0.3l19.1-25.5
		c0.4-0.5,0.2-1.2-0.4-1.5L-44.6,383C-45,382.9-45.4,382.9-45.7,383.1L-45.7,383.1z"/>
	<path class="st1" d="M-38.3,379l34.2,17.5c0.4,0.2,0.9,0.1,1.2-0.3l12.8-17c0.4-0.5,0.2-1.2-0.3-1.5c-3.8-2-17.6-9.5-27.6-19.2
		c-0.4-0.4-1-0.4-1.3,0l-19.2,18.8C-39,377.9-38.9,378.7-38.3,379L-38.3,379z"/>
	<path class="st1" d="M-14.8,353l15.1-17.8c0.4-0.5,1.2-0.5,1.6,0.1c1.7,2.6,7.3,9.7,23.6,23c0.4,0.3,0.5,0.9,0.2,1.4l-11.7,15.5
		c-0.3,0.4-0.9,0.5-1.4,0.2l-27.2-20.9C-15.1,354.1-15.2,353.5-14.8,353L-14.8,353z"/>
	<path class="st1" d="M-0.3,404.1l-17,24.9c-0.4,0.6-0.1,1.3,0.6,1.5c3.8,0.8,14.7,4.1,29.8,16.3c0.5,0.4,1.3,0.2,1.5-0.4l11.1-29.9
		c0.2-0.5,0-1-0.5-1.2L1,403.7C0.5,403.5,0,403.7-0.3,404.1L-0.3,404.1z"/>
	<path class="st1" d="M5,399.5l22.6,10.6c0.5,0.2,1.1,0,1.3-0.5c0.8-2.3,3.4-8.1,9-15.8c0.4-0.5,0.2-1.2-0.4-1.5L16.1,382
		c-0.4-0.2-1-0.1-1.2,0.4L4.6,398.1C4.3,398.6,4.5,399.3,5,399.5L5,399.5z"/>
	<path class="st1" d="M19.4,377.7l10.1-14.3c0.3-0.5,1-0.5,1.4-0.2c1.9,1.5,7.4,5.4,18.9,9.9c0.6,0.2,0.8,0.9,0.5,1.4l-9.3,14
		c-0.3,0.4-0.8,0.5-1.2,0.3l-19.9-9.7C19.2,378.8,19.1,378.2,19.4,377.7z"/>
	<path class="st1" d="M46.6,389.6l8.9-13c0.3-0.4,0.8-0.5,1.2-0.3c2.5,1.2,11.1,5.1,18.7,6.7c0.7,0.1,1,0.9,0.6,1.4
		c-1.8,3-6.4,11.1-7.7,15.1c-0.2,0.5-0.8,0.8-1.3,0.6L47,391C46.5,390.7,46.3,390.1,46.6,389.6L46.6,389.6z"/>
	<path class="st1" d="M42.5,395.2L34.1,412c-0.2,0.5-0.1,1,0.4,1.3L58,427.4c0.6,0.4,1.3,0,1.4-0.6c0.7-3.4,2.8-12.7,6.7-20.4
		c0.3-0.5,0.1-1.1-0.4-1.3l-21.9-10.3C43.3,394.5,42.8,394.7,42.5,395.2L42.5,395.2z"/>
	<path class="st1" d="M32.7,418.8l24.5,15.5c0.3,0.2,0.5,0.6,0.4,1c-0.6,4.1-4.1,27.2-4.8,41.1c0,0.8-1,1.2-1.6,0.7l-30.5-25
		c-0.3-0.3-0.4-0.7-0.3-1.1l10.7-31.7C31.4,418.7,32.1,418.4,32.7,418.8L32.7,418.8z"/>
</g>
<g>
	<path class="st2" d="M-53.4,365.6l-37.3,28.9c-0.7,0.5-0.4,1.6,0.4,1.7c7.3,1.3,31.9,5.9,55.4,14.1c0.4,0.1,0.8,0,1.1-0.3
		l19.1-25.5c0.4-0.5,0.2-1.2-0.4-1.5l-37.3-17.6C-52.8,365.4-53.1,365.4-53.4,365.6L-53.4,365.6z"/>
	<path class="st2" d="M-46.1,361.5l34.2,17.5c0.4,0.2,0.9,0.1,1.2-0.3l12.8-17c0.4-0.5,0.2-1.2-0.3-1.5c-3.8-2-17.6-9.5-27.6-19.2
		c-0.4-0.4-1-0.4-1.3,0l-19.2,18.8C-46.8,360.4-46.7,361.2-46.1,361.5L-46.1,361.5z"/>
	<path class="st2" d="M-22.6,335.5l15.1-17.8c0.4-0.5,1.2-0.4,1.6,0.1c1.7,2.6,7.3,9.7,23.6,23c0.4,0.3,0.5,0.9,0.2,1.4L6.1,357.7
		c-0.3,0.4-0.9,0.5-1.4,0.2l-27.2-20.9C-22.9,336.6-23,336-22.6,335.5L-22.6,335.5z"/>
	<path class="st2" d="M-8,386.5l-17,24.9c-0.4,0.6-0.1,1.4,0.6,1.5c3.8,0.8,14.7,4.1,29.8,16.3c0.5,0.4,1.3,0.2,1.5-0.4L18,399
		c0.2-0.5,0-1-0.5-1.2l-24.3-11.5C-7.2,386-7.8,386.1-8,386.5L-8,386.5z"/>
	<path class="st2" d="M-2.8,382l22.6,10.6c0.5,0.2,1.1,0,1.3-0.5c0.8-2.3,3.4-8.1,9-15.8c0.4-0.5,0.2-1.2-0.4-1.5L8.3,364.5
		c-0.4-0.2-1-0.1-1.2,0.4l-10.3,15.7C-3.5,381.1-3.3,381.7-2.8,382L-2.8,382z"/>
	<path class="st2" d="M11.6,360.1l10.1-14.3c0.3-0.5,1-0.6,1.4-0.2c1.9,1.5,7.4,5.4,18.9,9.9c0.6,0.2,0.8,0.9,0.5,1.4l-9.3,14
		c-0.3,0.4-0.8,0.6-1.2,0.3l-20-9.7C11.5,361.3,11.3,360.6,11.6,360.1z"/>
	<path class="st2" d="M38.9,372l8.9-13c0.3-0.4,0.8-0.5,1.2-0.3c2.5,1.2,11.1,5.1,18.7,6.7c0.7,0.1,1,0.9,0.6,1.4
		c-1.8,3-6.4,11.1-7.7,15.1c-0.2,0.5-0.8,0.8-1.3,0.6l-20-9.1C38.7,373.2,38.5,372.5,38.9,372L38.9,372z"/>
	<path class="st2" d="M34.7,377.6l-8.4,16.9c-0.2,0.5-0.1,1,0.4,1.3l23.6,14.1c0.6,0.4,1.3,0,1.4-0.6c0.7-3.4,2.8-12.7,6.7-20.5
		c0.3-0.5,0.1-1.1-0.4-1.3L36,377.2C35.5,377,35,377.2,34.7,377.6L34.7,377.6z"/>
	<path class="st2" d="M24.9,401.3l24.5,15.4c0.3,0.2,0.5,0.6,0.4,1c-0.6,4.1-4.1,27.2-4.8,41.1c0,0.8-1,1.2-1.6,0.7l-30.5-25
		c-0.3-0.3-0.4-0.7-0.3-1.1l10.7-31.7C23.6,401.2,24.3,400.9,24.9,401.3L24.9,401.3z"/>
</g>
<g>
	<path class="st1" d="M287.5,367.9c1.6,7.3,9.2,11.5,16.4,9.3c1.1-0.4,2.3-1.3,3.4-1.6c4.1-1,6.6,4.3,2.6,6.9
		c-4.7,3.1-13.2,2.8-18.2,0.6c-14.6-6.2-16.6-26.2-3.5-35.2c11.1-7.7,26.6-2.5,30.8,10.3c0.7,2,1.7,6.4,0.5,8.2
		c-0.4,0.6-1.7,1.5-2.3,1.5H287.5L287.5,367.9z M312.4,361.8c-1.3-8.7-11.5-13.2-19.1-8.8c-3.1,1.8-5.5,5.2-6,8.8H312.4L312.4,361.8
		z"/>
	<path class="st1" d="M91.9,381.3c-0.6,3.9-7.1,4.2-7.6-0.7l0-47.1c0.1-2,1.4-3.6,3.4-3.9l29,0c3.3,0.6,4.2,5,1.4,6.9
		c-0.2,0.1-1.2,0.6-1.4,0.6H91.9v19.3l0.2,0.2h17.5c0.2,0,1.1,0.5,1.3,0.7c2.1,1.5,1.9,4.9-0.3,6.3c-0.1,0.1-1.2,0.5-1.3,0.5H91.9
		L91.9,381.3L91.9,381.3z"/>
	<path class="st1" d="M176.5,344.1h16.8c3,0,4.8,4.7,2,6.6c-0.2,0.2-1.4,0.7-1.6,0.7h-17.2c0.2,4.4-0.2,9.1,0,13.5
		c0.4,8.3,7,13.8,15.3,12.5c3.5-0.6,4.1-1.9,6.6-3.4c3.8-2.3,7,2.2,4.2,5.7c-2.1,2.5-6.4,4.4-9.5,4.9c-12,2-22.9-6-24-18.1v-30.9
		c0.4-2.8,3.6-4.2,6-2.5c0.5,0.3,1.5,1.6,1.5,2.1L176.5,344.1L176.5,344.1z"/>
	<path class="st1" d="M127,344.4c2.4-0.4,4.1,1.4,4.3,3.7c0.4,5.9-0.4,12.4,0,18.3c0.8,10.9,15.6,15.4,21.3,5.7
		c3.4-5.8,1.2-17.5,1.8-24.4c0.4-4.3,6.9-4.6,7.3,0c-0.8,11.8,3.3,25.7-7.9,33.8c-12,8.6-28.9-0.2-29.8-14.6
		c-0.4-6.3,0.3-13.1,0-19.5C124.3,345.9,125.5,344.6,127,344.4L127,344.4z"/>
	<path class="st1" d="M211.4,344.4c2.4-0.4,4.1,1.4,4.3,3.7c0.4,5.9-0.4,12.4,0,18.3c0.8,10.9,15.6,15.4,21.3,5.7
		c3.4-5.8,1.2-17.5,1.8-24.4c0.4-4.3,6.9-4.6,7.3,0c-0.8,11.8,3.3,25.7-7.9,33.8c-12,8.6-28.9-0.2-29.8-14.6
		c-0.4-6.3,0.3-13.1,0-19.5C208.7,345.9,209.9,344.6,211.4,344.4L211.4,344.4z"/>
	<path class="st1" d="M273.1,344.4c1.6-0.1,3.8-0.1,4.8,1.4c1.6,2.3,0.2,5.5-2.6,5.9c-3,0.4-4.5,0.1-7.3,1.7
		c-10.4,5.7-6.4,17.6-7.2,27.3c-0.4,4.4-5.6,4.9-7.2,1.1c0.1-5.8-0.5-12.1-0.1-17.8C254.2,353.6,262.9,345,273.1,344.4L273.1,344.4z
		"/>
</g>
<g>
	<path class="st1" d="M263,398.7c0.6-5,7.5-5.1,7.9,0.4c-0.4,11,0.5,22.3,0,33.3c-0.6,14.4-13.8,24.5-27.9,20.4
		c-16-4.8-20.6-25.6-8.1-36.8c7-6.2,19.9-8.3,26.3-0.3l1.7,2.5L263,398.7L263,398.7z M247.9,418.5c-9.9,0.9-15.6,11.9-10.5,20.5
		c5.2,9,18.3,9.2,23.7,0.2C266.9,429.6,259.2,417.5,247.9,418.5L247.9,418.5z"/>
	<path class="st1" d="M120.7,407.2c-1.3,1.3-3.5,1.3-5,0.3c-1.8-1.3-2.6-2.8-5.1-3.9c-5.6-2.4-16.1-1.1-17,6.3
		c-0.9,7.7,9.6,8.6,14.8,10.2c9.5,2.9,17.7,8.2,15.2,19.5c-3.5,16-26.2,18.2-36.3,6.9c-2.2-2.5-5.2-7.3-0.9-9.4
		c3.8-1.9,5.6,3.2,7.9,5.2c5.7,5,18.5,5.1,21.4-2.9c3.6-9.9-9.1-11.4-15.5-13.3c-6.7-2-13.9-6-14.5-13.8
		c-1.2-16.8,21.3-22.7,32.5-12.8C120.4,401.3,123.4,404.6,120.7,407.2L120.7,407.2z"/>
	<path class="st1" d="M285.3,435.7c1.7,7.8,9.8,12.3,17.4,9.9c1.2-0.4,2.5-1.4,3.6-1.6c4.4-1.1,7,4.5,2.8,7.3
		c-5,3.3-14.1,2.9-19.4,0.7c-15.6-6.6-17.7-27.9-3.7-37.5c11.9-8.2,28.4-2.7,32.9,10.9c0.7,2.2,1.8,6.8,0.5,8.8
		c-0.4,0.6-1.8,1.6-2.5,1.6L285.3,435.7L285.3,435.7z M311.9,429.2c-1.4-9.3-12.3-14-20.4-9.4c-3.3,1.9-5.9,5.6-6.4,9.4H311.9
		L311.9,429.2z"/>
	<path class="st1" d="M220.6,452.2c-1.6,1.7-4.7,1.5-6-0.5c-0.6-0.9-0.5-1.9-0.8-2.9c-10.7,8.8-26.7,5.1-32.7-7.3
		c-9.5-19.6,13.2-39.8,31.4-27.3c12.5,8.6,8.6,22.6,9.2,35.6C221.6,450.7,221.1,451.7,220.6,452.2L220.6,452.2z M199,418.5
		c-9.8,0.9-15.2,11.9-10.5,20.4c5.1,9.2,18.6,9.3,23.7,0C217.5,429.2,210.1,417.5,199,418.5L199,418.5z"/>
	<path class="st1" d="M138.8,417.3c10.7-12.7,30.1-6.5,33.1,9.5c1.3,7.2,0,15.8,0.4,23.1c-0.7,3.9-6,4.5-7.5,0.8
		c-0.7-6.6,0.2-13.4-0.2-20c-0.5-8.5-6.9-14.2-15.6-11.9c-5.1,1.3-9.8,5.8-10.2,11.2c-0.4,6.2,0.5,13,0,19.1c-0.4,5.5-7.6,5.3-7.9,0
		l0-50.4c0.3-3.3,4.1-5,6.6-2.7c0.5,0.5,1.3,1.9,1.3,2.6L138.8,417.3L138.8,417.3z"/>
</g>
</svg>
