<?xml version="1.0" encoding="UTF-8"?>
<svg id="Layer_1" data-name="Layer 1" xmlns="http://www.w3.org/2000/svg" viewBox="0 0 420.04 167.46">
  <defs>
    <style>
      .cls-1 {
        fill: #3cbae8;
      }

      .cls-2 {
        fill: #fff;
      }

      .cls-3 {
        opacity: .6;
      }

      .cls-4 {
        fill: #eeeff0;
      }

      .cls-5 {
        fill: #eaedef;
      }
    </style>
  </defs>
  <g class="cls-3">
    <path class="cls-4" d="M49.35,69.59l-37.3,28.91c-.67.52-.41,1.58.42,1.73,7.33,1.27,31.93,5.88,55.4,14.15.4.14.84,0,1.1-.33l19.09-25.52c.37-.49.19-1.2-.36-1.46l-37.34-17.58c-.33-.16-.72-.11-1.01.11Z"/>
    <path class="cls-4" d="M56.7,65.49l34.19,17.54c.42.22.94.1,1.22-.28l12.8-16.96c.36-.48.21-1.17-.32-1.45-3.83-2-17.62-9.52-27.62-19.24-.38-.37-.98-.37-1.35,0l-19.16,18.81c-.47.47-.35,1.26.24,1.56Z"/>
    <path class="cls-4" d="M80.18,39.51l15.1-17.75c.42-.49,1.19-.45,1.55.09,1.7,2.57,7.29,9.72,23.56,22.96.41.33.48.93.17,1.35l-11.7,15.49c-.33.43-.94.51-1.37.18l-27.16-20.9c-.44-.34-.51-.98-.15-1.4Z"/>
    <path class="cls-4" d="M94.75,90.53l-17.03,24.92c-.39.57-.08,1.35.59,1.5,3.78.81,14.73,4.07,29.85,16.28.52.42,1.3.21,1.53-.41l11.13-29.85c.18-.47-.04-1-.49-1.22l-24.35-11.55c-.43-.21-.95-.07-1.22.33Z"/>
    <path class="cls-4" d="M100.01,85.97l22.6,10.6c.51.24,1.12,0,1.32-.53.85-2.25,3.38-8.15,8.98-15.84.36-.49.19-1.19-.36-1.46l-21.44-10.28c-.44-.21-.97-.06-1.24.35l-10.27,15.75c-.32.5-.13,1.16.4,1.41Z"/>
    <path class="cls-4" d="M114.41,64.13l10.07-14.26c.32-.46.97-.55,1.4-.2,1.88,1.53,7.38,5.44,18.88,9.86.58.22.82.93.47,1.45l-9.26,13.97c-.27.41-.8.55-1.24.34l-19.95-9.72c-.54-.26-.72-.95-.37-1.44Z"/>
    <path class="cls-4" d="M141.64,76.02l8.9-13.01c.27-.39.78-.54,1.22-.33,2.54,1.2,11.14,5.09,18.71,6.71.66.14.99.86.65,1.44-1.78,3.03-6.44,11.13-7.73,15.12-.18.55-.79.82-1.32.58l-20.02-9.07c-.55-.25-.74-.94-.4-1.44Z"/>
    <path class="cls-4" d="M137.53,81.62l-8.44,16.88c-.23.45-.07,1.01.37,1.27l23.56,14.14c.58.35,1.32.02,1.45-.64.68-3.42,2.77-12.7,6.66-20.45.25-.49.05-1.08-.45-1.32l-21.87-10.32c-.48-.23-1.05-.03-1.29.44Z"/>
    <path class="cls-4" d="M127.65,105.25l24.51,15.45c.33.21.5.58.44.97-.63,4.08-4.13,27.16-4.75,41.11-.04.8-.97,1.21-1.59.7l-30.49-24.99c-.31-.26-.43-.68-.3-1.07l10.73-31.67c.2-.6.91-.85,1.44-.51Z"/>
  </g>
  <g>
    <path class="cls-1" d="M41.57,52.07L4.27,80.99c-.67.52-.41,1.58.42,1.73,7.33,1.27,31.93,5.88,55.4,14.15.4.14.84,0,1.1-.33l19.09-25.52c.37-.49.19-1.2-.36-1.46l-37.34-17.58c-.33-.16-.72-.11-1.01.11Z"/>
    <path class="cls-1" d="M48.91,47.97l34.19,17.54c.42.22.94.1,1.22-.28l12.8-16.96c.36-.48.21-1.17-.32-1.45-3.83-2-17.62-9.52-27.62-19.24-.38-.37-.98-.37-1.35,0l-19.16,18.81c-.47.47-.35,1.26.24,1.56Z"/>
    <path class="cls-1" d="M72.39,21.99l15.1-17.75c.42-.49,1.19-.45,1.55.09,1.7,2.57,7.29,9.72,23.56,22.96.41.33.48.93.17,1.35l-11.7,15.49c-.33.43-.94.51-1.37.18l-27.16-20.9c-.44-.34-.51-.98-.15-1.4Z"/>
    <path class="cls-1" d="M86.96,73.01l-17.03,24.92c-.39.57-.08,1.35.59,1.5,3.78.81,14.73,4.07,29.85,16.28.52.42,1.3.21,1.53-.41l11.13-29.85c.18-.47-.04-1-.49-1.22l-24.35-11.55c-.43-.21-.95-.07-1.22.33Z"/>
    <path class="cls-1" d="M92.22,68.45l22.6,10.6c.51.24,1.12,0,1.32-.53.85-2.25,3.38-8.15,8.98-15.84.36-.49.19-1.19-.36-1.46l-21.44-10.28c-.44-.21-.97-.06-1.24.35l-10.27,15.75c-.32.5-.13,1.16.4,1.41Z"/>
    <path class="cls-1" d="M106.62,46.61l10.07-14.26c.32-.46.97-.55,1.4-.2,1.88,1.53,7.38,5.44,18.88,9.86.58.22.82.93.47,1.45l-9.26,13.97c-.27.41-.8.55-1.24.34l-19.95-9.72c-.54-.26-.72-.95-.37-1.44Z"/>
    <path class="cls-1" d="M133.85,58.51l8.9-13.01c.27-.39.78-.54,1.22-.33,2.54,1.2,11.14,5.09,18.71,6.71.66.14.99.86.65,1.44-1.78,3.03-6.44,11.13-7.73,15.12-.18.55-.79.82-1.32.58l-20.02-9.07c-.55-.25-.74-.94-.4-1.44Z"/>
    <path class="cls-1" d="M129.74,64.1l-8.44,16.88c-.23.45-.07,1.01.37,1.27l23.56,14.14c.58.35,1.32.02,1.45-.64.68-3.42,2.77-12.7,6.66-20.45.25-.49.05-1.08-.45-1.32l-21.87-10.32c-.48-.23-1.05-.03-1.29.44Z"/>
    <path class="cls-1" d="M119.87,87.73l24.51,15.45c.33.21.5.58.44.97-.63,4.08-4.13,27.16-4.75,41.11-.04.8-.97,1.21-1.59.7l-30.49-24.99c-.31-.26-.43-.68-.3-1.07l10.73-31.67c.2-.6.91-.85,1.44-.51Z"/>
  </g>
  <g>
    <path class="cls-2" d="M382.46,54.41c1.61,7.28,9.23,11.52,16.35,9.25,1.15-.37,2.3-1.28,3.36-1.55,4.13-1.03,6.56,4.25,2.62,6.87-4.66,3.1-13.22,2.75-18.22.62-14.6-6.23-16.56-26.19-3.5-35.2,11.12-7.67,26.6-2.5,30.83,10.25.67,2.02,1.67,6.37.5,8.21-.35.56-1.67,1.55-2.3,1.55h-29.66ZM407.41,48.3c-1.28-8.74-11.55-13.16-19.11-8.83-3.11,1.78-5.54,5.24-5.97,8.83h25.08Z"/>
    <path class="cls-2" d="M186.86,67.74c-.6,3.87-7.09,4.23-7.55-.68l-.02-47.1c.05-2.03,1.37-3.63,3.39-3.91l29.03.03c3.3.6,4.16,5.02,1.42,6.92-.22.15-1.17.61-1.38.61h-24.88v19.31l.2.2h17.52c.19,0,1.09.53,1.3.69,2.09,1.55,1.92,4.94-.26,6.33-.15.1-1.22.55-1.31.55h-17.45v17.05Z"/>
    <path class="cls-2" d="M271.52,30.52h16.79c3.02,0,4.77,4.71,1.97,6.61-.23.16-1.36.69-1.57.69h-17.18c.18,4.44-.24,9.06,0,13.47.44,8.27,7,13.84,15.3,12.5,3.45-.55,4.08-1.9,6.64-3.44,3.8-2.29,7.05,2.23,4.21,5.67-2.06,2.5-6.39,4.4-9.53,4.93-11.98,2.04-22.88-5.95-24.04-18.07v-30.92c.44-2.84,3.56-4.22,5.96-2.51.45.32,1.47,1.6,1.47,2.11v8.96Z"/>
    <path class="cls-2" d="M221.99,30.82c2.41-.38,4.13,1.45,4.29,3.74.41,5.93-.44,12.4-.01,18.32.79,10.91,15.57,15.43,21.26,5.72,3.43-5.84,1.24-17.52,1.83-24.44.37-4.29,6.91-4.65,7.31,0-.76,11.84,3.29,25.7-7.93,33.75-12,8.62-28.85-.23-29.77-14.63-.4-6.34.3-13.12.02-19.5.32-1.46,1.5-2.73,3.01-2.97Z"/>
    <path class="cls-2" d="M306.39,30.82c2.41-.38,4.13,1.45,4.29,3.74.41,5.93-.44,12.4-.01,18.32.79,10.91,15.57,15.43,21.26,5.72,3.43-5.84,1.24-17.52,1.83-24.44.37-4.29,6.91-4.65,7.31,0-.76,11.84,3.29,25.7-7.93,33.75-12,8.62-28.85-.23-29.77-14.63-.4-6.34.3-13.12.02-19.5.32-1.46,1.5-2.73,3.01-2.97Z"/>
    <path class="cls-2" d="M368.1,30.82c1.63-.11,3.76-.14,4.78,1.38,1.57,2.33.23,5.51-2.58,5.87-3,.39-4.45.14-7.31,1.71-10.41,5.72-6.44,17.61-7.2,27.3-.35,4.42-5.62,4.92-7.18,1.06.06-5.76-.51-12.05-.12-17.79.69-10.29,9.36-18.87,19.61-19.54Z"/>
  </g>
  <g>
    <path class="cls-5" d="M357.96,85.21c.56-5,7.49-5.14,7.93.42-.38,10.99.49,22.3,0,33.26-.63,14.37-13.81,24.55-27.88,20.36-16.05-4.77-20.64-25.64-8.07-36.78,7-6.2,19.85-8.28,26.31-.28l1.7,2.47v-19.45ZM342.94,104.98c-9.88.88-15.56,11.88-10.55,20.51,5.22,9,18.26,9.15,23.66.23,5.87-9.7-1.87-21.74-13.1-20.74Z"/>
    <path class="cls-5" d="M215.73,93.71c-1.34,1.34-3.53,1.32-5.03.25-1.84-1.31-2.64-2.82-5.06-3.85-5.63-2.38-16.08-1.1-16.97,6.3-.93,7.69,9.55,8.61,14.78,10.18,9.49,2.85,17.7,8.22,15.22,19.54-3.51,16-26.23,18.21-36.27,6.89-2.18-2.46-5.22-7.32-.94-9.44,3.8-1.87,5.62,3.2,7.88,5.19,5.69,5.02,18.52,5.14,21.43-2.9,3.58-9.88-9.15-11.37-15.46-13.26-6.68-2-13.91-6.05-14.47-13.83-1.21-16.79,21.31-22.66,32.48-12.81,2.06,1.82,5.04,5.11,2.42,7.73Z"/>
    <path class="cls-5" d="M380.31,122.2c1.72,7.76,9.84,12.28,17.43,9.86,1.23-.39,2.45-1.36,3.59-1.65,4.4-1.1,6.99,4.53,2.79,7.32-4.97,3.3-14.09,2.93-19.42.66-15.56-6.64-17.66-27.92-3.73-37.53,11.86-8.18,28.35-2.67,32.87,10.93.72,2.16,1.78,6.79.54,8.75-.38.59-1.78,1.65-2.45,1.65h-31.62ZM406.91,115.69c-1.37-9.32-12.31-14.03-20.37-9.41-3.32,1.9-5.9,5.59-6.36,9.41h26.74Z"/>
    <path class="cls-5" d="M315.61,138.7c-1.65,1.74-4.66,1.55-6.01-.47-.61-.91-.55-1.86-.8-2.88-10.68,8.81-26.73,5.05-32.73-7.31-9.53-19.63,13.21-39.8,31.37-27.27,12.48,8.61,8.61,22.61,9.22,35.64-.07.76-.53,1.73-1.05,2.28ZM293.99,104.98c-9.84.88-15.23,11.88-10.46,20.42,5.14,9.21,18.59,9.25,23.67,0,5.34-9.72-2.09-21.42-13.21-20.42Z"/>
    <path class="cls-5" d="M233.75,103.81c10.68-12.72,30.09-6.48,33.06,9.45,1.34,7.17.02,15.75.41,23.09-.67,3.85-6.03,4.45-7.5.84-.7-6.58.19-13.4-.22-20.01-.52-8.51-6.95-14.17-15.56-11.88-5.05,1.34-9.79,5.75-10.19,11.17-.45,6.16.49,12.97.01,19.11-.43,5.48-7.61,5.28-7.93,0l.02-50.35c.25-3.27,4.14-5.04,6.64-2.71.51.48,1.27,1.87,1.27,2.55v18.75Z"/>
  </g>
</svg>