<svg width="95" height="46" viewBox="0 0 95 46" fill="none" xmlns="http://www.w3.org/2000/svg">
<g clip-path="url(#clip0_301_5814)">
<path d="M0 31.5309V0.752727H9.55424V4.47455C10.6807 2.88545 11.9741 1.75636 13.5178 1.04545C15.0198 0.334545 16.7303 0 18.6495 0C22.4879 0 25.4084 1.25455 27.3693 3.68C29.372 6.14727 30.3316 9.32546 30.3316 13.2564V31.4891H25.6588C22.9886 31.4891 20.8608 29.3145 20.8608 26.68V14.4273C20.8608 12.5036 20.4018 10.9145 19.4422 9.74364C18.4827 8.57273 17.0641 7.98727 15.1867 7.98727C13.3092 7.98727 11.9324 8.61455 10.9728 9.82727C10.0132 11.04 9.55424 12.5873 9.55424 14.4691V31.5309H0Z" fill="#0F172B"/>
<path d="M49.3566 32.2836C46.3944 32.2836 43.6825 31.6564 41.2209 30.4018C38.7594 29.1473 36.7984 27.3073 35.3382 24.9236C33.8779 22.54 33.127 19.6127 33.127 16.1836C33.127 12.7545 33.8362 10.0782 35.2548 7.69455C36.6733 5.31091 38.6342 3.42909 41.0958 2.09091C43.5991 0.669091 46.3944 0 49.4818 0C52.5692 0 55.6566 0.710909 58.0764 2.09091C60.4963 3.47091 62.4155 5.39455 63.7923 7.82C65.1691 10.2455 65.8367 13.0473 65.8367 16.1836C65.8367 19.32 65.1274 22.2891 63.6671 24.7145C62.2069 27.14 60.246 29.0218 57.7844 30.3182C55.3228 31.6145 52.4858 32.3255 49.3566 32.3255V32.2836ZM49.4401 23.9618C50.8169 23.9618 51.9851 23.6273 52.9864 22.9582C53.9877 22.2891 54.7387 21.3691 55.3228 20.1564C55.8652 18.9436 56.1573 17.6055 56.1573 16.0582C56.1573 14.5109 55.8652 12.9218 55.2811 11.7927C54.697 10.6636 53.8626 9.78546 52.8612 9.2C51.8599 8.61455 50.7334 8.32182 49.4818 8.32182C48.2302 8.32182 47.062 8.61455 46.0606 9.24182C45.0593 9.86909 44.2666 10.7473 43.6825 11.9182C43.0984 13.0891 42.8064 14.4691 42.8064 16.1C42.8064 17.7309 43.0984 18.9855 43.6408 20.1564C44.1832 21.3273 44.9759 22.2473 45.9772 22.9164C46.9785 23.5855 48.1467 23.92 49.5235 23.92H49.4401V23.9618Z" fill="#0F172B"/>
<path d="M0 42.4032C0 40.2286 1.37681 38.8486 3.12912 38.8486C4.88142 38.8486 6.25823 40.2286 6.25823 42.4032C6.25823 44.5777 4.88142 45.9995 3.12912 45.9995C1.37681 45.9995 0 44.5777 0 42.4032ZM5.34036 42.4032C5.34036 40.7723 4.38076 39.7268 3.12912 39.7268C1.87747 39.7268 0.917874 40.7723 0.917874 42.4032C0.917874 44.0341 1.87747 45.0795 3.12912 45.0795C4.38076 45.0795 5.34036 43.9923 5.34036 42.4032Z" fill="#0F172B"/>
<path d="M13.184 45.832H12.2661V44.6193C11.9323 45.5393 11.0145 45.9993 10.18 45.9993C8.80322 45.9993 7.84363 45.0374 7.84363 43.1974V39.0156H8.7615V43.1556C8.7615 44.452 9.47077 45.1211 10.3886 45.1211C11.3065 45.1211 12.2661 44.5356 12.2661 42.9884V39.0156H13.184V45.832Z" fill="#0F172B"/>
<path d="M15.6039 39.8103H14.5609V39.0158H15.6039V36.4648H16.5218V39.0158H17.8569V39.8103H16.5218V45.7903H15.6039V39.8103Z" fill="#0F172B"/>
<path d="M18.6078 42.4032C18.6078 40.2705 19.9012 38.8487 21.6117 38.8487C23.3223 38.8487 23.5309 39.3923 23.9481 40.3123V35.3359H24.866V45.8323H23.9481V44.5359C23.5309 45.4141 22.6131 45.9996 21.6117 45.9996C19.9429 45.9996 18.6078 44.5359 18.6078 42.4032ZM23.9481 42.445C23.9481 40.8141 22.9051 39.7268 21.7369 39.7268C20.5687 39.7268 19.5674 40.8559 19.5674 42.4032C19.5674 43.9505 20.527 45.1214 21.7369 45.1214C22.9468 45.1214 23.9481 44.0759 23.9481 42.445Z" fill="#0F172B"/>
<path d="M26.4932 42.4032C26.4932 40.2286 27.87 38.8486 29.6223 38.8486C31.3746 38.8486 32.7514 40.2286 32.7514 42.4032C32.7514 44.5777 31.3746 45.9995 29.6223 45.9995C27.87 45.9995 26.4932 44.5777 26.4932 42.4032ZM31.8335 42.4032C31.8335 40.7723 30.8739 39.7268 29.6223 39.7268C28.3706 39.7268 27.411 40.7723 27.411 42.4032C27.411 44.0341 28.3706 45.0795 29.6223 45.0795C30.8739 45.0795 31.8335 43.9923 31.8335 42.4032Z" fill="#0F172B"/>
<path d="M33.9614 42.4032C33.9614 40.2286 35.3382 38.8486 37.0905 38.8486C38.8428 38.8486 40.2196 40.2286 40.2196 42.4032C40.2196 44.5777 38.8428 45.9995 37.0905 45.9995C35.3382 45.9995 33.9614 44.5777 33.9614 42.4032ZM39.3017 42.4032C39.3017 40.7723 38.3421 39.7268 37.0905 39.7268C35.8388 39.7268 34.8792 40.7723 34.8792 42.4032C34.8792 44.0341 35.8388 45.0795 37.0905 45.0795C38.3421 45.0795 39.3017 43.9923 39.3017 42.4032Z" fill="#0F172B"/>
<path d="M41.8467 39.0159H42.7646V40.4795C43.0984 39.4341 43.7659 38.8486 44.6421 38.8486C45.5182 38.8486 45.3096 38.9323 45.56 39.0577L45.3931 39.9359C45.101 39.8105 44.809 39.7686 44.6004 39.7686C43.2653 39.7686 42.8063 41.2741 42.8063 42.6959V45.8323H41.8885V39.0159H41.8467Z" fill="#0F172B"/>
<path d="M49.6487 35.3359H50.5666V41.6923L52.8195 39.0578H54.0294L51.4844 42.0268L54.7387 45.8741H53.5288L50.5666 42.3614V45.8741H49.6487V35.3778V35.3359Z" fill="#0F172B"/>
<path d="M55.4479 36.758C55.4479 36.3816 55.7817 36.0889 56.1155 36.0889C56.4493 36.0889 56.783 36.3816 56.783 36.758C56.783 37.1343 56.491 37.427 56.1155 37.427C55.74 37.427 55.4479 37.1343 55.4479 36.758ZM55.6565 39.0161H56.5744V45.8325H55.6565V39.0161Z" fill="#0F172B"/>
<path d="M58.9943 39.8103H57.9512V39.0158H58.9943V36.4648H59.9122V39.0158H61.2472V39.8103H59.9122V45.7903H58.9943V39.8103Z" fill="#0F172B"/>
<path d="M61.9982 42.4032C61.9982 40.2286 63.4168 38.8486 65.1691 38.8486C66.9214 38.8486 66.8379 39.225 67.3803 39.8523L66.7545 40.4377C66.379 39.9777 65.7949 39.7268 65.2108 39.7268C63.9174 39.7268 62.9161 40.8141 62.9161 42.4032C62.9161 43.9923 63.9174 45.0795 65.2108 45.0795C66.5042 45.0795 66.379 44.8286 66.7545 44.3686L67.3803 44.9541C66.8379 45.5814 66.0869 45.9577 65.1691 45.9577C63.4585 45.9577 61.9982 44.5359 61.9982 42.3614V42.4032Z" fill="#0F172B"/>
<path d="M68.8823 35.3359H69.8002V40.2287C70.134 39.3087 71.0518 38.8487 71.8446 38.8487C73.2631 38.8487 74.2227 39.8523 74.2227 41.6505V45.8323H73.3048V41.6923C73.3048 40.4796 72.5955 39.7687 71.6777 39.7687C70.7598 39.7687 69.8002 40.3541 69.8002 41.9014V45.8741H68.8823V35.3778V35.3359Z" fill="#0F172B"/>
<path d="M75.8081 42.4032C75.8081 40.2286 77.1015 38.8486 78.8538 38.8486C80.6061 38.8486 81.816 40.1868 81.816 42.3195C81.816 44.4523 81.816 42.6541 81.816 42.8214H76.7677C76.8929 44.285 77.7273 45.1214 78.9372 45.1214C80.1471 45.1214 80.3558 44.7032 80.773 43.9923L81.524 44.4523C80.9816 45.4977 80.022 45.9995 78.9372 45.9995C77.1849 45.9995 75.8915 44.6195 75.8915 42.4032H75.8081ZM80.8981 42.0268C80.8147 40.605 79.9803 39.7268 78.8538 39.7268C77.7273 39.7268 76.8929 40.5214 76.726 42.0268H80.8981Z" fill="#0F172B"/>
<path d="M83.4014 39.0159H84.3193V40.2286C84.6531 39.3504 85.571 38.8486 86.3637 38.8486C87.7822 38.8486 88.7418 39.8523 88.7418 41.6504V45.8323H87.8239V41.6923C87.8239 40.4795 87.1147 39.7686 86.1968 39.7686C85.2789 39.7686 84.3193 40.3541 84.3193 41.8595V45.8323H83.4014V39.0159Z" fill="#0F172B"/>
<path d="M90.2437 44.0341H91.1616C91.1616 44.6614 91.704 45.1632 92.5384 45.1632C93.3728 45.1632 93.9152 44.6614 93.9152 44.0341C93.9152 43.4068 93.5814 43.1141 92.9139 42.905L92.0377 42.6541C91.1199 42.3614 90.4523 41.8177 90.4523 40.7305C90.4523 39.6432 91.3285 38.8486 92.5384 38.8486C93.7483 38.8486 94.5828 39.4759 94.5828 40.6886H93.6649C93.6649 40.0614 93.1225 39.685 92.5384 39.685C91.9543 39.685 91.3702 40.1032 91.3702 40.7305C91.3702 41.3577 91.8291 41.6504 92.2881 41.8177L93.1642 42.1104C94.3742 42.4868 94.7497 43.2814 94.7497 44.0341C94.7497 45.2468 93.7901 45.9995 92.455 45.9995C91.1199 45.9995 90.1603 45.2886 90.1603 44.0341H90.2437Z" fill="#0F172B"/>
<path d="M83.8603 15.8073L79.1458 8.78182L73.0962 0H62.2068L72.9293 15.5145L62.4572 31.6564H72.971L78.4365 23.7109L84.1107 31.6564H95L83.8603 15.8073Z" fill="#0F172B"/>
<path d="M94.6662 0H84.2358L80.8564 5.85454L85.7378 13.0473L94.6662 0Z" fill="#0F172B"/>
</g>
<defs>
<clipPath id="clip0_301_5814">
<rect width="95" height="46" fill="white"/>
</clipPath>
</defs>
</svg>
