<?xml version="1.0" encoding="utf-8"?>
<!-- Generator: Adobe Illustrator 19.0.0, SVG Export Plug-In . SVG Version: 6.00 Build 0)  -->
<svg version="1.1" id="Layer_1" xmlns="http://www.w3.org/2000/svg" xmlns:xlink="http://www.w3.org/1999/xlink" x="0px" y="0px"
	 viewBox="-293 431.1 95 46" style="enable-background:new -293 431.1 95 46;" xml:space="preserve">
<style type="text/css">
	.st0{clip-path:url(#SVGID_2_);}
	.st1{fill:#FFFFFF;}
</style>
<g>
	<defs>
		<rect id="SVGID_1_" x="-293" y="431.1" width="95" height="46"/>
	</defs>
	<clipPath id="SVGID_2_">
		<use xlink:href="#SVGID_1_"  style="overflow:visible;"/>
	</clipPath>
	<g class="st0">
		<path class="st1" d="M-293,462.6v-30.8h9.6v3.7c1.1-1.6,2.4-2.7,4-3.4c1.5-0.7,3.2-1,5.1-1c3.8,0,6.8,1.3,8.7,3.7
			c2,2.5,3,5.6,3,9.6v18.2h-4.7c-2.7,0-4.8-2.2-4.8-4.8v-12.3c0-1.9-0.5-3.5-1.4-4.7c-1-1.2-2.4-1.8-4.3-1.8c-1.9,0-3.3,0.6-4.2,1.8
			c-1,1.2-1.4,2.8-1.4,4.6v17.1L-293,462.6L-293,462.6z"/>
		<path class="st1" d="M-243.6,463.4c-3,0-5.7-0.6-8.1-1.9c-2.5-1.3-4.4-3.1-5.9-5.5s-2.2-5.3-2.2-8.7s0.7-6.1,2.1-8.5
			c1.4-2.4,3.4-4.3,5.8-5.6c2.5-1.4,5.3-2.1,8.4-2.1c3.1,0,6.2,0.7,8.6,2.1c2.4,1.4,4.3,3.3,5.7,5.7c1.4,2.4,2,5.2,2,8.4
			c0,3.1-0.7,6.1-2.2,8.5s-3.4,4.3-5.9,5.6C-237.7,462.7-240.5,463.4-243.6,463.4L-243.6,463.4z M-243.6,455.1c1.4,0,2.5-0.3,3.5-1
			s1.8-1.6,2.3-2.8c0.5-1.2,0.8-2.6,0.8-4.1s-0.3-3.1-0.9-4.3c-0.6-1.1-1.4-2-2.4-2.6s-2.1-0.9-3.4-0.9s-2.4,0.3-3.4,0.9
			s-1.8,1.5-2.4,2.7c-0.6,1.2-0.9,2.6-0.9,4.2s0.3,2.9,0.8,4.1s1.3,2.1,2.3,2.8C-246,454.7-244.9,455-243.6,455.1L-243.6,455.1
			L-243.6,455.1z"/>
		<path class="st1" d="M-293,473.5c0-2.2,1.4-3.6,3.1-3.6c1.8,0,3.1,1.4,3.1,3.6s-1.4,3.6-3.1,3.6S-293,475.7-293,473.5z
			 M-287.7,473.5c0-1.6-1-2.7-2.2-2.7s-2.2,1-2.2,2.7s1,2.7,2.2,2.7C-288.7,476.2-287.7,475.1-287.7,473.5z"/>
		<path class="st1" d="M-279.8,476.9h-0.9v-1.2c-0.3,0.9-1.3,1.4-2.1,1.4c-1.4,0-2.3-1-2.3-2.8v-4.2h0.9v4.1c0,1.3,0.7,2,1.6,2
			s1.9-0.6,1.9-2.1v-4h0.9L-279.8,476.9L-279.8,476.9z"/>
		<path class="st1" d="M-277.4,470.9h-1v-0.8h1v-2.6h0.9v2.6h1.3v0.8h-1.3v6h-0.9V470.9z"/>
		<path class="st1" d="M-274.4,473.5c0-2.1,1.3-3.6,3-3.6s1.9,0.5,2.3,1.5v-5h0.9v10.5h-0.9v-1.3c-0.4,0.9-1.3,1.5-2.3,1.5
			C-273.1,477.1-274.4,475.6-274.4,473.5z M-269.1,473.5c0-1.6-1-2.7-2.2-2.7c-1.2,0-2.2,1.1-2.2,2.7s1,2.7,2.2,2.7
			C-270.1,476.2-269.1,475.2-269.1,473.5z"/>
		<path class="st1" d="M-266.5,473.5c0-2.2,1.4-3.6,3.1-3.6s3.1,1.4,3.1,3.6s-1.4,3.6-3.1,3.6S-266.5,475.7-266.5,473.5z
			 M-261.2,473.5c0-1.6-1-2.7-2.2-2.7c-1.3,0-2.2,1-2.2,2.7s1,2.7,2.2,2.7C-262.1,476.2-261.2,475.1-261.2,473.5z"/>
		<path class="st1" d="M-259,473.5c0-2.2,1.4-3.6,3.1-3.6s3.1,1.4,3.1,3.6s-1.4,3.6-3.1,3.6S-259,475.7-259,473.5z M-253.7,473.5
			c0-1.6-1-2.7-2.2-2.7c-1.3,0-2.2,1-2.2,2.7s1,2.7,2.2,2.7C-254.7,476.2-253.7,475.1-253.7,473.5z"/>
		<path class="st1" d="M-251.2,470.1h0.9v1.5c0.3-1,1-1.6,1.9-1.6s0.7,0.1,0.9,0.2l-0.2,0.9c-0.3-0.1-0.6-0.2-0.8-0.2
			c-1.3,0-1.8,1.5-1.8,2.9v3.1h-0.9L-251.2,470.1L-251.2,470.1z"/>
		<path class="st1" d="M-243.4,466.4h0.9v6.4l2.3-2.6h1.2l-2.5,3l3.3,3.8h-1.2l-3-3.5v3.5h-0.9v-10.6H-243.4z"/>
		<path class="st1" d="M-237.6,467.9c0-0.4,0.3-0.7,0.7-0.7c0.3,0,0.7,0.3,0.7,0.7c0,0.4-0.3,0.7-0.7,0.7
			C-237.3,468.5-237.6,468.2-237.6,467.9z M-237.3,470.1h0.9v6.8h-0.9V470.1z"/>
		<path class="st1" d="M-234,470.9h-1v-0.8h1v-2.6h0.9v2.6h1.3v0.8h-1.3v6h-0.9V470.9z"/>
		<path class="st1" d="M-231,473.5c0-2.2,1.4-3.6,3.2-3.6s1.7,0.4,2.2,1l-0.6,0.6c-0.4-0.5-1-0.7-1.5-0.7c-1.3,0-2.3,1.1-2.3,2.7
			s1,2.7,2.3,2.7s1.2-0.3,1.5-0.7l0.6,0.6c-0.5,0.6-1.3,1-2.2,1C-229.5,477.1-231,475.6-231,473.5L-231,473.5z"/>
		<path class="st1" d="M-224.1,466.4h0.9v4.9c0.3-0.9,1.3-1.4,2-1.4c1.4,0,2.4,1,2.4,2.8v4.2h-0.9v-4.1c0-1.2-0.7-1.9-1.6-1.9
			c-0.9,0-1.9,0.6-1.9,2.1v4h-0.9V466.4L-224.1,466.4z"/>
		<path class="st1" d="M-217.2,473.5c0-2.2,1.3-3.6,3-3.6c1.8,0,3,1.3,3,3.5c0,2.1,0,0.3,0,0.5h-5c0.1,1.5,1,2.3,2.2,2.3
			s1.4-0.4,1.8-1.1l0.8,0.5c-0.5,1-1.5,1.5-2.6,1.5C-215.8,477.1-217.1,475.7-217.2,473.5L-217.2,473.5z M-212.1,473.1
			c-0.1-1.4-0.9-2.3-2-2.3s-2,0.8-2.1,2.3H-212.1z"/>
		<path class="st1" d="M-209.6,470.1h0.9v1.2c0.3-0.9,1.3-1.4,2-1.4c1.4,0,2.4,1,2.4,2.8v4.2h-0.9v-4.1c0-1.2-0.7-1.9-1.6-1.9
			c-0.9,0-1.9,0.6-1.9,2.1v4h-0.9V470.1z"/>
		<path class="st1" d="M-202.8,475.1h0.9c0,0.6,0.5,1.1,1.4,1.1c0.8,0,1.4-0.5,1.4-1.1s-0.3-0.9-1-1.1l-0.9-0.3
			c-0.9-0.3-1.6-0.8-1.6-1.9s0.9-1.9,2.1-1.9s2,0.6,2,1.8h-0.9c0-0.6-0.5-1-1.1-1s-1.2,0.4-1.2,1s0.5,0.9,0.9,1.1l0.9,0.3
			c1.2,0.4,1.6,1.2,1.6,1.9c0,1.2-1,2-2.3,2S-202.8,476.4-202.8,475.1L-202.8,475.1z"/>
		<path class="st1" d="M-209.1,446.9l-4.7-7l-6-8.8h-10.9l10.7,15.5l-10.5,16.1h10.5l5.5-7.9l5.7,7.9h10.9L-209.1,446.9z"/>
		<path class="st1" d="M-198.3,431.1h-10.4l-3.4,5.9l4.9,7.2L-198.3,431.1z"/>
	</g>
</g>
</svg>
